<svg width="28" height="28" viewBox="0 0 28 28" fill="none" xmlns="http://www.w3.org/2000/svg">
<path d="M9.33351 3.73328C8.08906 3.73328 7.18247 4.35671 6.48247 4.82338C5.78247 5.29005 5.28906 5.59994 4.66684 5.59994C4.54316 5.59819 4.42037 5.62104 4.3056 5.66716C4.19083 5.71328 4.08637 5.78175 3.99829 5.86859C3.91021 5.95544 3.84027 6.05892 3.79254 6.17302C3.7448 6.28713 3.72021 6.40959 3.72021 6.53328C3.72021 6.65697 3.7448 6.77942 3.79254 6.89353C3.84027 7.00764 3.91021 7.11112 3.99829 7.19796C4.08637 7.2848 4.19083 7.35327 4.3056 7.39939C4.42037 7.44551 4.54316 7.46836 4.66684 7.46661C5.91129 7.46661 6.81788 6.84317 7.51788 6.37651C8.21788 5.90984 8.71129 5.59994 9.33351 5.59994C9.95573 5.59994 10.4491 5.90984 11.1491 6.37651C11.8491 6.84317 12.7557 7.46661 14.0002 7.46661C15.2446 7.46661 16.1512 6.84317 16.8512 6.37651C17.5512 5.90984 18.0446 5.59994 18.6668 5.59994C19.2891 5.59994 19.7825 5.90984 20.4825 6.37651C21.1825 6.84317 22.0891 7.46661 23.3335 7.46661C23.4572 7.46836 23.58 7.44551 23.6947 7.39939C23.8095 7.35327 23.914 7.2848 24.0021 7.19796C24.0901 7.11112 24.1601 7.00764 24.2078 6.89353C24.2556 6.77942 24.2801 6.65697 24.2801 6.53328C24.2801 6.40959 24.2556 6.28713 24.2078 6.17302C24.1601 6.05892 24.0901 5.95544 24.0021 5.86859C23.914 5.78175 23.8095 5.71328 23.6947 5.66716C23.58 5.62104 23.4572 5.59819 23.3335 5.59994C22.7113 5.59994 22.2179 5.29005 21.5179 4.82338C20.8179 4.35671 19.9113 3.73328 18.6668 3.73328C17.4224 3.73328 16.5158 4.35671 15.8158 4.82338C15.1158 5.29005 14.6224 5.59994 14.0002 5.59994C13.378 5.59994 12.8845 5.29005 12.1845 4.82338C11.4845 4.35671 10.578 3.73328 9.33351 3.73328ZM9.33351 9.33328C8.08906 9.33328 7.18247 9.95671 6.48247 10.4234C5.78247 10.89 5.28906 11.1999 4.66684 11.1999C4.54316 11.1982 4.42037 11.221 4.3056 11.2672C4.19083 11.3133 4.08637 11.3818 3.99829 11.4686C3.91021 11.5554 3.84027 11.6589 3.79254 11.773C3.7448 11.8871 3.72021 12.0096 3.72021 12.1333C3.72021 12.257 3.7448 12.3794 3.79254 12.4935C3.84027 12.6076 3.91021 12.7111 3.99829 12.798C4.08637 12.8848 4.19083 12.9533 4.3056 12.9994C4.42037 13.0455 4.54316 13.0684 4.66684 13.0666C5.91129 13.0666 6.81788 12.4432 7.51788 11.9765C8.21788 11.5098 8.71129 11.1999 9.33351 11.1999C9.95573 11.1999 10.4491 11.5098 11.1491 11.9765C11.8491 12.4432 12.7557 13.0666 14.0002 13.0666C15.2446 13.0666 16.1512 12.4432 16.8512 11.9765C17.5512 11.5098 18.0446 11.1999 18.6668 11.1999C19.2891 11.1999 19.7825 11.5098 20.4825 11.9765C21.1825 12.4432 22.0891 13.0666 23.3335 13.0666C23.4572 13.0684 23.58 13.0455 23.6947 12.9994C23.8095 12.9533 23.914 12.8848 24.0021 12.798C24.0901 12.7111 24.1601 12.6076 24.2078 12.4935C24.2556 12.3794 24.2801 12.257 24.2801 12.1333C24.2801 12.0096 24.2556 11.8871 24.2078 11.773C24.1601 11.6589 24.0901 11.5554 24.0021 11.4686C23.914 11.3818 23.8095 11.3133 23.6947 11.2672C23.58 11.221 23.4572 11.1982 23.3335 11.1999C22.7113 11.1999 22.2179 10.89 21.5179 10.4234C20.8179 9.95671 19.9113 9.33328 18.6668 9.33328C17.4224 9.33328 16.5158 9.95671 15.8158 10.4234C15.1158 10.89 14.6224 11.1999 14.0002 11.1999C13.378 11.1999 12.8845 10.89 12.1845 10.4234C11.4845 9.95671 10.578 9.33328 9.33351 9.33328ZM9.33351 14.9333C8.08906 14.9333 7.18247 15.5567 6.48247 16.0234C5.78247 16.49 5.28906 16.7999 4.66684 16.7999C4.54316 16.7982 4.42037 16.821 4.3056 16.8672C4.19083 16.9133 4.08637 16.9818 3.99829 17.0686C3.91021 17.1554 3.84027 17.2589 3.79254 17.373C3.7448 17.4871 3.72021 17.6096 3.72021 17.7333C3.72021 17.857 3.7448 17.9794 3.79254 18.0935C3.84027 18.2076 3.91021 18.3111 3.99829 18.398C4.08637 18.4848 4.19083 18.5533 4.3056 18.5994C4.42037 18.6455 4.54316 18.6684 4.66684 18.6666C5.91129 18.6666 6.81788 18.0432 7.51788 17.5765C8.21788 17.1098 8.71129 16.7999 9.33351 16.7999C9.95573 16.7999 10.4491 17.1098 11.1491 17.5765C11.8491 18.0432 12.7557 18.6666 14.0002 18.6666C15.2446 18.6666 16.1512 18.0432 16.8512 17.5765C17.5512 17.1098 18.0446 16.7999 18.6668 16.7999C19.2891 16.7999 19.7825 17.1098 20.4825 17.5765C21.1825 18.0432 22.0891 18.6666 23.3335 18.6666C23.4572 18.6684 23.58 18.6455 23.6947 18.5994C23.8095 18.5533 23.914 18.4848 24.0021 18.398C24.0901 18.3111 24.1601 18.2076 24.2078 18.0935C24.2556 17.9794 24.2801 17.857 24.2801 17.7333C24.2801 17.6096 24.2556 17.4871 24.2078 17.373C24.1601 17.2589 24.0901 17.1554 24.0021 17.0686C23.914 16.9818 23.8095 16.9133 23.6947 16.8672C23.58 16.821 23.4572 16.7982 23.3335 16.7999C22.7113 16.7999 22.2179 16.49 21.5179 16.0234C20.8179 15.5567 19.9113 14.9333 18.6668 14.9333C17.4224 14.9333 16.5158 15.5567 15.8158 16.0234C15.1158 16.49 14.6224 16.7999 14.0002 16.7999C13.378 16.7999 12.8845 16.49 12.1845 16.0234C11.4845 15.5567 10.578 14.9333 9.33351 14.9333ZM9.33351 20.5333C8.08906 20.5333 7.18247 21.1567 6.48247 21.6234C5.78247 22.09 5.28906 22.3999 4.66684 22.3999C4.54316 22.3982 4.42037 22.421 4.3056 22.4672C4.19083 22.5133 4.08637 22.5818 3.99829 22.6686C3.91021 22.7554 3.84027 22.8589 3.79254 22.973C3.7448 23.0871 3.72021 23.2096 3.72021 23.3333C3.72021 23.457 3.7448 23.5794 3.79254 23.6935C3.84027 23.8076 3.91021 23.9111 3.99829 23.998C4.08637 24.0848 4.19083 24.1533 4.3056 24.1994C4.42037 24.2455 4.54316 24.2684 4.66684 24.2666C5.91129 24.2666 6.81788 23.6432 7.51788 23.1765C8.21788 22.7098 8.71129 22.3999 9.33351 22.3999C9.95573 22.3999 10.4491 22.7098 11.1491 23.1765C11.8491 23.6432 12.7557 24.2666 14.0002 24.2666C15.2446 24.2666 16.1512 23.6432 16.8512 23.1765C17.5512 22.7098 18.0446 22.3999 18.6668 22.3999C19.2891 22.3999 19.7825 22.7098 20.4825 23.1765C21.1825 23.6432 22.0891 24.2666 23.3335 24.2666C23.4572 24.2684 23.58 24.2455 23.6947 24.1994C23.8095 24.1533 23.914 24.0848 24.0021 23.998C24.0901 23.9111 24.1601 23.8076 24.2078 23.6935C24.2556 23.5794 24.2801 23.457 24.2801 23.3333C24.2801 23.2096 24.2556 23.0871 24.2078 22.973C24.1601 22.8589 24.0901 22.7554 24.0021 22.6686C23.914 22.5818 23.8095 22.5133 23.6947 22.4672C23.58 22.421 23.4572 22.3982 23.3335 22.3999C22.7113 22.3999 22.2179 22.09 21.5179 21.6234C20.8179 21.1567 19.9113 20.5333 18.6668 20.5333C17.4224 20.5333 16.5158 21.1567 15.8158 21.6234C15.1158 22.09 14.6224 22.3999 14.0002 22.3999C13.378 22.3999 12.8845 22.09 12.1845 21.6234C11.4845 21.1567 10.578 20.5333 9.33351 20.5333Z" fill="white"/>
</svg>
