<svg width="18" height="18" viewBox="0 0 18 18" fill="none" xmlns="http://www.w3.org/2000/svg">
<path d="M9.62518 2.96648L9.62588 2.96789L10.9447 5.60555C11.1021 5.92526 11.3603 6.19097 11.6195 6.38223C11.88 6.57446 12.2095 6.74163 12.5584 6.79978L12.5588 6.79984L14.9509 7.19727C14.951 7.1973 14.9512 7.19732 14.9513 7.19734C15.5866 7.30331 15.7213 7.54045 15.7411 7.60199C15.7604 7.66185 15.7906 7.93101 15.3332 8.38534L15.3314 8.38715L13.4714 10.2471C13.2015 10.517 13.0265 10.8713 12.931 11.2048C12.8354 11.5387 12.7971 11.93 12.8799 12.299L12.8798 12.299L12.881 12.304L13.4134 14.6059C13.6088 15.4539 13.3869 15.6578 13.3846 15.6596C13.3809 15.6622 13.1166 15.8101 12.3663 15.3671C12.3661 15.367 12.3658 15.3668 12.3656 15.3667L10.1241 14.0398C10.124 14.0397 10.1239 14.0396 10.1238 14.0396C9.77737 13.8344 9.36844 13.755 9.00201 13.755C8.6348 13.755 8.22674 13.8347 7.87953 14.0367L7.87952 14.0367L7.87464 14.0396L5.63214 15.3671L5.63143 15.3675C4.88805 15.8087 4.62269 15.6612 4.6169 15.6569C4.6117 15.6531 4.39047 15.4468 4.58489 14.6066L4.58491 14.6065L5.11741 12.304L5.11743 12.304L5.11854 12.299C5.20126 11.93 5.163 11.5387 5.06743 11.2048C4.97195 10.8713 4.79692 10.517 4.52703 10.2471L4.01791 10.7563L4.52703 10.2471L2.66703 8.38715C2.21253 7.93265 2.24085 7.66226 2.26053 7.60063C2.27998 7.53971 2.41255 7.30318 3.04712 7.19734C3.04725 7.19732 3.04737 7.1973 3.0475 7.19727L5.43962 6.79984L5.43962 6.79984L5.44226 6.79939C5.78812 6.74066 6.11549 6.57266 6.37371 6.38119C6.63101 6.19041 6.88887 5.92503 7.04619 5.60555L8.36432 2.96929C8.36441 2.96911 8.3645 2.96893 8.36459 2.96875C8.67028 2.36084 8.94282 2.30811 8.99826 2.30811C9.05237 2.30811 9.32313 2.35921 9.62518 2.96648Z" stroke="#FF69B4" stroke-width="1.5" stroke-linecap="round" stroke-linejoin="round"/>
</svg>
