<svg width="24" height="20" viewBox="0 0 24 20" fill="none" xmlns="http://www.w3.org/2000/svg">
<path d="M23.9719 2.33893C23.9375 2.29819 23.8807 2.28436 23.8323 2.30658C23.1148 2.62633 22.3599 2.8562 21.5825 2.99199C22.4079 2.36831 23.0229 1.50464 23.3383 0.514303C23.3535 0.466897 23.3378 0.415047 23.2992 0.384184C23.2603 0.353321 23.2065 0.34937 23.164 0.374802C22.2343 0.928609 21.2275 1.31897 20.17 1.5355C19.233 0.558746 17.9246 0 16.5704 0C13.8164 0 11.5761 2.25029 11.5761 5.01637C11.5761 5.35092 11.6083 5.68227 11.6722 6.00398C7.8578 5.76745 4.29114 3.92801 1.866 0.940214C1.84117 0.909597 1.80357 0.892561 1.76424 0.896511C1.72515 0.899474 1.69025 0.921696 1.67058 0.955522C1.22813 1.71796 0.994368 2.59028 0.994368 3.47765C0.994368 5.01562 1.69 6.4536 2.87455 7.40245C2.2647 7.32888 1.66911 7.13604 1.13202 6.83655C1.09589 6.81605 1.0509 6.8163 1.01477 6.83729C0.978636 6.85803 0.955776 6.89654 0.954793 6.93852L0.954301 7.00271C0.954301 9.21152 2.40334 11.151 4.46492 11.7949C3.92193 11.8828 3.35854 11.8769 2.80474 11.7707C2.76393 11.763 2.72116 11.7771 2.69314 11.8087C2.66537 11.8403 2.65603 11.8845 2.66881 11.9245C3.28701 13.8627 5.00471 15.2219 7.00411 15.3913C5.33631 16.6187 3.36493 17.2653 1.28196 17.2653C0.898257 17.2653 0.511848 17.2424 0.133305 17.1977C0.0792271 17.1915 0.0256411 17.2238 0.00695974 17.2759C-0.0117216 17.3285 0.00818878 17.3873 0.0548922 17.4172C2.30895 18.8692 4.91524 19.6363 7.59233 19.6363C16.3492 19.6363 21.582 12.4914 21.582 5.584C21.582 5.39166 21.5783 5.20031 21.5707 5.00945C22.5153 4.3154 23.3262 3.4658 23.9801 2.48238C24.0093 2.43843 24.0061 2.37992 23.9719 2.33893Z" fill="#3A3A3A"/>
</svg>
