<svg width="98" height="98" viewBox="0 0 98 98" fill="none" xmlns="http://www.w3.org/2000/svg">
<rect x="2.5" y="2.5" width="93" height="93" rx="46.5" stroke="#FF69B4" stroke-width="5"/>
<path d="M66.0267 47.83C66.0255 47.0388 65.7401 46.2743 65.2225 45.6759C64.7049 45.0775 63.9895 44.6851 63.2067 44.57C61.8367 37.34 56.0267 31.97 49.0267 31.97C42.0267 31.97 36.2167 37.34 34.8467 44.57C34.0582 44.6772 33.3353 45.0666 32.8118 45.666C32.2884 46.2654 32 47.0342 32 47.83C32 48.6257 32.2884 49.3946 32.8118 49.994C33.3353 50.5934 34.0582 50.9827 34.8467 51.09C36.2167 58.34 42.0267 63.7 49.0267 63.7C56.0267 63.7 61.8367 58.34 63.2067 51.09C63.9895 50.9749 64.7049 50.5824 65.2225 49.984C65.7401 49.3856 66.0255 48.6212 66.0267 47.83Z" fill="#FFDA8F"/>
<path d="M34.8468 47.88C35.5016 44.6012 37.2724 41.6507 39.8577 39.5306C42.4431 37.4105 45.6833 36.2518 49.0268 36.2518C52.3703 36.2518 55.6105 37.4105 58.1959 39.5306C60.7812 41.6507 62.552 44.6012 63.2068 47.88C63.6977 47.9415 64.1687 48.1117 64.5856 48.3781C65.0024 48.6444 65.3547 49.0004 65.6168 49.42C65.8748 48.9539 66.0158 48.4322 66.0277 47.8996C66.0395 47.367 65.9218 46.8395 65.6848 46.3624C65.4477 45.8854 65.0984 45.473 64.6667 45.1608C64.2351 44.8485 63.7341 44.6458 63.2068 44.57C61.8368 37.34 56.0268 31.97 49.0268 31.97C42.0268 31.97 36.2168 37.34 34.8468 44.57C34.3195 44.6458 33.8185 44.8485 33.3869 45.1608C32.9553 45.473 32.6059 45.8854 32.3688 46.3624C32.1318 46.8395 32.0141 47.367 32.026 47.8996C32.0378 48.4322 32.1788 48.9539 32.4368 49.42C32.6989 49.0004 33.0512 48.6444 33.4681 48.3781C33.8849 48.1117 34.3559 47.9415 34.8468 47.88Z" fill="#FFE9BD"/>
<path d="M66.0267 47.83C66.0255 47.0388 65.7401 46.2743 65.2225 45.6759C64.7049 45.0775 63.9895 44.6851 63.2067 44.57C61.8367 37.34 56.0267 31.97 49.0267 31.97C42.0267 31.97 36.2167 37.34 34.8467 44.57C34.0582 44.6772 33.3353 45.0666 32.8118 45.666C32.2884 46.2654 32 47.0342 32 47.83C32 48.6257 32.2884 49.3946 32.8118 49.994C33.3353 50.5934 34.0582 50.9827 34.8467 51.09C36.2167 58.34 42.0267 63.7 49.0267 63.7C56.0267 63.7 61.8367 58.34 63.2067 51.09C63.9895 50.9749 64.7049 50.5824 65.2225 49.984C65.7401 49.3856 66.0255 48.6212 66.0267 47.83Z" stroke="#45413C" stroke-linecap="round" stroke-linejoin="round"/>
<path d="M44.5868 54.34C44.4861 54.3387 44.3864 54.3595 44.2946 54.4008C44.2028 54.4422 44.1212 54.5031 44.0554 54.5793C43.9897 54.6555 43.9414 54.7452 43.914 54.8421C43.8866 54.939 43.8807 55.0406 43.8968 55.14C44.0982 56.3552 44.7244 57.4593 45.6639 58.2559C46.6033 59.0525 47.7951 59.4897 49.0268 59.4897C50.2585 59.4897 51.4502 59.0525 52.3897 58.2559C53.3291 57.4593 53.9554 56.3552 54.1568 55.14C54.1728 55.0406 54.1669 54.939 54.1395 54.8421C54.1121 54.7452 54.0639 54.6555 53.9981 54.5793C53.9324 54.5031 53.8507 54.4422 53.7589 54.4008C53.6672 54.3595 53.5674 54.3387 53.4668 54.34H44.5868Z" fill="#FF6242"/>
<path d="M49.0269 56.46C47.6126 56.4149 46.2233 56.8405 45.0769 57.67C45.5697 58.2329 46.177 58.6839 46.8582 58.9929C47.5395 59.3019 48.2789 59.4617 49.0269 59.4617C49.7749 59.4617 50.5143 59.3019 51.1956 58.9929C51.8768 58.6839 52.4842 58.2329 52.9769 57.67C51.8305 56.8405 50.4412 56.4149 49.0269 56.46Z" fill="#FFA694"/>
<path d="M44.5868 54.34C44.4861 54.3387 44.3864 54.3595 44.2946 54.4008C44.2028 54.4422 44.1212 54.5031 44.0554 54.5793C43.9897 54.6555 43.9414 54.7452 43.914 54.8421C43.8866 54.939 43.8807 55.0406 43.8968 55.14C44.0982 56.3552 44.7244 57.4593 45.6639 58.2559C46.6033 59.0525 47.7951 59.4897 49.0268 59.4897C50.2585 59.4897 51.4502 59.0525 52.3897 58.2559C53.3291 57.4593 53.9554 56.3552 54.1568 55.14C54.1728 55.0406 54.1669 54.939 54.1395 54.8421C54.1121 54.7452 54.0639 54.6555 53.9981 54.5793C53.9324 54.5031 53.8507 54.4422 53.7589 54.4008C53.6672 54.3595 53.5674 54.3387 53.4668 54.34H44.5868Z" stroke="#45413C" stroke-linecap="round" stroke-linejoin="round"/>
<path d="M38.1567 52.1201C38.1567 52.3694 38.3221 52.6085 38.6166 52.7847C38.911 52.961 39.3103 53.0601 39.7267 53.0601C40.1431 53.0601 40.5425 52.961 40.8369 52.7847C41.1313 52.6085 41.2967 52.3694 41.2967 52.1201C41.2967 51.8708 41.1313 51.6317 40.8369 51.4554C40.5425 51.2791 40.1431 51.1801 39.7267 51.1801C39.3103 51.1801 38.911 51.2791 38.6166 51.4554C38.3221 51.6317 38.1567 51.8708 38.1567 52.1201ZM56.7567 52.1201C56.7567 52.3694 56.9221 52.6085 57.2166 52.7847C57.511 52.961 57.9103 53.0601 58.3267 53.0601C58.7431 53.0601 59.1425 52.961 59.4369 52.7847C59.7313 52.6085 59.8967 52.3694 59.8967 52.1201C59.8967 51.8708 59.7313 51.6317 59.4369 51.4554C59.1425 51.2791 58.7431 51.1801 58.3267 51.1801C57.9103 51.1801 57.511 51.2791 57.2166 51.4554C56.9221 51.6317 56.7567 51.8708 56.7567 52.1201Z" fill="#FFBE3D"/>
<path d="M49.0267 31C47.8349 31.0123 46.6959 31.4937 45.8567 32.34C46.1372 32.2467 46.431 32.1994 46.7267 32.2C47.1831 32.2009 47.6317 32.318 48.0304 32.5401C48.4291 32.7622 48.7647 33.0821 49.0056 33.4696C49.2466 33.8572 49.385 34.2997 49.4078 34.7555C49.4306 35.2113 49.3371 35.6655 49.136 36.0752C48.935 36.4849 48.633 36.8367 48.2585 37.0975C47.8839 37.3583 47.4492 37.5195 46.9952 37.566C46.5412 37.6125 46.0829 37.5427 45.6633 37.3632C45.2437 37.1837 44.8766 36.9004 44.5967 36.54C44.785 37.374 45.205 38.1378 45.8083 38.7436C46.4116 39.3494 47.1737 39.7726 48.0069 39.9643C48.8401 40.1561 49.7105 40.1087 50.5179 39.8276C51.3253 39.5465 52.037 39.0431 52.5709 38.3753C53.1049 37.7076 53.4394 36.9027 53.5361 36.0532C53.6327 35.2037 53.4875 34.3442 53.1172 33.5735C52.7469 32.8029 52.1665 32.1526 51.4428 31.6973C50.7192 31.242 49.8817 31.0003 49.0267 31Z" fill="#614B44"/>
<path d="M49.1367 33.6501C50.1046 33.9065 50.9603 34.4763 51.57 35.2706C52.1797 36.0649 52.5091 37.0388 52.5067 38.0401C52.5166 38.1932 52.5166 38.3469 52.5067 38.5001C53.2288 37.6688 53.6203 36.6011 53.6067 35.5001C53.5922 34.6086 53.3161 33.741 52.8127 33.0051C52.3093 32.2692 51.6008 31.6975 50.7752 31.3608C49.9496 31.0242 49.0433 30.9375 48.1689 31.1116C47.2944 31.2857 46.4904 31.7129 45.8567 32.3401C46.1372 32.2468 46.431 32.1995 46.7267 32.2001C47.2231 32.1959 47.7109 32.3291 48.1363 32.585C48.5616 32.8409 48.9079 33.2095 49.1367 33.6501Z" fill="#947063"/>
<path d="M43.7368 46.83C43.6083 46.5393 43.3982 46.2922 43.1319 46.1188C42.8656 45.9454 42.5546 45.853 42.2368 45.853C41.919 45.853 41.6081 45.9454 41.3418 46.1188C41.0755 46.2922 40.8653 46.5393 40.7368 46.83M57.3368 46.83C57.2083 46.5393 56.9982 46.2922 56.7319 46.1188C56.4656 45.9454 56.1546 45.853 55.8368 45.853C55.519 45.853 55.2081 45.9454 54.9418 46.1188C54.6755 46.2922 54.4653 46.5393 54.3368 46.83M49.0268 31C47.835 31.0123 46.6961 31.4937 45.8568 32.34C46.1374 32.2467 46.4312 32.1994 46.7268 32.2C47.1832 32.2009 47.6318 32.318 48.0305 32.5401C48.4292 32.7622 48.7648 33.0821 49.0058 33.4696C49.2468 33.8572 49.3852 34.2997 49.408 34.7555C49.4308 35.2113 49.3373 35.6655 49.1362 36.0752C48.9351 36.4849 48.6331 36.8367 48.2586 37.0975C47.8841 37.3583 47.4494 37.5195 46.9954 37.566C46.5414 37.6125 46.083 37.5427 45.6634 37.3632C45.2438 37.1837 44.8768 36.9004 44.5968 36.54C44.7851 37.374 45.2051 38.1378 45.8084 38.7436C46.4117 39.3494 47.1738 39.7726 48.007 39.9643C48.8402 40.1561 49.7106 40.1087 50.5181 39.8276C51.3255 39.5465 52.0371 39.0431 52.5711 38.3753C53.105 37.7076 53.4396 36.9027 53.5362 36.0532C53.6329 35.2037 53.4877 34.3442 53.1173 33.5735C52.747 32.8029 52.1666 32.1526 51.443 31.6973C50.7193 31.242 49.8818 31.0003 49.0268 31Z" stroke="#45413C" stroke-linecap="round" stroke-linejoin="round"/>
<path opacity="0.15" d="M35.5269 70.84C35.5269 71.2378 36.9492 71.6193 39.4809 71.9006C42.0127 72.1819 45.4464 72.34 49.0269 72.34C52.6073 72.34 56.0411 72.1819 58.5728 71.9006C61.1045 71.6193 62.5269 71.2378 62.5269 70.84C62.5269 70.4421 61.1045 70.0606 58.5728 69.7793C56.0411 69.498 52.6073 69.34 49.0269 69.34C45.4464 69.34 42.0127 69.498 39.4809 69.7793C36.9492 70.0606 35.5269 70.4421 35.5269 70.84Z" fill="#45413C"/>
</svg>
