<svg width="26" height="18" viewBox="0 0 26 18" fill="none" xmlns="http://www.w3.org/2000/svg">
<path d="M11.0042 13.7774C10.8459 13.7774 10.6982 13.7474 10.561 13.6799C10.3395 13.5749 10.2129 13.4024 10.2129 13.2149C10.2129 13.1024 10.2023 12.9824 10.1812 12.8624C10.0863 12.3299 9.74866 11.8649 9.17893 11.4599C8.60921 11.0549 7.90233 10.7999 7.14269 10.7324C7.01609 10.7249 6.83673 10.7174 6.66792 10.7249C6.39361 10.7399 6.1404 10.6574 5.98214 10.4999C5.82389 10.3499 5.78168 10.1474 5.86609 9.96744C6.02434 9.65994 6.25645 9.38244 6.53077 9.15744L8.15554 7.70244C10.9514 5.21994 16.617 2.23494 20.7633 1.04994C21.639 0.809941 22.578 0.952441 23.2216 1.40244C23.8863 1.87494 24.0867 2.54994 23.7386 3.16494C22.0716 6.11994 17.8831 10.1399 14.3909 12.1274L12.3124 13.3124C11.9221 13.5149 11.6055 13.6424 11.289 13.7324C11.2046 13.7624 11.0991 13.7774 11.0042 13.7774ZM7.95508 9.70494C8.84132 9.86994 9.6326 10.1999 10.2973 10.6724C10.962 11.1374 11.4051 11.6774 11.6266 12.2774L13.4097 11.2574C16.7225 9.37494 20.7 5.55744 22.2721 2.75244C22.4303 2.47494 22.2087 2.27994 22.1032 2.21244C22.0294 2.15994 21.7551 1.99494 21.3331 2.10744C17.4083 3.23244 12.0381 6.05994 9.37939 8.41494L7.95508 9.70494Z" fill="black" fill-opacity="0.87"/>
<path d="M4.30456 17.0625C3.51327 17.0625 2.75364 16.8375 2.18392 16.4325C1.52979 15.9675 1.21327 15.3225 1.31878 14.6625L1.60364 12.8175C1.87795 10.9875 3.98804 9.63004 6.60456 9.59254C6.80502 9.58504 7.06878 9.59254 7.31144 9.60754C8.46144 9.71254 9.48483 10.08 10.3078 10.665C11.1202 11.2425 11.6055 11.9325 11.7532 12.705C11.7848 12.87 11.8059 13.05 11.8059 13.2075C11.8059 14.1975 11.2679 15.12 10.2972 15.8175C9.48483 16.3875 8.44034 16.74 7.25869 16.845L4.65272 17.0475C4.53667 17.055 4.42061 17.0625 4.30456 17.0625ZM6.80502 10.725C6.76281 10.725 6.71006 10.725 6.66786 10.725C5.07474 10.7475 3.38667 11.52 3.17566 12.945L2.8908 14.79C2.83804 15.105 2.9963 15.4125 3.30226 15.6375C3.60823 15.855 4.0408 15.9675 4.47337 15.93L7.06878 15.7275C7.88116 15.6525 8.60915 15.4125 9.15777 15.0225C9.833 14.5425 10.2128 13.8975 10.2128 13.2075C10.2128 13.095 10.2023 12.975 10.1812 12.855C10.0862 12.3225 9.74859 11.8575 9.17887 11.4525C8.60915 11.0475 7.90226 10.7925 7.14263 10.725C7.05823 10.725 6.93162 10.725 6.80502 10.725Z" fill="black" fill-opacity="0.87"/>
<path d="M15.0238 11.4149C14.5913 11.4149 14.2326 11.1599 14.2326 10.8524C14.2326 9.20243 12.344 7.86743 10.0335 7.86743C9.6009 7.86743 9.24219 7.61243 9.24219 7.30493C9.24219 6.99743 9.59035 6.74243 10.0229 6.74243C13.2092 6.74243 15.8046 8.58743 15.8046 10.8524C15.8151 11.1674 15.4564 11.4149 15.0238 11.4149Z" fill="black" fill-opacity="0.87"/>
</svg>
