<svg width="28" height="28" viewBox="0 0 28 28" fill="none" xmlns="http://www.w3.org/2000/svg">
<path d="M8.38556 1.85387C8.13834 1.85774 7.90276 1.95953 7.73051 2.1369C7.55826 2.31428 7.46342 2.55274 7.46681 2.79997V3.7333H6.53348C6.4098 3.73155 6.28701 3.7544 6.17224 3.80052C6.05747 3.84664 5.95301 3.91511 5.86493 4.00195C5.77685 4.08879 5.70691 4.19227 5.65917 4.30638C5.61143 4.42049 5.58685 4.54294 5.58685 4.66663C5.58685 4.79032 5.61143 4.91278 5.65917 5.02689C5.70691 5.14099 5.77685 5.24448 5.86493 5.33132C5.95301 5.41816 6.05747 5.48663 6.17224 5.53275C6.28701 5.57887 6.4098 5.60172 6.53348 5.59997H7.46681V6.5333C7.46506 6.65698 7.48791 6.77977 7.53403 6.89454C7.58015 7.00931 7.64862 7.11377 7.73546 7.20185C7.8223 7.28993 7.92578 7.35987 8.03989 7.40761C8.154 7.45534 8.27645 7.47993 8.40014 7.47993C8.52383 7.47993 8.64629 7.45534 8.7604 7.40761C8.8745 7.35987 8.97798 7.28993 9.06483 7.20185C9.15167 7.11377 9.22014 7.00931 9.26626 6.89454C9.31238 6.77977 9.33522 6.65698 9.33348 6.5333V5.59997H10.2668C10.3905 5.60172 10.5133 5.57887 10.628 5.53275C10.7428 5.48663 10.8473 5.41816 10.9354 5.33132C11.0234 5.24448 11.0934 5.14099 11.1411 5.02689C11.1889 4.91278 11.2134 4.79032 11.2134 4.66663C11.2134 4.54294 11.1889 4.42049 11.1411 4.30638C11.0934 4.19227 11.0234 4.08879 10.9354 4.00195C10.8473 3.91511 10.7428 3.84664 10.628 3.80052C10.5133 3.7544 10.3905 3.73155 10.2668 3.7333H9.33348V2.79997C9.33519 2.6751 9.31182 2.55115 9.26477 2.43548C9.21771 2.3198 9.14792 2.21474 9.05953 2.12652C8.97114 2.0383 8.86595 1.96871 8.75018 1.92188C8.63441 1.87505 8.51043 1.85192 8.38556 1.85387ZM24.8665 2.80544L22.154 3.54554C21.748 3.65661 21.4668 4.02513 21.4668 4.44606V8.78096C21.4668 9.94482 18.6668 9.08493 18.6668 11.5153C18.6668 12.4487 19.2197 13.0666 20.2837 13.0666C21.9264 13.0666 22.4001 11.8185 22.4001 10.4325V5.96091L24.9668 5.19346C25.1021 5.16639 25.2001 5.04722 25.2001 4.90908V3.07887C25.2001 2.90247 25.0392 2.7709 24.8665 2.80544ZM13.2054 7.46846C9.79215 8.78912 7.46681 12.1928 7.46681 16.0726C7.46681 21.1136 11.5532 25.2 16.5942 25.2C20.474 25.2 23.8785 22.8755 25.2001 19.4632C24.1781 19.859 22.9706 19.9846 21.8095 19.9846C16.7686 19.9846 12.684 15.8982 12.684 10.8573C12.684 9.69619 12.8096 8.48952 13.2054 7.46846ZM3.71889 8.38721C3.47168 8.39107 3.23609 8.49286 3.06384 8.67024C2.8916 8.84761 2.79676 9.08608 2.80014 9.3333C2.67646 9.33155 2.55367 9.3544 2.4389 9.40052C2.32413 9.44664 2.21967 9.51511 2.13159 9.60195C2.04351 9.68879 1.97357 9.79227 1.92584 9.90638C1.8781 10.0205 1.85352 10.1429 1.85352 10.2666C1.85352 10.3903 1.8781 10.5128 1.92584 10.6269C1.97357 10.741 2.04351 10.8445 2.13159 10.9313C2.21967 11.0182 2.32413 11.0866 2.4389 11.1327C2.55367 11.1789 2.67646 11.2017 2.80014 11.2C2.79839 11.3236 2.82124 11.4464 2.86736 11.5612C2.91348 11.676 2.98195 11.7804 3.06879 11.8685C3.15563 11.9566 3.25912 12.0265 3.37322 12.0743C3.48733 12.122 3.60979 12.1466 3.73348 12.1466C3.85717 12.1466 3.97962 12.122 4.09373 12.0743C4.20784 12.0265 4.31132 11.9566 4.39816 11.8685C4.485 11.7804 4.55347 11.676 4.59959 11.5612C4.64571 11.4464 4.66856 11.3236 4.66681 11.2C4.79049 11.2017 4.91328 11.1789 5.02805 11.1327C5.14282 11.0866 5.24728 11.0182 5.33536 10.9313C5.42344 10.8445 5.49338 10.741 5.54111 10.6269C5.58885 10.5128 5.61344 10.3903 5.61344 10.2666C5.61344 10.1429 5.58885 10.0205 5.54111 9.90638C5.49338 9.79227 5.42344 9.68879 5.33536 9.60195C5.24728 9.51511 5.14282 9.44664 5.02805 9.40052C4.91328 9.3544 4.79049 9.33155 4.66681 9.3333C4.66852 9.20843 4.64515 9.08449 4.5981 8.96881C4.55104 8.85313 4.48126 8.74807 4.39287 8.65985C4.30448 8.57163 4.19928 8.50205 4.08352 8.45522C3.96775 8.40838 3.84376 8.38526 3.71889 8.38721Z" fill="white"/>
</svg>
