<svg width="25" height="27" viewBox="0 0 25 27" fill="none" xmlns="http://www.w3.org/2000/svg">
<path d="M21.4994 9.14743C19.2121 10.1005 16.8288 10.7031 14.3866 10.9483L15.5379 8.95411L19.4638 9.18978C19.8999 9.21593 20.2747 8.88366 20.3008 8.4476C20.327 8.01154 19.9947 7.63681 19.5587 7.6106L16.4223 7.42233L17.1199 6.21403L21.0459 6.4497C21.4819 6.47586 21.8567 6.14358 21.8829 5.70752C21.909 5.27146 21.5767 4.89673 21.1407 4.87052L18.0043 4.68226L18.8805 3.16462C19.7542 1.65125 21.6893 1.13277 23.2026 2.00647C24.716 2.88022 25.2345 4.81531 24.3607 6.32868L23.1242 8.47043L21.4994 9.14743Z" fill="#AE80FF"/>
<path d="M11.8653 11.0741C10.8157 11.0741 9.77439 11.0093 8.74417 10.8807C8.71643 10.6854 8.70125 10.4861 8.70125 10.2831C8.70125 7.95317 10.59 6.06439 12.92 6.06439C13.6959 6.06439 14.4223 6.2748 15.047 6.6403L12.4915 11.0665C12.2831 11.0716 12.0744 11.0741 11.8653 11.0741Z" fill="#AE80FF"/>
<path d="M7.67758 7.8013C7.09307 6.25555 6.98602 5.09239 6.98449 5.07457C6.94742 4.6393 6.56441 4.31752 6.1293 4.35337C5.69403 4.39039 5.37114 4.7733 5.40816 5.20857C5.41781 5.32216 5.6375 7.7096 7.12033 10.3371C7.12123 10.4336 7.12519 10.5294 7.13078 10.6247C5.45947 10.3032 3.82202 9.81021 2.23113 9.14734L1.27901 8.75062C1.40409 8.44397 1.57854 8.15815 1.79712 7.90603C0.723295 7.42989 4.43868e-05 6.36065 4.43868e-05 5.14159C4.43868e-05 3.4696 1.36027 2.10937 3.03227 2.10937C3.2972 2.10937 3.55945 2.14491 3.81616 2.21532C4.1747 0.923536 5.34952 0 6.72367 0C8.06201 0 9.22069 0.872489 9.61108 2.12319C9.70431 2.11396 9.79623 2.10937 9.88772 2.10937C11.3336 2.10937 12.5456 3.12693 12.8471 4.48336C10.567 4.51158 8.59964 5.86179 7.67758 7.8013Z" fill="#AE80FF"/>
<path d="M1.6227 10.6077C4.885 11.967 8.33114 12.6562 11.8653 12.6562C15.3995 12.6562 18.8457 11.967 22.108 10.6077C22.6629 10.3765 23.2627 10.8243 23.1987 11.4221C22.9352 13.8817 21.9813 22.8799 21.7679 24.879C21.6388 26.0881 20.6244 27 19.4083 27H4.32243C3.10627 27 2.09188 26.0881 1.96278 24.879C1.74937 22.8799 0.795509 13.8816 0.531997 11.4221C0.467923 10.8243 1.06778 10.3765 1.6227 10.6077ZM5.80089 21.7265C5.80089 22.1634 6.15506 22.5175 6.59191 22.5175H17.1388C17.5756 22.5175 17.9298 22.1634 17.9298 21.7265V17.5078C17.9298 17.0709 17.5756 16.7168 17.1388 16.7168H6.59191C6.15506 16.7168 5.80089 17.0709 5.80089 17.5078V21.7265Z" fill="#AE80FF"/>
<path d="M16.3477 18.2988H7.38284V20.9355H16.3477V18.2988Z" fill="#AE80FF"/>
</svg>
