<svg width="16" height="16" viewBox="0 0 16 16" fill="none" xmlns="http://www.w3.org/2000/svg">
<path d="M1.87966 10.5728L5.42049 14.1136C6.87434 15.5675 9.2349 15.5675 10.6966 14.1136L14.128 10.6822C15.5818 9.22834 15.5818 6.86779 14.128 5.40612L10.5793 1.8731C9.83677 1.13054 8.81281 0.731903 7.76542 0.786618L3.85721 0.974212C2.29393 1.04456 1.05112 2.28737 0.972953 3.84284L0.785359 7.75104C0.73846 8.80626 1.1371 9.83021 1.87966 10.5728Z" stroke="#3A3A3A" stroke-width="1.5" stroke-linecap="round" stroke-linejoin="round"/>
<path d="M6.04872 7.99245C7.12794 7.99245 8.00282 7.11757 8.00282 6.03835C8.00282 4.95913 7.12794 4.08425 6.04872 4.08425C4.9695 4.08425 4.09462 4.95913 4.09462 6.03835C4.09462 7.11757 4.9695 7.99245 6.04872 7.99245Z" stroke="#3A3A3A" stroke-width="1.5" stroke-linecap="round"/>
</svg>
