<svg width="335" height="80" viewBox="0 0 335 80" fill="none" xmlns="http://www.w3.org/2000/svg">
<rect x="0.5" y="0.5" width="149" height="79" rx="15.5" fill="#FF69B4" fill-opacity="0.1"/>
<path fill-rule="evenodd" clip-rule="evenodd" d="M69.6563 31.8953C71.3536 31.8953 72.7115 32.2348 73.5601 32.5742L72.8812 35.884L72.4569 35.7143C71.6931 35.3748 70.6747 35.1202 69.232 35.1202C67.5347 35.1202 66.7709 35.7991 66.7709 36.4781C66.7709 37.2029 67.6115 37.622 69.0027 38.3156L69.232 38.43C71.7779 39.5332 72.8812 40.8911 72.8812 42.6733C72.8812 43.9571 72.4105 45.0661 71.56 45.9359L71.6082 45.983C70.3352 47.3409 68.1287 48.1047 65.413 48.1047C63.4611 48.1047 61.5941 47.6803 60.5757 47.256L60.5892 47.1768L60.5757 47.1711L61.1697 43.6916L61.7638 43.9462C63.2065 44.5403 64.14 44.7949 65.8373 44.7949C67.0255 44.7949 68.3833 44.2857 68.3833 43.2673C68.3833 43.1104 68.3561 42.9626 68.2934 42.8186C68.2169 42.6919 68.1033 42.563 67.959 42.4187L68.2127 42.6665C67.948 42.2446 67.3427 41.8401 66.1768 41.3154C64.4795 40.5516 62.3579 39.3635 62.3579 37.0721C62.3579 34.0196 65.4078 31.899 69.6454 31.8953L69.6563 31.8953ZM53.8713 47.6803L56.587 32.4045H57.3508H60.8303L58.1994 47.6803H53.8713ZM80.8586 32.4045C79.8402 32.4045 79.0764 32.4894 78.6521 33.5078L72.2871 47.6803L72.8812 47.6803L76.8699 47.6803L77.7185 45.1344H83.1499L83.6591 47.6803H87.7327L87.7326 47.6798L86.29 41.4851L86.2863 41.4816L84.1683 32.4045H81.877H80.8586ZM81.198 36.5629C80.9434 37.157 80.604 38.0905 80.604 38.0905C80.604 38.0905 79.2461 41.7397 78.9067 42.5884H82.4538C82.2508 41.5973 81.4526 38.0057 81.4526 38.0057L81.198 36.5629ZM48.1004 47.7652L48.1386 47.6803H48.1853L48.7688 46.28L54.9745 32.4894H51.2405H50.3918L47.4408 39.7222L47.4215 39.703L46.0637 42.9279L45.7242 40.8062C45.6539 40.5721 45.5693 40.3358 45.4715 40.0986L44.1117 33.6775C43.8572 32.6591 43.0934 32.4045 42.1598 32.4045H34.2673L36.9975 33.2425C37.9905 33.6231 38.9331 34.0724 39.809 34.5788L43.5177 47.7652H48.1004Z" fill="#FF69B4"/>
<path fill-rule="evenodd" clip-rule="evenodd" d="M108.761 37.2959L105.923 41.0226L104.698 39.4581C104.443 39.1311 103.971 39.0741 103.645 39.3299C103.319 39.5849 103.261 40.0566 103.517 40.3821L105.34 42.7124C105.483 42.8939 105.7 42.9996 105.931 42.9996H105.937C106.168 42.9989 106.387 42.8894 106.528 42.7041L109.954 38.2041C110.206 37.8741 110.142 37.4046 109.812 37.1534C109.481 36.9021 109.012 36.9666 108.761 37.2959ZM106.733 46C103.424 46 100.733 43.3082 100.733 40C100.733 36.6918 103.424 34 106.733 34C110.041 34 112.733 36.6918 112.733 40C112.733 43.3082 110.041 46 106.733 46ZM106.733 32.5C102.59 32.5 99.2327 35.8585 99.2327 40C99.2327 44.1415 102.59 47.5 106.733 47.5C110.875 47.5 114.233 44.1415 114.233 40C114.233 35.8585 110.875 32.5 106.733 32.5Z" fill="#FF69B4"/>
<mask id="mask0_1_3823" style="mask-type:luminance" maskUnits="userSpaceOnUse" x="99" y="32" width="16" height="16">
<path fill-rule="evenodd" clip-rule="evenodd" d="M108.761 37.2959L105.923 41.0226L104.698 39.4581C104.443 39.1311 103.971 39.0741 103.645 39.3299C103.319 39.5849 103.261 40.0566 103.517 40.3821L105.34 42.7124C105.483 42.8939 105.7 42.9996 105.931 42.9996H105.937C106.168 42.9989 106.387 42.8894 106.528 42.7041L109.954 38.2041C110.206 37.8741 110.142 37.4046 109.812 37.1534C109.481 36.9021 109.012 36.9666 108.761 37.2959ZM106.733 46C103.424 46 100.733 43.3082 100.733 40C100.733 36.6918 103.424 34 106.733 34C110.041 34 112.733 36.6918 112.733 40C112.733 43.3082 110.041 46 106.733 46ZM106.733 32.5C102.59 32.5 99.2327 35.8585 99.2327 40C99.2327 44.1415 102.59 47.5 106.733 47.5C110.875 47.5 114.233 44.1415 114.233 40C114.233 35.8585 110.875 32.5 106.733 32.5Z" fill="white"/>
</mask>
<g mask="url(#mask0_1_3823)">
</g>
<rect x="0.5" y="0.5" width="149" height="79" rx="15.5" stroke="#FF69B4"/>
<rect x="185" width="150" height="80" rx="16" fill="#FF69B4" fill-opacity="0.1"/>
<path fill-rule="evenodd" clip-rule="evenodd" d="M275.125 46.4625L275.675 43.4375C275.675 43.4375 274.3 44.125 273.338 44.125C271.413 44.125 270.588 42.6125 270.588 40.9625C270.588 37.6625 272.238 35.875 274.163 35.875C275.538 35.875 276.638 36.7 276.638 36.7L277.05 33.8125C277.05 33.8125 275.4 33.125 273.888 33.125C270.725 33.125 267.563 35.875 267.563 41.1C267.563 44.5375 269.213 46.875 272.513 46.875C273.613 46.875 275.125 46.4625 275.125 46.4625ZM252.3 44.125L251.888 46.4625C251.613 46.6 250.925 46.875 250.1 46.875C250.059 46.875 250.018 46.8742 249.978 46.8727C249.927 46.8742 249.876 46.875 249.825 46.875C248.588 46.875 247.625 46.1875 247.625 44.5375L247.971 43.7847C248.287 41.311 249.55 34.3625 249.55 34.3625H252.3L252.025 36.0125H253.4L252.988 38.625H251.475L250.65 43.4375C250.513 43.7125 250.65 44.2625 251.613 44.2625C251.774 44.2625 251.935 44.2153 252.068 44.1762C252.163 44.1486 252.243 44.125 252.3 44.125ZM252.85 42.0625C252.85 45.9125 255.463 46.875 257.663 46.875C259.725 46.875 260.55 46.4625 260.55 46.4625L261.1 43.85C261.1 43.85 259.588 44.5375 258.213 44.5375C255.188 44.5375 255.738 42.3375 255.738 42.3375H261.375C261.375 42.3375 261.788 40.55 261.788 39.8625C261.788 38.075 260.825 35.875 257.8 35.875C257.771 35.8722 257.742 35.8698 257.714 35.8677C257.622 35.861 257.53 35.8577 257.44 35.8576C254.743 35.8551 252.85 38.7695 252.85 42.0625ZM257.663 38.075C259.055 38.075 258.932 39.5909 258.904 39.9381C258.902 39.9679 258.9 39.9891 258.9 40H255.875C255.875 39.8625 256.15 38.075 257.663 38.075ZM236.763 35.6C234.838 35.6 233.463 36.15 233.463 36.15L233.05 38.4875C233.05 38.4875 233.173 38.4329 233.397 38.3582L233.05 38.625C233.05 38.625 234.288 38.075 236.075 38.075C237.017 38.075 237.827 38.2066 237.861 38.985C237.848 39.4644 237.725 39.5875 237.725 39.5875H236.488C234.15 39.5875 231.538 40.55 231.538 43.7125C231.538 43.7354 231.538 43.7581 231.538 43.7807C231.538 43.8037 231.538 43.8268 231.538 43.85C231.538 46.325 233.188 46.875 234.15 46.875C235.669 46.875 236.503 46.1044 236.855 45.7794C236.933 45.7075 236.987 45.6575 237.02 45.6423L236.9 46.6H236.917L236.9 46.7375H239.375L240.475 39.175C240.475 39.1321 240.475 39.0897 240.473 39.0479L240.475 39.0375C240.475 35.7375 237.725 35.6 236.763 35.6ZM237.313 41.7875C237.313 42.2 237.038 44.4 235.388 44.4C234.563 44.4 234.288 43.7125 234.288 43.3C234.288 42.6125 234.7 41.65 236.763 41.65C237.175 41.7875 237.313 41.7875 237.313 41.7875ZM243.088 46.7375L243.159 46.7378C243.208 46.738 243.266 46.7384 243.331 46.738C244.209 46.7421 247.35 46.7113 247.35 43.1625C247.35 41.0568 246.112 40.4989 245.152 40.0667C244.545 39.7933 244.05 39.5702 244.05 39.0375C244.05 38.3696 244.569 38.091 245.481 38.0757C245.959 38.086 247.35 38.2125 247.35 38.2125L247.352 38.2004L247.488 38.2125L247.9 35.7375C247.9 35.7375 246.938 35.4625 245.288 35.4625L245.23 35.4627L245.15 35.4625C243.088 35.4625 241.025 36.2875 241.025 39.0375C241.025 40.983 242.326 41.6276 243.327 42.1237C243.953 42.434 244.463 42.6863 244.463 43.1625C244.463 43.9875 243.5 44.125 242.813 44.125C241.575 44.125 240.338 43.7125 240.338 43.7125L239.925 46.1875C239.96 46.2567 240.029 46.326 240.151 46.3908L240.063 46.4625C240.063 46.4625 240.409 46.5779 241.287 46.6591C241.737 46.7082 242.324 46.7375 243.088 46.7375ZM297.95 33.4L297.4 37.1125C297.4 37.1125 296.3 35.7375 294.788 35.7375L294.766 35.7376C292.3 35.7552 290.113 38.773 290.113 42.3375C290.113 44.536 291.211 46.8718 293.545 46.875L293.55 46.875C293.653 46.875 293.754 46.8707 293.851 46.8626C295.31 46.7423 296.155 45.783 296.162 45.7751L296.025 46.7375H298.775L300.838 33.5375L297.95 33.4ZM294.513 44.125H294.513C293.55 44.125 293 43.3 293 41.925C293 39.725 293.963 38.35 295.2 38.35C296.163 38.35 296.713 39.0375 296.713 40.6875C296.713 42.1999 296.025 44.1248 294.513 44.125ZM221.775 46.6L223.425 36.7L223.7 46.6H225.625L229.2 36.7L227.688 46.6H230.575L232.775 33.4H229.338H228.238L225.488 41.5125L225.35 33.4H223.838H221.363L219.163 46.6H221.775ZM264.798 44.2189C264.678 44.9706 264.551 45.7716 264.4 46.6V46.7375H261.375L263.163 36.0125H265.775L265.5 37.525C265.5 37.525 266.463 35.875 267.7 35.875H268.25L268.231 35.922C268.199 36.0003 268.165 36.0789 268.13 36.1595L268.088 36.2573C267.829 36.8494 267.512 37.5755 267.288 39.0375C265.714 38.4755 265.335 40.8535 264.798 44.2189ZM278.15 36.15C278.15 36.15 279.525 35.6 281.45 35.6C282.413 35.6 285.3 35.7375 285.163 39.0375L285.161 39.0479C285.162 39.0897 285.163 39.1321 285.163 39.175L284.063 46.7375H281.588L281.605 46.6H281.588L281.707 45.6423C281.674 45.6575 281.62 45.7075 281.542 45.7794L281.542 45.7794C281.191 46.1044 280.357 46.875 278.838 46.875C277.875 46.875 276.225 46.325 276.225 43.85C276.225 43.8268 276.225 43.8037 276.225 43.7807C276.225 43.7581 276.225 43.7354 276.225 43.7125C276.225 40.55 278.838 39.5875 281.175 39.5875H282.413C282.413 39.5875 282.536 39.4644 282.549 38.985C282.514 38.2066 281.704 38.075 280.763 38.075C278.975 38.075 277.738 38.625 277.738 38.625L278.084 38.3582C277.86 38.4329 277.738 38.4875 277.738 38.4875L278.15 36.15ZM281.032 44.1769C280.745 44.3052 280.447 44.387 280.148 44.3986C279.373 44.3638 279.113 43.7016 279.113 43.3C279.113 42.6274 279.507 41.6917 281.455 41.6513C281.538 41.6715 281.637 41.6887 281.748 41.7034C281.93 41.7632 281.991 41.7805 282.053 41.7855C282.078 41.7875 282.104 41.7875 282.138 41.7875C282.138 42.1192 281.96 43.607 281.032 44.1769ZM287.898 44.2189C287.778 44.9706 287.651 45.7716 287.5 46.6V46.7375H284.475L286.263 36.0125H288.875L288.6 37.525C288.6 37.525 289.563 35.875 290.8 35.875H291.35C291.3 36.0002 291.245 36.1254 291.188 36.2572C290.929 36.8494 290.612 37.5755 290.388 39.0375C288.814 38.4755 288.435 40.8535 287.898 44.2189Z" fill="#7F7F7F"/>
</svg>
