<svg width="16" height="16" viewBox="0 0 16 16" fill="none" xmlns="http://www.w3.org/2000/svg">
<g clip-path="url(#clip0_0_470)">
<path d="M7.99987 0.554688C5.38962 0.554688 3.24835 2.439 3.24835 4.73602V5.93069H1.89078C1.14411 5.93069 0.533203 6.46829 0.533203 7.12535V14.2934C0.533203 14.9504 1.14411 15.488 1.89078 15.488H14.109C14.8556 15.488 15.4665 14.9504 15.4665 14.2934V7.12535C15.4665 6.46829 14.8556 5.93069 14.109 5.93069H12.7514V4.73602C12.7514 4.261 12.6771 3.78631 12.5127 3.35235C12.5091 3.34254 12.5051 3.33282 12.5008 3.32319C11.7945 1.73472 10.0606 0.554688 7.99987 0.554688ZM7.99987 1.74935C9.46346 1.74935 10.7091 2.59626 11.2281 3.74902C11.3316 4.02947 11.3938 4.38146 11.3938 4.73602V5.93069H4.60593V4.73602C4.60593 3.09064 6.13012 1.74935 7.99987 1.74935Z" fill="white"/>
</g>
<defs>
<clipPath id="clip0_0_470">
<rect width="16" height="16" fill="white"/>
</clipPath>
</defs>
</svg>
