<svg width="20" height="20" viewBox="0 0 20 20" fill="none" xmlns="http://www.w3.org/2000/svg">
<path d="M15.9333 7.60001C15.6083 7.60001 15.3499 7.85834 15.3499 8.18334V9.50001C15.3499 12.45 12.9499 14.85 9.99994 14.85C7.04994 14.85 4.64994 12.45 4.64994 9.50001V8.17501C4.64994 7.85001 4.39161 7.59167 4.06661 7.59167C3.74161 7.59167 3.48328 7.85001 3.48328 8.17501V9.49168C3.48328 12.8833 6.09161 15.675 9.41661 15.975V17.75C9.41661 18.075 9.67494 18.3333 9.99994 18.3333C10.3249 18.3333 10.5833 18.075 10.5833 17.75V15.975C13.8999 15.6833 16.5166 12.8833 16.5166 9.49168V8.17501C16.5083 7.85834 16.2499 7.60001 15.9333 7.60001Z" fill="#FF69B4"/>
<path d="M9.99998 1.66666C7.96665 1.66666 6.31665 3.31666 6.31665 5.34999V9.61666C6.31665 11.65 7.96665 13.3 9.99998 13.3C12.0333 13.3 13.6833 11.65 13.6833 9.61666V5.34999C13.6833 3.31666 12.0333 1.66666 9.99998 1.66666ZM11.0917 7.45832C11.0333 7.67499 10.8417 7.81666 10.625 7.81666C10.5833 7.81666 10.5417 7.80832 10.5 7.79999C10.175 7.70832 9.83332 7.70832 9.50832 7.79999C9.24165 7.87499 8.98332 7.71666 8.91665 7.45832C8.84165 7.19999 8.99998 6.93332 9.25832 6.86666C9.74998 6.73332 10.2667 6.73332 10.7583 6.86666C11.0083 6.93332 11.1583 7.19999 11.0917 7.45832ZM11.5333 5.84166C11.4583 6.04166 11.275 6.15832 11.075 6.15832C11.0167 6.15832 10.9667 6.14999 10.9083 6.13332C10.325 5.91666 9.67498 5.91666 9.09165 6.13332C8.84165 6.22499 8.55832 6.09166 8.46665 5.84166C8.37498 5.59166 8.50832 5.30832 8.75832 5.22499C9.55832 4.93332 10.4417 4.93332 11.2417 5.22499C11.4917 5.31666 11.625 5.59166 11.5333 5.84166Z" fill="#FF69B4"/>
</svg>
