<svg width="33" height="34" viewBox="0 0 33 34" fill="none" xmlns="http://www.w3.org/2000/svg">
<g filter="url(#filter0_d_1_2189)">
<rect width="33" height="34" fill="#FF69B4"/>
<path fill-rule="evenodd" clip-rule="evenodd" d="M16.9928 3.48221C17.2486 3.23105 17.5883 3.09094 17.9416 3.09094C18.2949 3.09094 18.6346 3.23105 18.8903 3.48221L29.8904 14.2758L33.3279 17.6475C33.5922 17.9067 33.7458 18.2636 33.7549 18.6395C33.7639 19.0154 33.6276 19.3796 33.376 19.652C33.1244 19.9244 32.778 20.0827 32.4131 20.092C32.0483 20.1013 31.6947 19.9609 31.4303 19.7016L30.3166 18.6065V29.2995C30.3166 30.051 30.0269 30.7717 29.5111 31.303C28.9954 31.8344 28.2959 32.1329 27.5666 32.1329H8.3166C7.58725 32.1329 6.88778 31.8344 6.37205 31.303C5.85633 30.7717 5.5666 30.051 5.5666 29.2995V18.6065L4.45285 19.7002C4.18882 19.9595 3.83566 20.1 3.47104 20.091C3.10642 20.082 2.76022 19.9241 2.5086 19.652C2.25697 19.38 2.12054 19.0162 2.1293 18.6405C2.13807 18.2648 2.29132 17.9081 2.55535 17.6489L5.99285 14.2758L16.9928 3.4808V3.48221ZM8.3166 15.9092V29.2995H13.8166V22.2162C13.8166 21.089 14.2512 20.008 15.0248 19.211C15.7984 18.414 16.8476 17.9662 17.9416 17.9662C19.0356 17.9662 20.0848 18.414 20.8584 19.211C21.632 20.008 22.0666 21.089 22.0666 22.2162V29.2995H27.5666V15.9092L17.9416 6.46288L8.3166 15.9078V15.9092ZM19.3166 29.2995V22.2162C19.3166 21.8405 19.1717 21.4802 18.9139 21.2145C18.656 20.9488 18.3063 20.7995 17.9416 20.7995C17.5769 20.7995 17.2272 20.9488 16.9693 21.2145C16.7115 21.4802 16.5666 21.8405 16.5666 22.2162V29.2995H19.3166Z" fill="black"/>
</g>
<defs>
<filter id="filter0_d_1_2189" x="-6" y="-6" width="49.7554" height="50" filterUnits="userSpaceOnUse" color-interpolation-filters="sRGB">
<feFlood flood-opacity="0" result="BackgroundImageFix"/>
<feColorMatrix in="SourceAlpha" type="matrix" values="0 0 0 0 0 0 0 0 0 0 0 0 0 0 0 0 0 0 127 0" result="hardAlpha"/>
<feOffset dx="2" dy="2"/>
<feGaussianBlur stdDeviation="4"/>
<feColorMatrix type="matrix" values="0 0 0 0 0 0 0 0 0 0 0 0 0 0 0 0 0 0 0.1 0"/>
<feBlend mode="normal" in2="BackgroundImageFix" result="effect1_dropShadow_1_2189"/>
<feBlend mode="normal" in="SourceGraphic" in2="effect1_dropShadow_1_2189" result="shape"/>
</filter>
</defs>
</svg>
