<svg width="30" height="31" viewBox="0 0 30 31" fill="none" xmlns="http://www.w3.org/2000/svg">
<g clip-path="url(#clip0_1_2164)">
<path d="M30 15.5C30 6.93958 23.2843 0 15 0C6.71572 0 0 6.93958 0 15.5C0 23.2364 5.48525 29.6489 12.6562 30.8117V19.9805H8.84766V15.5H12.6562V12.0852C12.6562 8.20047 14.8957 6.05469 18.322 6.05469C19.9626 6.05469 21.6797 6.35742 21.6797 6.35742V10.1719H19.7883C17.925 10.1719 17.3438 11.3668 17.3438 12.5938V15.5H21.5039L20.8389 19.9805H17.3438V30.8117C24.5147 29.6489 30 23.2364 30 15.5Z" fill="black"/>
<path d="M20.8389 19.9805L21.5039 15.5H17.3438V12.5938C17.3438 11.368 17.925 10.1719 19.7883 10.1719H21.6797V6.35742C21.6797 6.35742 19.9632 6.05469 18.322 6.05469C14.8957 6.05469 12.6562 8.20047 12.6562 12.0852V15.5H8.84766V19.9805H12.6562V30.8117C14.2093 31.0628 15.7907 31.0628 17.3438 30.8117V19.9805H20.8389Z" fill="white"/>
</g>
<defs>
<clipPath id="clip0_1_2164">
<rect width="30" height="31" fill="white"/>
</clipPath>
</defs>
</svg>
