<svg width="18" height="18" viewBox="0 0 18 18" fill="none" xmlns="http://www.w3.org/2000/svg">
<path d="M9.0001 0.970337C8.8039 0.970337 8.60719 1.05541 8.49619 1.22581L6.02705 5.03088L1.64424 6.20393C1.44804 6.25613 1.2924 6.40388 1.2294 6.59768C1.167 6.79088 1.20589 7.00355 1.33369 7.16135L4.18955 10.6864L3.95166 15.2156C3.94086 15.4185 4.03336 15.613 4.19776 15.7324C4.24526 15.7671 4.29849 15.792 4.35244 15.811C4.36785 15.8164 4.38357 15.8186 4.39932 15.8227C4.43952 15.8333 4.47972 15.8405 4.52119 15.8426C4.53111 15.8431 4.54055 15.8473 4.55049 15.8473C4.55917 15.8473 4.56759 15.843 4.57627 15.8426C4.64053 15.8399 4.70442 15.8309 4.76612 15.8074L9.0001 14.1821L13.2353 15.8074C13.3049 15.8338 13.3771 15.8473 13.4497 15.8473C13.5745 15.8473 13.6986 15.808 13.8024 15.7324C13.9668 15.613 14.0593 15.4185 14.0485 15.2156L13.8118 10.6864L16.6665 7.16135C16.7937 7.00355 16.8338 6.79088 16.7708 6.59768C16.7078 6.40448 16.5522 6.25673 16.356 6.20393L11.9731 5.03088L9.50401 1.22581C9.39361 1.05541 9.1963 0.970337 9.0001 0.970337ZM9.0001 2.65432L10.9677 5.68362L11.2185 6.07034L11.6638 6.18987L15.1524 7.12385L12.879 9.93167L12.5896 10.2891L12.613 10.7496L12.8028 14.3567L9.43018 13.0617L9.0001 12.8965V2.65432Z" fill="#FF9C41"/>
</svg>
