<svg width="30" height="30" viewBox="0 0 30 30" fill="none" xmlns="http://www.w3.org/2000/svg">
<path d="M22.4 14.525C22.3405 14.3715 22.2513 14.2314 22.1375 14.1125L15.8875 7.86249C15.771 7.74594 15.6326 7.65349 15.4803 7.59041C15.328 7.52734 15.1648 7.49487 15 7.49487C14.6671 7.49487 14.3479 7.62711 14.1125 7.86249C13.996 7.97904 13.9035 8.1174 13.8404 8.26968C13.7773 8.42195 13.7449 8.58516 13.7449 8.74999C13.7449 9.08286 13.8771 9.40211 14.1125 9.63749L18.2375 13.75H8.75C8.41848 13.75 8.10054 13.8817 7.86612 14.1161C7.6317 14.3505 7.5 14.6685 7.5 15C7.5 15.3315 7.6317 15.6494 7.86612 15.8839C8.10054 16.1183 8.41848 16.25 8.75 16.25H18.2375L14.1125 20.3625C13.9953 20.4787 13.9023 20.6169 13.8389 20.7693C13.7754 20.9216 13.7428 21.085 13.7428 21.25C13.7428 21.415 13.7754 21.5784 13.8389 21.7307C13.9023 21.883 13.9953 22.0213 14.1125 22.1375C14.2287 22.2546 14.367 22.3476 14.5193 22.4111C14.6716 22.4746 14.835 22.5072 15 22.5072C15.165 22.5072 15.3284 22.4746 15.4807 22.4111C15.633 22.3476 15.7713 22.2546 15.8875 22.1375L22.1375 15.8875C22.2513 15.7686 22.3405 15.6284 22.4 15.475C22.525 15.1707 22.525 14.8293 22.4 14.525Z" fill="#FF69B4"/>
</svg>
