<svg width="22" height="22" viewBox="0 0 22 22" fill="none" xmlns="http://www.w3.org/2000/svg">
<g clip-path="url(#clip0_1_2217)">
<rect width="22" height="22" fill="#FF69B4"/>
<path d="M7.33325 21.0834H14.6666" stroke="white" stroke-width="2" stroke-linecap="round" stroke-linejoin="round"/>
<path d="M11 17.4166V21.0833" stroke="white" stroke-width="2" stroke-linecap="round" stroke-linejoin="round"/>
<path d="M11 0.916626C10.2707 0.916626 9.57118 1.20636 9.05546 1.72208C8.53973 2.23781 8.25 2.93728 8.25 3.66663V11C8.25 11.7293 8.53973 12.4288 9.05546 12.9445C9.57118 13.4602 10.2707 13.75 11 13.75C11.7293 13.75 12.4288 13.4602 12.9445 12.9445C13.4603 12.4288 13.75 11.7293 13.75 11V3.66663C13.75 2.93728 13.4603 2.23781 12.9445 1.72208C12.4288 1.20636 11.7293 0.916626 11 0.916626V0.916626Z" stroke="white" stroke-width="2" stroke-linecap="round" stroke-linejoin="round"/>
<path d="M17.4166 9.16663V11C17.4166 12.7018 16.7405 14.3339 15.5372 15.5372C14.3338 16.7406 12.7017 17.4166 10.9999 17.4166C9.29811 17.4166 7.66601 16.7406 6.46265 15.5372C5.25929 14.3339 4.58325 12.7018 4.58325 11V9.16663" stroke="white" stroke-width="2" stroke-linecap="round" stroke-linejoin="round"/>
</g>
<defs>
<clipPath id="clip0_1_2217">
<rect width="22" height="22" fill="white"/>
</clipPath>
</defs>
</svg>
