<svg width="227" height="169" viewBox="0 0 227 169" fill="none" xmlns="http://www.w3.org/2000/svg">
<g clip-path="url(#clip0_1_1938)">
<rect width="227" height="169" fill="#FF69B4"/>
<path opacity="0.1" d="M14.857 66.2391H34.5862V93.3322H16.2996C16.2529 93.6122 16.2062 93.8904 16.1537 94.1704H34.5862V116.016C34.5551 116.016 34.524 115.993 34.4948 115.981C33.9763 115.774 33.4579 115.554 32.9395 115.321C32.8287 115.27 32.7198 115.217 32.607 115.168C32.0886 114.922 31.5701 114.66 31.0517 114.385C30.8709 114.289 30.6901 114.189 30.5132 114.087C27.635 112.469 25.0191 110.418 22.7561 108.004C22.688 107.939 22.6258 107.869 22.5616 107.808C22.2467 107.463 21.9376 107.115 21.6382 106.758C21.5254 106.627 21.4165 106.494 21.3057 106.367C20.9519 105.932 20.6097 105.481 20.2792 105.029C20.2287 104.96 20.182 104.894 20.1334 104.833C18.7795 102.946 17.6567 100.9 16.7895 98.7418C16.7623 98.6771 16.737 98.6066 16.7117 98.5459C16.4434 97.8604 16.2004 97.1651 15.9904 96.4561C15.901 96.1604 15.8135 95.8685 15.7396 95.561C15.7124 95.4729 15.691 95.3828 15.6677 95.2947C14.5751 90.9564 14.4487 86.4478 14.4487 81.9607C14.4487 81.4384 14.4487 80.9161 14.4487 80.3938C14.4643 78.5619 14.4857 76.7319 14.5129 74.9039C14.5233 74.4338 14.533 73.9618 14.542 73.4878C14.5693 72.2879 14.6082 71.0853 14.6587 69.8801C14.6704 69.5472 14.6859 69.2123 14.7034 68.8813C14.7112 68.6893 14.7209 68.4974 14.7326 68.3054C14.7676 67.6121 14.809 66.9233 14.857 66.2391Z" fill="#FF69B4"/>
<path opacity="0.1" d="M34.5862 36.0732H23.7632C25.5233 33.3008 27.4456 30.6363 29.5198 28.0939C31.1295 26.104 32.8248 24.165 34.5862 22.2965V36.0732Z" fill="#FF69B4"/>
<path opacity="0.1" d="M34.5864 36.9075V65.4009H14.9194C14.9194 65.3186 14.9311 65.2344 14.9389 65.1522C14.9564 64.9269 14.9739 64.7036 14.9933 64.4784C15.0128 64.216 15.038 63.9535 15.0633 63.695C15.0886 63.4364 15.1138 63.1231 15.145 62.8391C15.1761 62.5551 15.2013 62.2672 15.2324 61.9832C15.2635 61.6992 15.2947 61.4152 15.3296 61.1331C15.3646 60.8511 15.3957 60.5652 15.4346 60.2831C15.4638 60.0501 15.493 59.815 15.526 59.58C15.5707 59.249 15.6174 58.918 15.666 58.589C15.666 58.538 15.6815 58.4891 15.6893 58.4401C16.0446 56.0316 16.5275 53.644 17.1358 51.2874C17.7745 48.8157 18.59 46.3938 19.5757 44.0406C20.623 41.575 21.8499 39.1908 23.2462 36.9075H34.5864Z" fill="#FF69B4"/>
<path opacity="0.1" d="M39.2988 66.2392V93.3322H81.4401V66.2392H39.2988ZM39.2988 94.1705V117.438C39.5399 117.487 39.7771 117.536 40.0162 117.577C40.337 117.64 40.6597 117.697 40.9883 117.746L41.1827 117.773C41.311 117.795 41.4413 117.813 41.5715 117.828C41.8962 117.875 42.2209 117.91 42.5436 117.942C42.6952 117.957 42.8527 117.969 43.0063 117.983L43.3815 118.01C43.5857 118.026 43.7879 118.038 43.99 118.046C44.1145 118.046 44.2389 118.055 44.3653 118.059C44.4916 118.063 44.5597 118.059 44.6608 118.059H45.0282C45.1954 118.059 45.3626 118.059 45.5279 118.059H45.7417C45.9089 118.059 46.0761 118.059 46.2414 118.044H46.2511C46.3677 118.044 46.4824 118.044 46.5991 118.03C46.6321 118.032 46.6652 118.032 46.6982 118.03C46.7954 118.03 46.8927 118.03 46.986 118.018C47.008 118.016 47.0301 118.016 47.0521 118.018C47.2679 118.004 47.4856 117.987 47.7053 117.967C47.925 117.948 48.133 117.924 48.3527 117.901L48.794 117.846C50.5974 117.591 52.3807 117.209 54.1307 116.702C58.0637 115.597 61.9073 114.052 65.8383 112.922C70.9164 111.463 76.5311 110.744 81.4381 112.52V94.1705H39.2988ZM81.4401 36.0731V0.00391186C76.8268 -0.0472211 72.226 0.495787 67.7494 1.61974C57.078 4.32062 47.4953 10.1787 39.2988 17.6605V36.0712H41.4199V36.9075H39.2988V65.4009H81.4401V36.9075H50.0966V36.0692L81.4401 36.0731ZM135.581 23.8888C132.94 23.7948 130.316 22.9546 127.94 21.6521C123.402 19.1667 119.775 15.3239 115.723 12.0844C107.305 5.33321 96.8649 1.2574 86.1546 0.246776V36.0731H146.308L146.458 35.9145L135.581 23.8888ZM141.061 22.9095L146.872 29.3356V21.2193C144.916 21.468 143.213 22.0458 141.061 22.9017V22.9095ZM146.872 123.216V94.1705H134.48C134.449 94.0471 134.414 93.9218 134.375 93.7964C134.412 93.9218 134.445 94.0471 134.478 94.1705H86.1546V115.174C86.6134 115.517 87.0664 115.879 87.5155 116.244C88.0003 116.643 88.4817 117.047 88.96 117.456L89.4422 117.858C89.6735 118.053 89.9087 118.249 90.142 118.435C90.6099 118.815 91.0811 119.191 91.5554 119.563C91.7926 119.752 92.0311 119.936 92.2709 120.118C96.0682 123.041 100.074 125.68 104.255 128.013C105.192 128.54 106.138 129.047 107.091 129.542C107.725 129.871 108.363 130.194 109.006 130.51C109.97 130.984 110.942 131.441 111.922 131.881C120.956 135.966 130.508 138.769 140.307 140.209C142.482 140.531 144.666 140.786 146.86 140.973V123.212H147.055L146.872 123.216ZM86.1546 36.9075V65.4009H146.872V36.9075H86.1546ZM86.1546 66.2353V93.3322H146.872V66.2392L86.1546 66.2353ZM151.585 21.1801V30.2483L159 22.0477C156.542 21.639 154.071 21.3498 151.585 21.1801ZM151.585 66.2392V93.3322H210.638V66.2392H151.585ZM210.43 125.365L210.638 94.1705H151.585V141.288C155.389 141.447 159.198 141.401 162.997 141.149H163.063C164.877 141.031 166.684 140.864 168.481 140.648H168.522C178.116 139.523 187.496 136.998 196.368 133.154L210.43 125.365ZM222.031 70.6891C221.807 70.1668 221.576 69.6445 221.341 69.1222C220.901 68.1429 220.438 67.1911 219.96 66.2411H215.353V93.3322H227C226.99 85.6585 225.062 77.8242 222.031 70.6891ZM215.353 94.1705V121.003C218.632 117.836 221.407 114.211 223.401 110.066C225.802 105.074 226.901 99.6721 226.992 94.1685L215.353 94.1705ZM215.353 58.3442V65.395H219.529C218.263 62.9712 216.869 60.6176 215.353 58.3442ZM175.303 26.4976C174.996 26.3782 174.687 26.2587 174.378 26.1451C171.119 24.9316 167.788 23.9229 164.404 23.125L153.054 35.6716L152.833 35.9125L152.979 36.0712H193.374C187.748 32.1709 181.682 28.9572 175.303 26.4976ZM194.56 36.9075H152.413L151.585 37.6694V65.4009H158.846H210.638V51.9651C205.955 46.2596 200.549 41.1973 194.56 36.9075Z" fill="#FF69B4"/>
<path opacity="0.1" d="M34.5864 51.2815V65.4009H14.9194C14.9194 65.3186 14.9311 65.2344 14.9389 65.1522C14.9564 64.9269 14.9739 64.7036 14.9933 64.4784C15.0128 64.216 15.038 63.9535 15.0633 63.695C15.0886 63.4364 15.1138 63.1231 15.145 62.8391C15.1761 62.5551 15.2013 62.2672 15.2324 61.9832C15.2635 61.6992 15.2947 61.4152 15.3296 61.1332C15.3646 60.8511 15.3957 60.5652 15.4346 60.2831C15.4638 60.0501 15.493 59.815 15.526 59.58C15.5707 59.249 15.6174 58.918 15.666 58.589C15.666 58.538 15.6815 58.4891 15.6893 58.4401C16.0446 56.0316 16.5275 53.644 17.1358 51.2874L34.5864 51.2815Z" fill="#FF69B4"/>
<path opacity="0.1" d="M14.857 66.2391H34.5862V93.3322H16.2996C16.2529 93.6122 16.2062 93.8904 16.1537 94.1704H34.5862V116.016C34.5551 116.016 34.524 115.993 34.4948 115.981C33.9763 115.774 33.4579 115.554 32.9395 115.321C32.8287 115.27 32.7198 115.217 32.607 115.168C32.0886 114.922 31.5701 114.66 31.0517 114.385C30.8709 114.289 30.6901 114.189 30.5132 114.087C27.635 112.469 25.0191 110.418 22.7561 108.004C22.688 107.939 22.6258 107.869 22.5616 107.808C22.2467 107.463 21.9376 107.115 21.6382 106.758C21.5254 106.627 21.4165 106.494 21.3057 106.367C20.9519 105.932 20.6097 105.481 20.2792 105.029C20.2287 104.96 20.182 104.894 20.1334 104.833C18.7795 102.946 17.6567 100.9 16.7895 98.7418C16.7623 98.6771 16.737 98.6066 16.7117 98.5459C16.4434 97.8604 16.2004 97.1651 15.9904 96.4561C15.901 96.1604 15.8135 95.8685 15.7396 95.561C15.7124 95.4729 15.691 95.3828 15.6677 95.2947C14.5751 90.9564 14.4487 86.4478 14.4487 81.9607C14.4487 81.4384 14.4487 80.9161 14.4487 80.3938C14.4643 78.5619 14.4857 76.7319 14.5129 74.9039C14.5233 74.4338 14.533 73.9618 14.542 73.4878C14.5693 72.2879 14.6082 71.0853 14.6587 69.8801C14.6704 69.5472 14.6859 69.2123 14.7034 68.8813C14.7112 68.6893 14.7209 68.4974 14.7326 68.3054C14.7676 67.6121 14.809 66.9233 14.857 66.2391Z" fill="#FF69B4"/>
<path opacity="0.1" d="M54.1326 40.9892V65.401H39.2969V40.9892H41.4121V32.724H50.0946V40.9892H54.1326Z" fill="#FF69B4"/>
<path opacity="0.1" d="M54.1307 66.2372H39.2969V93.3302H54.1307V66.2372Z" fill="#FF69B4"/>
<path opacity="0.1" d="M39.2988 94.1705H54.1326V116.694C52.3828 117.202 50.5995 117.583 48.796 117.836C48.6482 117.858 48.5024 117.875 48.3546 117.891C48.1369 117.916 47.9211 117.94 47.7053 117.959L47.054 118.012H46.9879L46.7002 118.028H46.601C46.4844 118.028 46.3697 118.042 46.253 118.044H46.2433C46.0761 118.044 45.9109 118.055 45.7437 118.059H45.5298C45.3645 118.059 45.1993 118.059 45.0302 118.059H44.6647H44.3672C44.2408 118.059 44.1164 118.059 43.99 118.044C43.7904 118.036 43.5883 118.024 43.3835 118.008L43.0082 117.981C42.8527 117.969 42.6972 117.954 42.5436 117.938C42.217 117.909 41.893 117.872 41.5715 117.826L41.1827 117.771L40.9883 117.744C40.6636 117.695 40.3409 117.64 40.0162 117.578C39.7751 117.534 39.538 117.485 39.2988 117.435V94.1705Z" fill="#FF69B4"/>
<path opacity="0.1" d="M146.87 38.1061H134.638V65.3989H146.87V38.1061Z" fill="#FF69B4"/>
<path opacity="0.1" d="M146.872 66.2372V93.3322H86.1548V81.6453H118.496V88.5395H134.638V66.2372H146.872Z" fill="#FF69B4"/>
<path opacity="0.1" d="M147.065 123.222C147.001 123.222 146.936 123.222 146.87 123.21V140.984C144.679 140.803 142.495 140.549 140.319 140.223C130.517 138.783 120.961 135.982 111.922 131.899C109.313 130.713 106.758 129.421 104.255 128.023C100.075 125.689 96.0704 123.05 92.273 120.128C91.3165 119.391 90.3742 118.638 89.4462 117.869C88.8027 117.333 88.165 116.784 87.5157 116.253C87.0685 115.887 86.6155 115.525 86.1548 115.18V94.1705H134.478C134.443 94.0451 134.412 93.9217 134.377 93.7964C134.414 93.9217 134.449 94.0451 134.48 94.1705H146.872V123.208C146.936 123.21 147.001 123.216 147.065 123.222Z" fill="#FF69B4"/>
<path opacity="0.1" d="M178.776 36.0732H170.805V33.5779H174.376V26.1451C174.686 26.26 174.994 26.3776 175.301 26.4977V33.5779H178.774L178.776 36.0732Z" fill="#FF69B4"/>
<path opacity="0.1" d="M197.982 65.4009H158.846C158.85 65.4018 158.854 65.4018 158.858 65.4009H158.84H151.585V38.1081H153.642V58.2815H163.04V46.3341H170.807V36.9075H178.778V46.34H186.541V58.2873H197.984L197.982 65.4009Z" fill="#FF69B4"/>
<path opacity="0.1" d="M151.585 66.2391V93.3322H197.984V66.2391H151.585ZM210.572 125.222L210.638 103.775H197.984V94.1783H151.585V141.288C155.389 141.447 159.198 141.401 162.997 141.149H163.063C164.878 141.031 166.684 140.864 168.481 140.648H168.522C178.116 139.523 187.496 136.998 196.368 133.154" fill="#FF69B4"/>
<path opacity="0.1" d="M216.169 94.1705H226.992C226.899 99.6722 225.802 105.076 223.401 110.066C221.407 114.213 218.632 117.838 215.353 121.005V103.77H216.169V94.1705Z" fill="#FF69B4"/>
<path opacity="0.1" d="M227 93.3322H216.169V70.6891H222.031C225.062 77.8242 226.991 85.6585 227 93.3322Z" fill="#FF69B4"/>
<path opacity="0.1" d="M146.872 45.6937H140.318V54.2508H146.872V45.6937Z" fill="#FF69B4"/>
<path opacity="0.1" d="M146.872 63.4305H140.318V65.4009H146.872V63.4305Z" fill="#FF69B4"/>
<path opacity="0.1" d="M146.872 66.2372H140.318V71.9856H146.872V66.2372Z" fill="#FF69B4"/>
<path opacity="0.1" d="M146.872 81.1675H140.318V89.7245H146.872V81.1675Z" fill="#FF69B4"/>
<path opacity="0.1" d="M146.872 98.9044H140.318V107.461H146.872V98.9044Z" fill="#FF69B4"/>
<path opacity="0.1" d="M146.872 123.208C146.936 123.208 147 123.208 147.066 123.222C147.002 123.222 146.938 123.222 146.872 123.21V125.198H140.318V116.641H146.872V123.208Z" fill="#FF69B4"/>
<path opacity="0.1" d="M146.872 134.376V140.984C144.679 140.803 142.495 140.549 140.318 140.223V134.376H146.872Z" fill="#FF69B4"/>
<path opacity="0.1" d="M114.242 92.7035H86.1548V93.3322H114.242V92.7035Z" fill="#FF69B4"/>
<path opacity="0.1" d="M114.242 94.1686H86.1548V96.5776H114.242V94.1686Z" fill="#FF69B4"/>
<path opacity="0.1" d="M114.242 104.475H86.1548V108.349H114.242V104.475Z" fill="#FF69B4"/>
<path opacity="0.1" d="M114.242 116.246V120.12H92.2729C91.3164 119.386 90.3742 118.632 89.4462 117.859C88.8007 117.325 88.163 116.776 87.5156 116.246H114.242Z" fill="#FF69B4"/>
<path opacity="0.1" d="M114.242 128.015V131.899H111.923C109.314 130.713 106.758 129.421 104.255 128.023L114.242 128.015Z" fill="#FF69B4"/>
<path opacity="0.1" d="M168.526 68.8636H162.997V74.4338H168.526V68.8636Z" fill="#FF69B4"/>
<path opacity="0.1" d="M48.8094 42.9105H43.2803V48.4807H48.8094V42.9105Z" fill="#FF69B4"/>
<path opacity="0.1" d="M48.8094 55.8489H43.2803V61.4191H48.8094V55.8489Z" fill="#FF69B4"/>
<path opacity="0.1" d="M48.8094 68.7872H43.2803V74.3574H48.8094V68.7872Z" fill="#FF69B4"/>
<path opacity="0.1" d="M48.8094 81.7238H43.2803V87.294H48.8094V81.7238Z" fill="#FF69B4"/>
<path opacity="0.1" d="M48.8094 94.6621H43.2803V100.232H48.8094V94.6621Z" fill="#FF69B4"/>
<path opacity="0.1" d="M48.8094 107.6H43.2803V113.171H48.8094V107.6Z" fill="#FF69B4"/>
<path opacity="0.1" d="M189.634 68.8636H184.104V74.4338H189.634V68.8636Z" fill="#FF69B4"/>
<path opacity="0.1" d="M168.526 82.6031H162.997V88.1734H168.526V82.6031Z" fill="#FF69B4"/>
<path opacity="0.1" d="M189.634 82.6031H184.104V88.1734H189.634V82.6031Z" fill="#FF69B4"/>
<path opacity="0.1" d="M168.526 96.3406H162.997V101.911H168.526V96.3406Z" fill="#FF69B4"/>
<path opacity="0.1" d="M189.634 96.3406H184.104V101.911H189.634V96.3406Z" fill="#FF69B4"/>
<path opacity="0.1" d="M168.526 110.08H162.997V115.65H168.526V110.08Z" fill="#FF69B4"/>
<path opacity="0.1" d="M189.634 110.08H184.104V115.65H189.634V110.08Z" fill="#FF69B4"/>
<path opacity="0.1" d="M168.526 123.819H162.997V129.39H168.526V123.819Z" fill="#FF69B4"/>
<path opacity="0.1" d="M189.634 123.819H184.104V129.39H189.634V123.819Z" fill="#FF69B4"/>
<path opacity="0.1" d="M162.997 141.149V137.557H168.524V140.638L162.997 141.149Z" fill="#FF69B4"/>
<path opacity="0.1" d="M15.666 58.4342V61.6208H34.5864V58.4342H15.666ZM17.5499 61.421H15.9946V58.6359H17.5499V61.421ZM19.4338 61.421H17.8785V58.6359H19.4338V61.421ZM21.3137 61.421H19.7584V58.6359H21.3137V61.421ZM23.1976 61.421H21.6423V58.6359H23.1976V61.421ZM25.0796 61.421H23.5242V58.6359H25.0796V61.421ZM26.9634 61.421H25.4081V58.6359H26.9634V61.421ZM28.8473 61.421H27.292V58.6359H28.8473V61.421ZM30.7292 61.421H29.1739V58.6359H30.7292V61.421ZM32.6112 61.421H31.0558V58.6359H32.6112V61.421ZM34.495 61.421H32.9397V58.6359H34.495V61.421Z" fill="#FF69B4"/>
<path opacity="0.1" d="M15.666 67.7101V70.8967H34.5864V67.7101H15.666ZM17.5499 70.6969H15.9946V67.9118H17.5499V70.6969ZM19.4338 70.6969H17.8785V67.9118H19.4338V70.6969ZM21.3137 70.6969H19.7584V67.9118H21.3137V70.6969ZM23.1976 70.6969H21.6423V67.9118H23.1976V70.6969ZM25.0796 70.6969H23.5242V67.9118H25.0796V70.6969ZM26.9634 70.6969H25.4081V67.9118H26.9634V70.6969ZM28.8473 70.6969H27.292V67.9118H28.8473V70.6969ZM30.7292 70.6969H29.1739V67.9118H30.7292V70.6969ZM32.6112 70.6969H31.0558V67.9118H32.6112V70.6969ZM34.495 70.6969H32.9397V67.9118H34.495V70.6969Z" fill="#FF69B4"/>
<path opacity="0.1" d="M15.666 76.9879V80.1726H34.5864V76.9879H15.666ZM17.5499 79.9708H15.9946V77.1857H17.5499V79.9708ZM19.4338 79.9708H17.8785V77.1857H19.4338V79.9708ZM21.3137 79.9708H19.7584V77.1857H21.3137V79.9708ZM23.1976 79.9708H21.6423V77.1857H23.1976V79.9708ZM25.0796 79.9708H23.5242V77.1857H25.0796V79.9708ZM26.9634 79.9708H25.4081V77.1857H26.9634V79.9708ZM28.8473 79.9708H27.292V77.1857H28.8473V79.9708ZM30.7292 79.9708H29.1739V77.1857H30.7292V79.9708ZM32.6112 79.9708H31.0558V77.1857H32.6112V79.9708ZM34.495 79.9708H32.9397V77.1857H34.495V79.9708Z" fill="#FF69B4"/>
<path opacity="0.1" d="M15.666 86.2637V89.4483H34.5864V86.2637H15.666ZM17.5499 89.2486H15.9946V86.4595H17.5499V89.2486ZM19.4338 89.2486H17.8785V86.4595H19.4338V89.2486ZM21.3137 89.2486H19.7584V86.4595H21.3137V89.2486ZM23.1976 89.2486H21.6423V86.4595H23.1976V89.2486ZM25.0796 89.2486H23.5242V86.4595H25.0796V89.2486ZM26.9634 89.2486H25.4081V86.4595H26.9634V89.2486ZM28.8473 89.2486H27.292V86.4595H28.8473V89.2486ZM30.7292 89.2486H29.1739V86.4595H30.7292V89.2486ZM32.6112 89.2486H31.0558V86.4595H32.6112V89.2486ZM34.495 89.2486H32.9397V86.4595H34.495V89.2486Z" fill="#FF69B4"/>
<path opacity="0.1" d="M15.7573 95.5356C15.8312 95.8373 15.9187 96.135 16.0081 96.4307V95.7374H17.5634V98.5205H16.7294C16.7527 98.5871 16.778 98.6557 16.8052 98.7164H34.5941V95.5356H15.7573ZM19.4512 98.5205H17.8959V95.7374H19.4512V98.5205ZM21.3312 98.5205H19.7759V95.7374H21.3312V98.5205ZM23.2151 98.5205H21.6597V95.7374H23.2151V98.5205ZM25.097 98.5205H23.5417V95.7374H25.097V98.5205ZM26.9809 98.5205H25.4255V95.7374H26.9809V98.5205ZM28.8647 98.5205H27.3094V95.7374H28.8647V98.5205ZM30.7467 98.5205H29.1913V95.7374H30.7467V98.5205ZM32.6286 98.5205H31.0733V95.7374H32.6286V98.5205ZM34.5125 98.5205H32.9571V95.7374H34.5125V98.5205Z" fill="#FF69B4"/>
<path opacity="0.1" d="M20.1392 104.812C20.1897 104.874 20.2364 104.945 20.285 105.007H21.3134V106.345L21.6459 106.737V105H23.2012V107.808H22.5616C22.6238 107.873 22.684 107.941 22.756 108.004H34.5822V104.812H20.1392ZM25.0889 107.808H23.5336V105.011H25.0889V107.808ZM26.9728 107.808H25.4175V105.011H26.9728V107.808ZM28.8567 107.808H27.3014V105.011H28.8567V107.808ZM30.7386 107.808H29.1833V105.011H30.7386V107.808ZM32.6206 107.808H31.0652V105.011H32.6206V107.808ZM34.5044 107.808H32.9491V105.011H34.5044V107.808Z" fill="#FF69B4"/>
<path opacity="0.1" d="M30.519 114.087C30.6979 114.189 30.8787 114.283 31.0595 114.383V114.285H32.6148V115.168C32.7276 115.217 32.8345 115.27 32.9453 115.321V114.285H34.5007V115.981C34.5302 115.995 34.5608 116.006 34.592 116.015V114.087H30.519Z" fill="#FF69B4"/>
<path opacity="0.1" d="M146.87 123.208H147.065H146.87ZM134.375 93.7964C134.412 93.9217 134.445 94.0471 134.478 94.1705C134.449 94.0471 134.414 93.9217 134.375 93.7964ZM41.4199 36.0731V36.9075H50.1044V36.0692L41.4199 36.0731ZM146.872 123.208H147.067H146.872ZM134.375 93.7964C134.412 93.9217 134.445 94.0471 134.478 94.1705C134.449 94.0471 134.414 93.9217 134.375 93.7964ZM146.87 123.208H147.065H146.87ZM134.375 93.7964C134.412 93.9217 134.445 94.0471 134.478 94.1705C134.449 94.0471 134.414 93.9217 134.375 93.7964Z" fill="#FF69B4"/>
<path opacity="0.1" d="M170.974 169C181.436 169 189.917 167.628 189.917 165.935C189.917 164.242 181.436 162.87 170.974 162.87C160.511 162.87 152.03 164.242 152.03 165.935C152.03 167.628 160.511 169 170.974 169Z" fill="#FF69B4"/>
<path opacity="0.1" d="M85.5365 165.935C95.9988 165.935 104.48 164.562 104.48 162.87C104.48 161.177 95.9988 159.804 85.5365 159.804C75.0742 159.804 66.5928 161.177 66.5928 162.87C66.5928 164.562 75.0742 165.935 85.5365 165.935Z" fill="#FF69B4"/>
<path d="M107.346 81.8197C107.341 81.8002 107.331 81.7826 107.317 81.7688C107.027 81.4809 103.333 76.2182 103.333 76.2182C103.333 76.2182 103.139 75.6306 102.824 74.8667C102.925 74.7351 103.001 74.5856 103.047 74.4261C103.064 74.3584 103.077 74.2897 103.084 74.2204C103.084 74.1989 103.1 74.1812 103.106 74.1597C103.173 73.8941 103.166 73.6148 103.086 73.3528C103.065 73.42 103.038 73.4855 103.007 73.5486C102.933 73.3205 102.836 73.1011 102.715 72.8944C102.225 72.0444 101.525 71.3276 101.01 70.4991C100.23 69.2119 99.9197 67.6909 100.133 66.1981C100.133 66.2744 100.133 66.3528 100.133 66.4292C100.153 66.1331 100.192 65.8387 100.25 65.5478C100.331 65.2168 100.44 64.8931 100.574 64.5803C101.037 63.5129 101.786 62.5825 102.241 61.5112C102.393 61.1498 102.509 60.7738 102.587 60.3889C102.747 59.7461 102.805 59.0818 102.76 58.4205C102.76 58.5772 102.734 58.7339 102.711 58.8886C102.662 57.2989 102.025 55.7851 100.924 54.6444C99.336 53.0364 97.0555 52.4116 94.8742 52.0826C93.9576 51.9748 93.0821 51.6382 92.3274 51.1033C91.4894 50.5569 90.4066 50.4256 89.4267 50.5451C88.3005 50.6678 87.2541 51.189 86.4736 52.016C85.4373 53.1637 84.9882 54.7893 83.779 55.7569C83.046 56.3444 82.1167 56.6187 81.2633 57.0182C80.4098 57.4178 79.603 57.9975 79.3288 58.8554C79.3288 58.8554 79.3288 58.8436 79.3288 58.8377V58.8867L79.3172 58.918C79.0333 59.9326 79.5816 60.9647 79.8674 61.9773C80.1648 63.0252 80.1843 64.1318 80.1998 65.2149C80.2212 66.5389 80.2406 67.8648 80.2193 69.1908C80.2095 69.7118 80.192 70.2386 80.1532 70.7576C79.693 70.8978 79.246 71.0787 78.8175 71.2982C78.382 71.5842 76.7529 73.3567 76.7529 73.3567L73.5664 85.6213L73.6092 85.6703L73.5664 85.8368L73.7278 85.7995C74.1788 86.2892 75.5261 87.6837 76.9803 88.5533L77.1164 90.9584C77.1164 90.9584 77.2797 93.3714 79.4824 94.3683C79.533 95.2046 79.6905 98.6008 78.9614 99.9464C78.4566 100.929 78.2191 102.029 78.2732 103.135C78.2732 103.135 78.5279 105.176 78.2382 106.249C78.0689 106.966 78.0563 107.712 78.2012 108.435C78.2012 108.435 78.2012 108.672 78.2012 109.079C78.2012 111.251 78.2265 118.212 78.2012 118.999C78.1643 119.93 78.2012 133.689 78.2012 133.689C78.2012 133.689 78.0204 140.565 77.4411 142.428C76.8617 144.291 77.0075 150.458 77.0075 150.458C77.0075 150.458 76.644 157.805 77.9291 159.254C77.9291 159.319 77.9174 159.385 77.9154 159.45C77.9154 159.479 77.9154 159.513 77.9154 159.542C77.8999 160.1 78.0068 160.694 78.4831 160.876C79.4552 161.252 80.7403 162.38 80.9833 162.703C81.2263 163.026 82.6397 163.831 84.4828 163.616C85.6373 163.485 86.7992 163.431 87.9608 163.455C87.9608 163.455 88.6879 163.322 88.4527 162.411C88.3011 161.843 87.7334 160.97 87.329 160.396C87.4029 160.416 87.4748 160.431 87.5428 160.445L87.6128 160.459H87.6673C87.697 160.46 87.7269 160.46 87.7567 160.459H87.7956C87.8318 160.462 87.8682 160.462 87.9044 160.459C88.3924 160.412 90.2121 161.266 90.5368 161.83C90.8615 162.394 92.0066 162.823 92.8698 162.93C93.383 162.993 94.6778 162.887 95.7646 162.746C96.3119 162.689 96.854 162.59 97.386 162.449C97.6426 162.351 97.6971 162.037 97.6232 161.685C97.5359 161.237 97.2984 160.833 96.9505 160.541C96.6356 160.316 96.2195 159.722 95.9124 159.236L95.8307 159.105C96.3731 158.584 97.353 156.88 97.6504 156.528C98.012 156.099 97.0672 140.413 97.0672 140.413V132.549L98.5156 125.106L99.5285 121.168L100.397 115.221C100.397 115.221 101.918 108.276 101.449 107.595C101.449 107.581 101.06 100.43 100.652 98.7125C100.475 97.9466 100.52 96.2231 100.625 94.5466C100.735 94.4368 100.811 94.2979 100.846 94.146C100.88 93.9941 100.871 93.8356 100.819 93.6887C100.79 93.5883 100.753 93.4906 100.707 93.3969C100.707 93.3675 100.707 93.3361 100.707 93.3068C101.546 92.9175 102.424 92.6169 103.325 92.4097C104.774 92.1238 104.412 91.3717 104.412 91.3717C104.412 91.3717 104.739 90.7273 104.955 90.3336C105.17 89.94 104.992 86.4655 104.955 86.1795C104.941 86.0639 104.852 85.4254 104.748 84.7008C105.213 84.3678 105.818 83.9546 106.477 83.5628C107.731 82.8147 107.449 82.0254 107.346 81.8197ZM88.4488 131.476C88.4488 131.476 87.362 134.269 87.7975 134.983C88.233 135.698 87.7256 138.352 87.7256 138.352L87.362 142.291C87.362 142.291 86.3491 149.596 86.7107 151.314C86.9946 152.662 87.0996 156.686 87.1326 158.365C87.1077 158.375 87.0837 158.386 87.0607 158.4L87.0121 158.426C87.1793 157.766 87.1093 156.43 86.2791 153.743L86.2092 142.643C86.2092 142.643 86.0808 129.823 87.086 128.389C88.0911 126.955 88.4469 124.521 88.4469 124.521C88.4469 124.521 88.2291 128.032 88.0872 128.963C87.9453 129.893 88.4488 131.476 88.4488 131.476ZM86.425 159.064C86.4152 159.088 86.4036 159.111 86.3958 159.133L86.3414 159.062C86.3691 159.065 86.3971 159.066 86.425 159.064Z" fill="url(#paint0_linear_1_1938)"/>
<path d="M97.5086 163.463C96.9468 163.68 93.9003 164.051 93.0488 163.947C92.1972 163.843 91.0696 163.408 90.7488 162.84C90.4281 162.272 88.6297 161.414 88.1476 161.469C87.9499 161.475 87.7527 161.447 87.5643 161.387C87.2317 161.285 86.9068 161.16 86.5923 161.011C86.5483 160.764 86.5556 160.511 86.6136 160.267C86.6248 160.217 86.6391 160.169 86.6564 160.122C86.7699 159.8 87.0046 159.537 87.3097 159.389L87.3796 159.356C87.5144 159.297 87.6553 159.254 87.7996 159.227C89.3277 158.931 95.6325 159.524 95.6325 159.524C95.6325 159.524 95.8095 159.844 96.0525 160.239C96.3558 160.729 96.7679 161.326 97.079 161.551C97.4235 161.848 97.6574 162.254 97.7419 162.703C97.8158 163.05 97.7614 163.367 97.5086 163.463Z" fill="white"/>
<path opacity="0.1" d="M97.5086 163.463C96.9467 163.681 93.9022 164.051 93.0507 163.947C92.1991 163.843 91.0715 163.406 90.7488 162.84C90.4261 162.274 88.6316 161.414 88.1495 161.469C87.6673 161.524 86.5942 161.011 86.5942 161.011C86.5942 161.011 86.427 160.228 86.913 159.693L87.8851 160.388C87.8851 160.388 90.4864 161.201 90.9685 161.955C91.4506 162.709 92.3294 163.13 93.5989 163.207C94.5477 163.269 96.727 162.897 97.7477 162.711C97.8158 163.05 97.7633 163.367 97.5086 163.463Z" fill="black"/>
<path d="M88.2017 164.462C87.055 164.44 85.908 164.494 84.7684 164.625C82.9428 164.84 81.5489 164.037 81.3059 163.706C81.0629 163.375 79.805 162.257 78.8388 161.865C78.3663 161.681 78.2555 161.082 78.2769 160.521C78.2769 160.492 78.2769 160.459 78.2769 160.429C78.2948 160.074 78.3469 159.722 78.4324 159.378L85.9971 159.215L86.6523 160.11L86.7533 160.247L87.1519 160.794C87.1519 160.794 87.3327 161.033 87.5699 161.381C87.9704 161.969 88.5303 162.836 88.68 163.41C88.9191 164.329 88.2017 164.462 88.2017 164.462Z" fill="white"/>
<path opacity="0.1" d="M88.2018 164.462C87.055 164.44 85.908 164.494 84.7684 164.625C82.9448 164.84 81.5489 164.037 81.3078 163.706C81.0668 163.375 79.805 162.247 78.8388 161.869C78.3663 161.685 78.2555 161.085 78.2769 160.525C78.8174 160.653 79.9528 160.978 80.398 161.544C80.9812 162.3 82.0252 163.571 83.5086 163.651C84.7062 163.716 87.6224 163.5 88.6917 163.414C88.9211 164.329 88.2018 164.462 88.2018 164.462Z" fill="black"/>
<path opacity="0.1" d="M87.3015 159.381C87.214 160.036 86.9438 160.212 86.7494 160.251C86.7019 160.26 86.653 160.26 86.6055 160.251C86.58 160.249 86.5546 160.245 86.5297 160.239C86.5297 160.239 79.7369 161.751 78.3643 160.527C78.3294 160.496 78.297 160.462 78.2671 160.425C78.285 160.071 78.3371 159.718 78.4226 159.374L85.9873 159.211L86.6425 160.106C86.7559 159.785 86.9907 159.522 87.2957 159.374L87.3015 159.381Z" fill="black"/>
<path opacity="0.1" d="M96.0502 160.231C95.8986 160.4 95.7722 160.496 95.6925 160.463C95.3348 160.318 92.403 159.814 91.4718 160.247C90.5405 160.68 87.3891 160.318 87.3891 160.318C87.3891 160.318 87.3891 159.942 87.3716 159.338C87.5064 159.28 87.6472 159.236 87.7915 159.209C89.3196 158.913 95.6245 159.507 95.6245 159.507C95.6245 159.507 95.8092 159.836 96.0502 160.231Z" fill="black"/>
<path d="M100.487 115.928L99.6275 121.91L98.6282 125.874L97.1973 133.368V141.3C97.1973 141.3 98.1266 157.082 97.7689 157.513C97.4112 157.944 96.0522 160.398 95.6945 160.255C95.3368 160.112 92.405 159.607 91.4738 160.038C90.5425 160.468 87.3911 160.11 87.3911 160.11C87.3911 160.11 87.3191 153.986 86.9614 152.256C86.6037 150.527 87.6049 143.176 87.6049 143.176L87.9626 139.214C87.9626 139.214 88.4642 136.546 88.0346 135.826C87.6049 135.105 88.6781 132.3 88.6781 132.3C88.6781 132.3 88.1784 130.712 88.3223 129.776C88.4662 128.839 88.6781 125.308 88.6781 125.308C88.6781 125.308 88.3223 127.76 87.3288 129.2C86.3354 130.639 86.4618 143.54 86.4618 143.54L86.5317 154.704C88.3223 160.615 86.5317 160.038 86.5317 160.038C86.5317 160.038 79.7389 161.552 78.3663 160.325C76.9938 159.099 77.3865 151.383 77.3865 151.383C77.3865 151.383 77.2446 145.186 77.8161 143.313C78.3877 141.441 78.5685 134.521 78.5685 134.521C78.5685 134.521 78.5316 120.684 78.5685 119.75C78.5957 118.966 78.5685 111.952 78.5685 109.761C78.5685 109.353 78.5685 109.113 78.5685 109.113L79.389 107.06L89.1097 105.834H93.7601C93.7601 105.834 100.759 107.491 101.482 108.206C101.498 108.218 101.511 108.232 101.521 108.249C101.99 108.94 100.487 115.928 100.487 115.928Z" fill="#FF69B4"/>
<path opacity="0.1" d="M88.6841 147.348C88.6841 147.348 90.8226 152.536 91.8317 152.897C92.8407 153.257 88.6841 147.348 88.6841 147.348Z" fill="black"/>
<path opacity="0.1" d="M89.4751 154.986C89.4751 154.986 96.6957 155.347 96.6237 156.14C96.5518 156.933 89.4751 154.986 89.4751 154.986Z" fill="black"/>
<path opacity="0.1" d="M79.8149 152.912C80.1007 153.184 85.3227 153.696 84.893 154.193C84.4634 154.691 80.2446 155.658 80.2446 155.658L79.8149 152.912Z" fill="black"/>
<path opacity="0.1" d="M78.9575 143.962C78.9575 144.177 80.0307 150.879 80.3184 151.167C80.6062 151.455 82.9644 151.743 82.9644 151.743L78.9575 143.962Z" fill="black"/>
<path d="M86.7437 52.3509C85.7192 53.5045 85.2759 55.1399 84.0822 56.1153C83.357 56.7029 82.4394 56.983 81.5956 57.3825C80.7519 57.7821 79.9159 58.3912 79.6651 59.296C79.3851 60.3145 79.9256 61.3545 80.2095 62.373C80.503 63.4267 80.5205 64.5274 80.538 65.6301C80.5575 66.9639 80.5788 68.2977 80.5555 69.6315C80.5205 71.7095 80.3494 73.8835 79.2549 75.6443C83.2073 76.9115 87.4106 77.0839 91.5555 77.2464C92.352 77.3037 93.1522 77.2833 93.9448 77.1857C94.6317 77.0478 95.3111 76.8746 95.9803 76.6667C97.3036 76.314 98.6671 76.1381 100.036 76.1437C100.633 76.1437 101.241 76.181 101.817 76.0243C102.392 75.8676 102.946 75.4661 103.102 74.8863C103.24 74.3653 103.038 73.8111 102.773 73.343C102.291 72.489 101.607 71.7761 101.09 70.9339C100.562 70.0443 100.248 69.0423 100.175 68.0085C100.102 66.9746 100.271 65.9379 100.668 64.9818C101.126 63.9065 101.865 62.9703 102.316 61.8931C102.778 60.7365 102.901 59.4707 102.67 58.2459C102.439 57.021 101.864 55.8887 101.014 54.9832C99.4448 53.3655 97.1935 52.7387 95.0394 52.4057C94.1324 52.2978 93.2671 51.961 92.5237 51.4265C91.6974 50.8781 90.6262 50.7449 89.658 50.8663C88.5411 50.9924 87.5066 51.5194 86.7437 52.3509Z" fill="#3F3D56"/>
<g opacity="0.1">
<path opacity="0.1" d="M100.728 63.8516C100.331 64.7954 100.161 65.8201 100.232 66.8424C100.275 66.1113 100.443 65.3932 100.728 64.7193C101.184 63.644 101.923 62.7078 102.374 61.6306C102.743 60.7311 102.898 59.7573 102.827 58.7867C102.787 59.467 102.634 60.1357 102.374 60.7649C101.923 61.8421 101.184 62.7764 100.728 63.8516Z" fill="black"/>
<path opacity="0.1" d="M80.5963 65.3637C80.6079 66.1314 80.6196 66.9012 80.6216 67.6689C80.6216 66.6113 80.6118 65.5556 80.5963 64.4999C80.5807 63.4051 80.5613 62.2965 80.2677 61.2409C80.0733 60.571 79.7856 59.8914 79.6845 59.2157C79.5115 60.1754 80.0033 61.1488 80.2677 62.1066C80.5613 63.1524 80.5807 64.2688 80.5963 65.3637Z" fill="black"/>
<path opacity="0.1" d="M101.883 74.9039C101.299 75.0626 100.701 75.0273 100.104 75.0234C98.7361 75.0146 97.3732 75.1872 96.0502 75.5365C95.3808 75.7436 94.7015 75.9161 94.0147 76.0536C93.2215 76.1528 92.4206 76.1738 91.6234 76.1163C87.6185 75.9576 83.5571 75.7872 79.7213 74.6336C79.6075 74.8897 79.4776 75.1383 79.3325 75.3779C83.285 76.6431 87.4882 76.8174 91.6312 76.98C92.4284 77.0376 93.2293 77.0166 94.0225 76.9173C94.7068 76.7812 95.3836 76.6092 96.0502 76.4022C97.3704 76.0516 98.7306 75.8771 100.096 75.8832C100.693 75.8832 101.299 75.9204 101.875 75.7618C102.45 75.6031 103.004 75.2055 103.16 74.6258C103.225 74.3573 103.219 74.0761 103.141 73.811C102.967 74.3594 102.433 74.7414 101.883 74.9039Z" fill="black"/>
</g>
<path d="M96.1241 72.583C95.9802 72.9081 95.3736 75.7167 95.2298 76.0046C95.0859 76.2925 94.3005 80.9011 94.2285 81.1596C94.1566 81.4182 89.0513 80.0785 89.0513 80.0785L85.9776 77.4834L82.8184 74.3163C82.8184 74.3163 82.7251 71.4588 85.0522 70.5422C85.2104 70.4796 85.3728 70.4285 85.5382 70.3894C88.3611 69.7058 88.0773 61.0587 88.0773 61.0587L93.8708 63.5794C93.8708 63.5794 92.7977 68.6247 92.8346 69.5981C92.8443 69.9252 93.099 70.1289 93.4314 70.2523C93.9455 70.3996 94.4806 70.4579 95.014 70.4246C95.014 70.4246 96.2679 72.2598 96.1241 72.583Z" fill="#FBBEBE"/>
<path d="M106.496 82.0586L107.319 82.276C107.319 82.276 107.927 83.2083 106.496 84.0759C105.588 84.6319 104.716 85.2462 103.885 85.915L99.6569 87.2116L98.8423 84.6361L102.777 81.6277L106.496 82.0586Z" fill="#FF69B4"/>
<path opacity="0.1" d="M106.496 82.0586L107.319 82.276C107.319 82.276 107.927 83.2083 106.496 84.0759C105.588 84.6319 104.716 85.2462 103.885 85.915L99.6569 87.2116L98.8423 84.6361L102.777 81.6277L106.496 82.0586Z" fill="black"/>
<path d="M75.6369 84.546L73.9922 86.1677C73.9922 86.1677 76.9589 89.6265 79.2414 89.842C81.5238 90.0574 82.9955 87.2116 82.9955 87.2116L81.0203 84.0779L75.6369 84.546Z" fill="#FF69B4"/>
<path opacity="0.1" d="M75.6369 84.546L73.9922 86.1677C73.9922 86.1677 76.9589 89.6265 79.2414 89.842C81.5238 90.0574 82.9955 87.2116 82.9955 87.2116L81.0203 84.0779L75.6369 84.546Z" fill="black"/>
<path opacity="0.1" d="M91.2602 66.7092C94.4201 66.7092 96.9818 64.1285 96.9818 60.9451C96.9818 57.7617 94.4201 55.181 91.2602 55.181C88.1002 55.181 85.5386 57.7617 85.5386 60.9451C85.5386 64.1285 88.1002 66.7092 91.2602 66.7092Z" fill="black"/>
<path d="M91.2602 66.2764C94.4201 66.2764 96.9818 63.6957 96.9818 60.5123C96.9818 57.3288 94.4201 54.7482 91.2602 54.7482C88.1002 54.7482 85.5386 57.3288 85.5386 60.5123C85.5386 63.6957 88.1002 66.2764 91.2602 66.2764Z" fill="#FBBEBE"/>
<path opacity="0.1" d="M101.525 108.903C100.222 109.053 98.9392 109.343 97.6972 109.767C95.5587 110.484 78.8002 109.778 78.5669 109.767C78.5669 109.359 78.5669 109.118 78.5669 109.118L79.3873 107.066L89.108 105.84H93.7584C93.7584 105.84 100.757 107.497 101.481 108.212C101.51 108.642 101.525 108.903 101.525 108.903Z" fill="black"/>
<path opacity="0.1" d="M96.1241 72.583C95.9802 72.9082 95.3736 75.7168 95.2298 76.0047C95.0859 76.2926 94.3005 80.9011 94.2285 81.1597C94.1566 81.4182 89.0513 80.0785 89.0513 80.0785L85.9776 77.4834L82.8184 74.3164C82.8184 74.3164 82.7251 71.4588 85.0522 70.5422L90.8302 77.2347L93.4314 70.2523C93.9455 70.3996 94.4806 70.4579 95.014 70.4247C95.014 70.4247 96.2679 72.2599 96.1241 72.583Z" fill="black"/>
<path d="M90.8303 77.4501L84.9162 70.5951C84.57 70.3724 84.1743 70.2399 83.7647 70.2095C83.3551 70.1791 82.9445 70.2517 82.5696 70.4207C81.2456 70.9985 79.6009 71.4666 79.1712 71.7545C78.7416 72.0424 77.1318 73.8247 77.1318 73.8247L81.9261 86.4595L79.8148 94.7816C79.8148 94.7816 80.1375 99.0336 79.3151 100.583C78.8144 101.573 78.5798 102.679 78.6347 103.789C78.6347 103.789 78.8855 105.844 78.5997 106.923C78.4327 107.644 78.4201 108.393 78.5627 109.12C78.5627 109.12 95.5526 109.841 97.697 109.12C98.9386 108.695 100.222 108.406 101.525 108.257C101.525 108.257 101.136 101.049 100.747 99.3196C100.359 97.5902 101.07 90.9976 101.07 90.9976L100.605 83.9349L103.393 76.6882C103.393 76.6882 101.883 72.0424 100.308 71.5743C100.308 71.5743 97.4481 70.8888 96.8396 70.5657C96.2311 70.2425 94.4425 69.9526 94.4425 69.9526L93.5035 70.2699L90.8303 77.4501Z" fill="#FF69B4"/>
<path opacity="0.1" d="M99.0815 83.6965L86.6367 82.844C86.3217 82.8224 86.049 83.0621 86.0276 83.3794L84.6916 103.174C84.6701 103.491 84.9081 103.766 85.223 103.788L97.6679 104.64C97.9829 104.662 98.2555 104.422 98.277 104.105L99.613 84.3101C99.6344 83.9928 99.3965 83.7181 99.0815 83.6965Z" fill="black"/>
<path d="M99.5103 83.2666L87.0654 82.4141C86.7504 82.3925 86.4778 82.6322 86.4563 82.9495L85.1203 102.744C85.0988 103.061 85.3368 103.336 85.6518 103.358L98.0966 104.21C98.4116 104.232 98.6842 103.992 98.7057 103.675L100.042 83.8801C100.063 83.5628 99.8252 83.2881 99.5103 83.2666Z" fill="#3F3D56"/>
<path d="M99.0995 84.8182L87.2637 84.0074L86.0474 102.028L97.8832 102.839L99.0995 84.8182Z" fill="white"/>
<path opacity="0.1" d="M98.0383 89.4178L88.3701 88.736L88.1815 91.4506L97.8497 92.1324L98.0383 89.4178Z" fill="black"/>
<path opacity="0.1" d="M97.6886 100.205L96.1543 100.1L96.0588 101.515L97.5931 101.62L97.6886 100.205Z" fill="black"/>
<path opacity="0.1" d="M96.175 96.791L88.3213 96.2531L88.2258 97.6678L96.0795 98.2058L96.175 96.791Z" fill="black"/>
<path d="M97.6347 84.1444L89.457 83.5842L89.3102 85.7591L97.4879 86.3193L97.6347 84.1444Z" fill="#3F3D56"/>
<path opacity="0.1" d="M97.6347 84.1444L89.457 83.5842L89.3102 85.7591L97.4879 86.3193L97.6347 84.1444Z" fill="black"/>
<path opacity="0.1" d="M91.5459 108.505C91.5459 108.505 91.4739 119.172 88.6841 125.296C88.6841 125.296 92.0474 117.225 92.0474 116.902C92.0474 116.579 93.906 113.19 93.4083 112.182C92.9106 111.173 91.5459 108.505 91.5459 108.505Z" fill="black"/>
<path opacity="0.1" d="M91.6975 59.0707C91.5907 58.1267 91.8201 57.175 92.3449 56.3855C92.2825 57.1769 92.5047 57.9644 92.9708 58.6044C93.4369 59.2445 94.116 59.6943 94.884 59.8718C94.8185 59.8145 94.7717 59.7385 94.7498 59.6539C94.7279 59.5693 94.732 59.48 94.7615 59.3978C95.1601 59.8522 95.4653 60.3908 95.9163 60.7904C96.3674 61.1899 97.0439 61.4289 97.5747 61.1449C98.296 60.7532 98.3037 59.721 98.1171 58.918C97.7166 57.2078 96.8948 55.6269 95.7277 54.3212C95.4366 53.9265 95.0586 53.6051 94.6235 53.3822C94.1884 53.1593 93.7079 53.0409 93.2198 53.0363C92.1155 52.9502 90.9685 53.0481 89.9789 53.5475C89.422 53.8537 88.9004 54.2208 88.4236 54.6424L85.7018 56.8791C85.4399 57.0692 85.2157 57.307 85.0408 57.5803C84.924 57.8087 84.8539 58.0585 84.8347 58.3147C84.7652 59.0473 84.8997 59.7848 85.2232 60.4446C85.5467 61.1044 86.0464 61.6602 86.6661 62.0497C86.653 61.4708 86.8111 60.901 87.1202 60.4127C87.4293 59.9245 87.8756 59.5398 88.4022 59.3077C88.4847 59.3772 88.5515 59.4637 88.5981 59.5613C88.6447 59.6589 88.6701 59.7655 88.6725 59.8738L89.246 58.8435C89.3313 58.6561 89.4657 58.4956 89.6348 58.3794C89.9887 58.1835 90.43 58.4146 90.7313 58.6908C91.0327 58.9669 91.3262 59.3116 91.7306 59.3547L91.7461 57.8212" fill="black"/>
<path d="M91.6975 58.8554C91.5904 57.9107 91.8198 56.9583 92.3449 56.1682C92.17 57.7351 93.3423 59.3529 94.8859 59.6545C94.8203 59.5977 94.7735 59.5221 94.7516 59.4377C94.7297 59.3534 94.7338 59.2644 94.7634 59.1825C95.162 59.6369 95.4672 60.1735 95.9183 60.575C96.3693 60.9765 97.0459 61.2135 97.5766 60.9276C98.2979 60.5358 98.3057 59.5037 98.119 58.7026C97.7185 56.9925 96.8968 55.4116 95.7297 54.1058C95.3676 53.6611 94.9112 53.3037 94.3941 53.0599C94.0197 52.9204 93.6263 52.8399 93.2276 52.821C92.1233 52.7348 90.9763 52.8308 89.9867 53.3302C89.4302 53.6377 88.9086 54.0055 88.4314 54.427L85.7096 56.6637C85.4473 56.8533 85.223 57.0912 85.0486 57.3649C84.9315 57.5933 84.8614 57.8431 84.8425 58.0994C84.7731 58.8316 84.9077 59.5688 85.2312 60.2283C85.5547 60.8877 86.0543 61.4432 86.6739 61.8324C86.6613 61.2536 86.8195 60.684 87.1286 60.1958C87.4377 59.7077 87.8837 59.323 88.41 59.0904C88.4922 59.1602 88.5588 59.2467 88.6054 59.3442C88.6519 59.4418 88.6775 59.5482 88.6802 59.6564L89.2518 58.6301C89.3366 58.4424 89.4711 58.2817 89.6406 58.166C89.9945 57.9701 90.4358 58.2012 90.7371 58.4774C91.0385 58.7535 91.332 59.0963 91.7364 59.1413L91.752 57.6058" fill="#3F3D56"/>
<path d="M94.4075 95.2124C93.9079 94.9578 85.6453 96.2563 85.6453 96.2563C85.6453 96.2563 84.2844 95.8646 80.9949 95.3201C77.7054 94.7757 77.4954 91.5362 77.4954 91.5362L77.1357 85.0513L78.2459 84.072L83.0012 87.2057C83.0012 87.2057 83.0751 88.7902 83.0012 89.0762C82.9546 89.272 82.8301 89.5051 82.8418 89.6638C82.8454 89.7067 82.863 89.7473 82.8918 89.7792C82.9206 89.811 82.9591 89.8324 83.0012 89.84C83.324 89.9223 87.7216 90.6391 87.7216 90.6391C87.7216 90.6391 97.9147 89.936 100.456 93.3949C100.657 93.6487 100.809 93.9384 100.905 94.2488C101.535 96.6128 94.8605 95.4377 94.4075 95.2124Z" fill="#FBBEBE"/>
<path opacity="0.1" d="M100.911 94.2625C100.522 94.4368 100.281 94.5622 100.281 94.5622C100.281 94.5622 96.6338 94.4545 94.5847 93.7063C92.5355 92.9581 90.0451 93.0913 90.0451 93.0913C90.0451 93.0913 81.5064 91.6106 82.8304 89.6775C82.834 89.7205 82.8516 89.761 82.8804 89.7929C82.9092 89.8248 82.9477 89.8462 82.9898 89.8538C83.3125 89.936 87.7102 90.6529 87.7102 90.6529C87.7102 90.6529 97.9033 89.9497 100.444 93.4086C100.652 93.6611 100.81 93.9508 100.911 94.2625Z" fill="black"/>
<path d="M104.457 82.8518C104.457 82.8518 104.959 86.4184 104.994 86.7082C105.029 86.9981 105.209 90.4903 104.994 90.8879C104.778 91.2854 104.457 91.9318 104.457 91.9318C104.457 91.9318 104.815 92.6878 103.384 92.9777C101.953 93.2675 100.273 94.1293 100.273 94.1293C100.273 94.1293 96.624 94.0216 94.5866 93.2656C92.5491 92.5096 90.045 92.6525 90.045 92.6525C90.045 92.6525 79.2065 90.7782 83.8569 88.4906C88.5072 86.2029 91.7967 89.3014 91.7967 89.3014L96.9817 88.9782C96.9817 88.9782 98.9142 87.7874 99.4508 87.8971C99.8297 87.9457 100.214 87.8831 100.559 87.7169L100.596 83.9329L104.457 82.8518Z" fill="#FBBEBE"/>
<path opacity="0.1" d="M78.1643 74.097L77.1261 74.0421L73.9805 86.3812C73.9805 86.3812 77.3769 85.5155 78.8408 86.3812C80.3048 87.2469 82.9896 87.4251 82.9896 87.4251L81.9884 77.5891L78.1643 74.097Z" fill="black"/>
<path d="M78.1643 73.8795L77.1261 73.8247L73.9805 86.1637C73.9805 86.1637 77.3769 85.298 78.8408 86.1637C80.3048 87.0294 82.9896 87.2077 82.9896 87.2077L81.9884 77.3717L78.1643 73.8795Z" fill="#FF69B4"/>
<path opacity="0.1" d="M101.955 76.5824L103.384 76.9075C103.384 76.9075 107.033 82.1957 107.319 82.4914C107.604 82.7872 105.958 83.8624 105.279 83.8624C104.601 83.8624 101.274 84.2542 100.308 85.159C99.3418 86.0639 99.7442 81.5102 99.7442 81.4064C99.7442 81.3026 100.944 78.4293 100.944 78.4293L101.955 76.5824Z" fill="black"/>
<path d="M101.955 76.3669L103.384 76.6901C103.384 76.6901 107.033 81.9881 107.319 82.276C107.604 82.5639 105.958 83.647 105.279 83.647C104.601 83.647 101.274 84.0387 100.308 84.9436C99.3418 85.8484 99.7442 81.2947 99.7442 81.1909C99.7442 81.0871 100.952 78.2041 100.952 78.2041L101.955 76.3669Z" fill="#FF69B4"/>
<g opacity="0.1">
<path opacity="0.1" d="M92.3351 56.1858C92.3267 56.0356 92.33 55.885 92.3449 55.7354C92.0488 56.1828 91.8452 56.6857 91.7461 57.2141V57.6685C91.7461 57.6685 91.7461 57.6587 91.7461 57.6528V57.7605C91.7461 58.0778 91.7461 58.3971 91.7363 58.7144H91.7091V58.8612C91.7091 58.8103 91.7091 58.7614 91.6994 58.7104C91.3106 58.6478 91.0326 58.3187 90.7429 58.0563C90.4532 57.7938 90.0002 57.5431 89.6464 57.7449C89.4769 57.8606 89.3424 58.0212 89.2576 58.209L88.6802 59.2353C88.6776 59.1273 88.6522 59.0211 88.6056 58.9239C88.559 58.8266 88.4923 58.7405 88.4099 58.6713C87.8833 58.9034 87.437 59.288 87.1279 59.7763C86.8187 60.2645 86.6607 60.8343 86.6738 61.4133C86.1426 61.078 85.6983 60.6202 85.3775 60.0776C85.0566 59.5351 84.8686 58.9235 84.8288 58.2933C84.795 58.997 84.9482 59.697 85.2725 60.3212C85.5968 60.9454 86.0805 61.4711 86.6738 61.8442C86.6612 61.2653 86.8195 60.6957 87.1285 60.2076C87.4376 59.7194 87.8836 59.3347 88.4099 59.1022C88.4921 59.1719 88.5587 59.2584 88.6053 59.356C88.6519 59.4535 88.6774 59.5599 88.6802 59.6682L89.2517 58.6419C89.3365 58.4541 89.4711 58.2935 89.6406 58.1777C89.9944 57.9818 90.4357 58.213 90.7371 58.4891C91.0384 58.7653 91.332 59.108 91.7363 59.1531C91.7363 58.6517 91.7415 58.1516 91.7519 57.6528C91.8473 57.1295 92.0456 56.6307 92.3351 56.1858Z" fill="black"/>
<path opacity="0.1" d="M91.6781 58.1581C91.6879 58.0249 91.7034 57.8918 91.7229 57.7664L91.7442 57.2258C91.6858 57.5329 91.6636 57.8458 91.6781 58.1581Z" fill="black"/>
<path opacity="0.1" d="M97.5765 60.4947C97.0458 60.7807 96.3692 60.5418 95.9182 60.1422C95.4671 59.7426 95.1619 59.204 94.7634 58.7496C94.7339 58.8319 94.7298 58.9212 94.7517 59.0058C94.7735 59.0904 94.8203 59.1663 94.8858 59.2236C94.847 59.2236 94.81 59.204 94.7731 59.1942C95.1619 59.6447 95.471 60.1735 95.9182 60.5653C96.3653 60.957 97.0458 61.2038 97.5765 60.9178C98.1072 60.6318 98.2589 59.962 98.2122 59.3098C98.1772 59.8229 97.9945 60.2675 97.5765 60.4947Z" fill="black"/>
<path opacity="0.1" d="M94.7613 59.1903C94.1112 59.0118 93.5307 58.6374 93.0978 58.1172C92.6648 57.597 92.4 56.956 92.3389 56.2799C92.2281 57.8174 93.379 59.3588 94.8857 59.6545C94.8216 59.5984 94.7755 59.5242 94.7533 59.4415C94.7311 59.3589 94.7339 59.2714 94.7613 59.1903Z" fill="black"/>
</g>
<path d="M188.127 91.2013C188.127 91.2013 187.361 91.0936 187.361 89.9713C187.361 88.8491 186.813 86.7475 186.813 86.7475C186.813 86.7475 186.338 83.0908 185.683 82.5111C185.028 81.9314 184.186 78.5274 184.186 78.5274C184.186 78.5274 184.042 76.6804 183.749 76.2828C183.455 75.8852 183.059 74.9118 182.473 73.5232C181.888 72.1346 179.454 71.1827 179.454 71.1827C179.454 71.1827 175.043 68.6052 173.793 67.765C173.678 67.6953 173.572 67.6139 173.474 67.5221C173.256 67.2361 172.307 67.2303 172.307 67.2303C172.208 66.5976 172.113 65.873 172.082 65.2168C172.082 65.1463 172.082 65.0758 172.082 65.0053C173.476 64.1752 174.526 62.8665 175.039 61.3193C175.062 61.2448 175.082 61.1685 175.103 61.0921C175.188 61.0656 175.267 61.0211 175.334 60.9617C175.401 60.9023 175.455 60.8292 175.492 60.7474C175.603 60.4947 175.607 60.2009 175.747 59.9639C175.91 59.6858 176.221 59.537 176.466 59.3294C177.084 58.7986 177.244 57.9074 177.214 57.0985C177.195 56.4404 177.09 55.7784 177.131 55.1262C177.131 55.0714 177.131 55.0166 177.143 54.9617C177.154 54.8657 177.168 54.7659 177.185 54.6719C177.281 54.1861 177.489 53.7278 177.605 53.246C177.722 52.7642 177.734 52.2217 177.461 51.8064C177.063 51.1973 176.233 51.0759 175.504 51.023C174.677 50.9525 173.948 51.0426 173.41 50.3512C173.163 49.9901 172.884 49.6519 172.578 49.3406C172.469 49.2388 171.411 48.5865 171.411 48.5454C170.376 48.0607 169.202 47.9696 168.106 48.2888C167.556 48.4494 167.041 48.7119 166.483 48.8431C165.285 49.1291 163.905 48.8196 162.886 49.511C162.318 49.9027 161.978 50.5275 161.659 51.1327C161.4 51.6315 161.137 52.1309 160.87 52.631C160.438 53.4517 160.003 54.286 159.822 55.1948C159.784 55.3933 159.76 55.5942 159.75 55.7961C159.75 55.8685 159.75 55.941 159.75 56.0135C159.75 56.0448 159.75 56.0762 159.75 56.1075C159.75 56.1741 159.75 56.2407 159.762 56.3033C159.774 56.366 159.762 56.3836 159.776 56.4248C159.789 56.4659 159.793 56.558 159.805 56.6206C159.816 56.6833 159.84 56.795 159.863 56.8792C159.863 56.9164 159.886 56.9516 159.898 56.9888C159.91 57.0261 159.941 57.1201 159.966 57.1847C159.991 57.2493 159.993 57.2533 160.009 57.2866C160.038 57.3551 160.073 57.4217 160.108 57.4824C160.124 57.5079 160.135 57.5333 160.151 57.5588C160.204 57.6505 160.264 57.7382 160.33 57.8212C160.744 58.3442 161.358 58.6771 161.811 59.1668C161.811 59.1864 161.811 59.206 161.811 59.2256C161.811 59.2784 161.811 59.3313 161.811 59.3861C161.839 60.4783 162.131 61.547 162.662 62.4994C163.194 63.4518 163.948 64.2589 164.859 64.8506C164.859 64.925 164.869 65.0014 164.873 65.0778C164.911 65.6585 164.904 66.2413 164.852 66.8209C164.772 66.7272 164.673 66.6525 164.562 66.6024C164.45 66.5522 164.328 66.5279 164.206 66.5311C164.123 66.5269 164.039 66.5341 163.957 66.5526L163.94 66.5389V66.5565C163.512 66.6623 162.985 67.1108 162.482 68.3858C162.482 68.3858 160.95 70.125 159.783 70.0526C158.617 69.9801 155.664 71.8643 155.664 71.8643C155.664 71.8643 152.782 73.7465 152.164 75.6659C151.819 76.7545 151.404 77.8196 150.922 78.8544L147.35 86.2422L146.695 92.1179C146.695 92.1179 147.059 94.7248 146.987 95.1244C146.915 95.5239 148.482 99.1081 148.482 99.1081C148.482 99.1081 153.659 108.27 155.774 108.74L155.926 108.635C156.017 108.681 156.113 108.716 156.212 108.74L156.647 108.433C156.674 108.777 156.663 109.123 156.612 109.465C156.323 110.372 156.723 116.275 157.233 117.433C157.742 118.59 157.561 133.769 157.561 133.769L157.489 135.107C157.489 135.107 157.489 135.15 157.507 135.224L157.489 135.542L157.542 135.569C157.596 135.995 157.578 136.426 157.489 136.846C157.306 137.434 157.233 139.093 157.233 139.093C157.233 139.093 155.774 148.47 156.467 150.354C157.159 152.239 157.744 154.303 157.744 154.303C157.744 154.303 158.473 156.653 157.779 157.045C157.085 157.437 155.119 158.132 155.52 159.109C155.889 160.014 157.291 162.439 157.499 162.793L157.481 162.989L157.196 166.109C157.242 166.521 157.353 166.923 157.524 167.3C157.837 167.982 158.444 168.685 159.602 168.608C159.797 168.595 160.02 168.573 160.24 168.544C162.357 168.256 164.962 167.304 164.962 167.304C164.827 167.218 164.704 167.114 164.595 166.996C164.491 166.895 164.409 166.773 164.353 166.638C164.297 166.504 164.269 166.359 164.27 166.213C164.301 165.643 163.246 162.938 162.981 162.27L162.921 162.122C162.921 162.122 165.328 159.585 164.927 157.341C164.927 157.341 162.264 155.774 163.141 154.912C164.018 154.05 165.585 151.582 165.585 151.582C165.585 151.582 165.657 142.348 165.585 140.971C165.51 140.013 165.555 139.05 165.719 138.103C165.748 137.962 165.783 137.823 165.82 137.684C167.034 137.869 168.259 137.962 169.486 137.964C169.935 137.964 170.389 137.955 170.847 137.937C170.847 138.068 170.853 138.209 170.865 138.36C170.966 140.648 171.155 144.661 171.308 146.151C171.526 148.286 172.729 154.046 172.729 154.046C172.729 154.046 170.433 155.529 173.13 159.19C173.13 159.19 173.13 160.514 172.951 160.707C172.76 161.336 172.606 161.974 172.49 162.621C172.377 163.308 172.331 164.008 172.514 164.368C172.951 165.234 175.576 165.163 175.576 165.163C175.597 165.158 175.618 165.155 175.64 165.153C176.135 165.101 176.636 165.148 177.113 165.293C177.59 165.437 178.034 165.676 178.418 165.996C179.415 166.803 183.199 166.45 185.25 166.191C186.053 166.088 186.589 165.996 186.589 165.996C186.615 165.904 186.624 165.808 186.616 165.714C186.595 165.206 186.2 164.094 183.525 163.101C183.525 163.101 181.009 161.397 181.044 159.912H180.988H180.698C180.881 159.906 181.009 159.906 181.009 159.906C181.009 159.906 180.024 156.285 180.426 155.989C180.829 155.693 179.623 151.68 179.623 151.68C179.623 151.68 178.933 144.943 178.894 144.473C178.897 144.068 178.958 143.665 179.077 143.278L178.894 139.582C178.894 139.582 178.859 138.354 178.894 137.955C178.89 137.608 178.863 137.262 178.813 136.919C178.795 136.781 178.778 136.638 178.758 136.497C179.701 136.257 180.313 136.035 180.313 136.035L180.205 123.177C181.006 121.61 181.153 118.171 181.149 115.734C181.149 114.168 181.079 113.008 181.079 113.008L182.174 111.208C182.174 111.208 182.427 109.054 182.026 108.582C181.849 108.368 181.929 108.147 182.075 107.965C182.152 107.901 182.233 107.844 182.318 107.792C182.308 107.779 182.3 107.764 182.293 107.749C182.369 107.685 182.45 107.627 182.536 107.575C182.536 107.575 182.147 106.968 182.495 106.711C182.821 106.935 183.113 107.113 183.335 107.24C183.319 107.383 183.304 107.465 183.304 107.465L183.397 107.27C183.611 107.391 183.741 107.465 183.741 107.465C183.741 107.465 185.456 104.024 185.419 103.519C185.382 103.014 186.585 100.875 186.585 100.875C186.585 100.875 186.731 99.7505 187.388 99.2805C188.045 98.8104 187.898 95.4044 187.898 95.4044C187.898 95.4044 188.08 93.63 188.518 92.9072C188.955 92.1845 188.127 91.2013 188.127 91.2013ZM155.318 89.6913L155.351 90.5119C155.156 90.1966 155.016 89.9713 155.016 89.9713L155.318 89.6913Z" fill="url(#paint1_linear_1_1938)"/>
<path d="M183.842 105.977L183.422 107.779C183.422 107.779 180.059 106.045 179.454 103.852C178.85 101.658 180.467 100.822 180.467 100.822L183.603 102.158L183.842 105.977Z" fill="white"/>
<path opacity="0.1" d="M183.842 105.977L183.422 107.779C183.422 107.779 180.059 106.045 179.454 103.852C178.85 101.658 180.467 100.822 180.467 100.822L183.603 102.158L183.842 105.977Z" fill="black"/>
<path d="M164.966 167.302C164.966 167.302 161.856 168.454 159.717 168.599C158.582 168.675 157.985 167.974 157.678 167.298C157.511 166.925 157.402 166.529 157.355 166.123L157.637 163.019L157.785 161.367L162.328 160.177L162.972 162.161L163.032 162.31C163.288 162.974 164.327 165.665 164.296 166.227C164.293 166.372 164.32 166.516 164.374 166.651C164.429 166.786 164.51 166.908 164.612 167.01C164.718 167.122 164.837 167.22 164.966 167.302Z" fill="white"/>
<path d="M186.204 165.723C186.212 165.818 186.203 165.914 186.177 166.005C186.177 166.005 179.524 167.122 178.163 166.005C177.78 165.679 177.335 165.437 176.854 165.294C176.373 165.152 175.868 165.112 175.371 165.177C175.371 165.177 172.797 165.247 172.368 164.393C172.189 164.035 172.235 163.34 172.346 162.656C172.459 162.013 172.61 161.378 172.797 160.752L172.9 160.67L173.513 160.175L180.683 159.961H180.737C180.702 161.438 183.169 163.132 183.169 163.132C185.796 164.111 186.183 165.218 186.204 165.723Z" fill="white"/>
<path opacity="0.1" d="M186.206 165.723C186.213 165.818 186.203 165.914 186.177 166.005C186.177 166.005 179.524 167.122 178.165 166.005C177.782 165.679 177.336 165.437 176.855 165.294C176.374 165.151 175.869 165.111 175.371 165.177C175.371 165.177 172.795 165.247 172.366 164.393C172.189 164.035 172.234 163.34 172.344 162.654C173.336 162.754 174.901 163.003 175.515 163.598C176.445 164.499 178.019 165.4 178.984 165.473C179.746 165.52 184.278 165.665 186.206 165.723Z" fill="black"/>
<path opacity="0.1" d="M164.966 167.302C164.966 167.302 161.856 168.454 159.717 168.598C158.582 168.675 157.985 167.974 157.678 167.298C158.471 167.566 159.569 167.846 160.147 167.59C160.831 167.282 163.257 167.086 164.618 167.002C164.721 167.117 164.838 167.218 164.966 167.302Z" fill="black"/>
<path d="M169.582 74.4867C167.015 73.482 163.714 70.1622 164.539 68.611C164.721 68.2192 164.829 67.7969 164.859 67.3653C164.912 66.7792 164.92 66.1899 164.883 65.6026C164.825 64.6401 164.71 63.682 164.539 62.7333C164.539 62.7333 172.55 62.9154 172.084 64.1043C171.948 64.4549 171.924 65.0601 171.963 65.7358C172.002 66.4115 172.097 67.1812 172.198 67.8295C172.337 68.7167 172.478 69.3964 172.478 69.3964C172.478 69.3964 171.987 70.0877 171.701 70.125C171.415 70.1622 173.264 75.9263 169.582 74.4867Z" fill="#CF6F80"/>
<path opacity="0.1" d="M163.024 162.3L162.964 162.366C160.568 159.448 157.672 163.087 157.672 163.087L157.629 163.009L157.777 161.358L162.32 160.167L162.964 162.151L163.024 162.3Z" fill="black"/>
<path opacity="0.1" d="M180.741 160.167C180.741 160.167 178.991 160.132 178.058 160.962C177.125 161.792 172.614 161.14 172.809 160.962C172.866 160.872 172.9 160.769 172.91 160.662L173.522 160.167L180.692 159.953C180.72 160.09 180.741 160.167 180.741 160.167Z" fill="black"/>
<path d="M166.005 137.249C165.875 137.574 165.776 137.911 165.709 138.254C165.547 139.195 165.502 140.153 165.575 141.106C165.647 142.477 165.575 151.665 165.575 151.665C165.575 151.665 164.037 154.115 163.178 154.979C162.318 155.842 164.928 157.393 164.928 157.393C165.316 159.628 162.96 162.151 162.96 162.151C160.565 159.233 157.668 162.87 157.668 162.87C157.668 162.87 156.093 160.128 155.701 159.148C155.308 158.169 157.238 157.493 157.917 157.094C158.595 156.694 157.882 154.352 157.882 154.352C157.882 154.352 157.31 152.297 156.63 150.423C155.949 148.548 157.38 139.22 157.38 139.22C157.38 139.22 157.454 137.561 157.631 136.983C157.719 136.566 157.737 136.137 157.684 135.714C157.672 135.571 157.658 135.453 157.649 135.371C157.639 135.289 157.631 135.254 157.631 135.254L157.658 135.207L158.63 133.381C158.63 133.381 166.471 136.1 166.005 137.249Z" fill="#FF69B4"/>
<path d="M180.741 159.951C180.741 159.951 178.992 159.914 178.058 160.735C177.125 161.556 172.615 160.915 172.809 160.735C173.004 160.555 172.986 159.223 172.986 159.223C170.34 155.582 172.597 154.105 172.597 154.105C172.597 154.105 171.417 148.376 171.203 146.251C171.054 144.769 170.869 140.767 170.77 138.501C170.727 137.522 170.702 136.846 170.702 136.846L172.844 136.417L173.122 136.362L178.336 135.307C178.336 135.307 178.48 136.286 178.577 137.087C178.627 137.429 178.653 137.774 178.657 138.119C178.624 138.511 178.657 139.739 178.657 139.739L178.836 143.413C178.721 143.799 178.66 144.199 178.657 144.602C178.694 145.072 179.373 151.772 179.373 151.772C179.373 151.772 180.553 155.772 180.15 156.06C179.748 156.348 180.741 159.951 180.741 159.951Z" fill="#FF69B4"/>
<path opacity="0.1" d="M172.084 64.1103C171.948 64.4608 171.924 65.066 171.963 65.7418C170.89 66.3928 169.656 66.7256 168.404 66.7021C167.151 66.6785 165.931 66.2995 164.883 65.6086C164.825 64.6461 164.71 63.6879 164.539 62.7393C164.539 62.7393 172.55 62.9214 172.084 64.1103Z" fill="black"/>
<path opacity="0.1" d="M169.582 74.4867C167.015 73.482 163.714 70.1622 164.539 68.611C164.721 68.2192 164.829 67.7969 164.859 67.3654L168.372 70.2758L170.546 72.0718L172.198 67.8354C172.337 68.7226 172.478 69.4023 172.478 69.4023C172.478 69.4023 171.987 70.0937 171.701 70.1309C171.415 70.1681 173.264 75.9263 169.582 74.4867Z" fill="black"/>
<path d="M178.667 87.3487L175.733 136.999L171.907 137.251L161.998 108.462L163.623 74.2831L163.967 67.0618L168.372 70.7067L170.546 72.5027L172.247 68.1409L175.41 70.9182L178.667 87.3487Z" fill="#FF69B4"/>
<path opacity="0.1" d="M166.004 137.25C165.874 137.574 165.775 137.911 165.709 138.254C162.922 137.822 160.216 136.971 157.679 135.73L157.627 135.702L157.644 135.387V135.222L158.617 133.397C158.617 133.397 166.471 136.1 166.004 137.25Z" fill="black"/>
<path opacity="0.1" d="M172.908 138.262C172.197 138.385 171.479 138.468 170.758 138.511C170.715 137.532 170.69 136.856 170.69 136.856L172.844 136.417L172.908 138.262Z" fill="black"/>
<path opacity="0.1" d="M178.585 137.087C177.203 137.449 175.066 137.857 173.157 137.602L173.13 136.362L178.344 135.307C178.344 135.307 178.482 136.278 178.585 137.087Z" fill="black"/>
<path opacity="0.1" d="M170.76 81.3672C169.903 81.0069 165.361 75.7833 165.361 75.7833V74.5945C165.196 74.2028 164.212 74.4417 163.417 74.7159L163.759 67.4946L164.148 67.8197C164.998 70.8477 170.667 81.1929 170.76 81.3672Z" fill="black"/>
<path opacity="0.1" d="M157.851 106.985C157.957 106.985 163.393 106.41 163.393 106.41C163.393 106.41 166.685 112.932 166.469 114.516C166.253 116.101 165.862 117.507 164.538 117.258C163.214 117.009 157.413 117.454 157.413 117.454L157.851 106.985Z" fill="black"/>
<path d="M161.731 103.499C161.731 103.499 166.72 106.202 166.827 107.025C166.934 107.847 164.288 106.664 163.716 106.519C163.34 106.429 162.957 106.369 162.571 106.339L158.759 106.443L161.731 103.499Z" fill="#CF6F80"/>
<path opacity="0.1" d="M169.366 81.7041C169.656 81.7041 169.891 81.4674 169.891 81.1753C169.891 80.8832 169.656 80.6465 169.366 80.6465C169.076 80.6465 168.841 80.8832 168.841 81.1753C168.841 81.4674 169.076 81.7041 169.366 81.7041Z" fill="black"/>
<path d="M169.366 81.4887C169.656 81.4887 169.891 81.2519 169.891 80.9598C169.891 80.6678 169.656 80.431 169.366 80.431C169.076 80.431 168.841 80.6678 168.841 80.9598C168.841 81.2519 169.076 81.4887 169.366 81.4887Z" fill="#3F3D56"/>
<path opacity="0.1" d="M170.332 104.596C170.622 104.596 170.857 104.359 170.857 104.067C170.857 103.775 170.622 103.538 170.332 103.538C170.042 103.538 169.807 103.775 169.807 104.067C169.807 104.359 170.042 104.596 170.332 104.596Z" fill="black"/>
<path d="M170.332 104.379C170.622 104.379 170.857 104.142 170.857 103.85C170.857 103.558 170.622 103.321 170.332 103.321C170.042 103.321 169.807 103.558 169.807 103.85C169.807 104.142 170.042 104.379 170.332 104.379Z" fill="#3F3D56"/>
<path opacity="0.1" d="M169.891 93.15C170.181 93.15 170.416 92.9133 170.416 92.6212C170.416 92.3292 170.181 92.0924 169.891 92.0924C169.601 92.0924 169.366 92.3292 169.366 92.6212C169.366 92.9133 169.601 93.15 169.891 93.15Z" fill="black"/>
<path d="M169.891 92.9346C170.181 92.9346 170.416 92.6978 170.416 92.4058C170.416 92.1137 170.181 91.877 169.891 91.877C169.601 91.877 169.366 92.1137 169.366 92.4058C169.366 92.6978 169.601 92.9346 169.891 92.9346Z" fill="#3F3D56"/>
<path opacity="0.1" d="M175.397 75.141L175.912 76.6491L173.208 79.3911C173.268 76.5688 173.336 73.9071 173.336 73.9071L172.399 68.1743C172.399 68.1743 173.336 68.1743 173.552 68.4661C173.647 68.5574 173.751 68.6381 173.863 68.707L176.161 75.3838L175.397 75.141Z" fill="black"/>
<path opacity="0.1" d="M175.177 59.7856C175.178 60.4913 175.067 61.1927 174.85 61.8637C174.814 61.8699 174.776 61.8685 174.74 61.8598C174.704 61.851 174.67 61.835 174.64 61.8128C174.588 60.05 173.728 58.3931 172.669 56.9849C172.371 56.5601 172.01 56.1837 171.6 55.8685C171.184 55.5541 170.667 55.4068 170.149 55.4552C169.566 55.5355 169.051 55.9351 168.462 55.986C167.684 56.0506 166.988 55.5081 166.216 55.4826C165.902 55.4853 165.593 55.5555 165.308 55.6886C165.023 55.8217 164.77 56.0146 164.566 56.2543C164.16 56.7366 163.859 57.2989 163.681 57.9054C163.375 58.8256 163.209 59.7869 163.187 60.7571C163.178 61.3055 163.125 61.993 162.62 62.1927C162.658 61.7897 162.612 61.3831 162.486 60.9987C162.36 60.6143 162.156 60.2605 161.887 59.9599L161.875 59.9462C161.875 59.8914 161.875 59.8405 161.875 59.7856C161.875 58.0081 162.576 56.3033 163.824 55.0464C165.071 53.7895 166.763 53.0834 168.528 53.0834C170.292 53.0834 171.984 53.7895 173.232 55.0464C174.48 56.3033 175.181 58.0081 175.181 59.7856H175.177Z" fill="black"/>
<path opacity="0.1" d="M150.152 90.4472L148.122 86.6652L147.479 92.5017C147.479 92.5017 147.836 95.0949 147.764 95.4925C147.692 95.8901 149.23 99.4547 149.23 99.4547C149.23 99.4547 154.31 108.572 156.385 109.04L163.384 103.995L161.525 101.617C161.525 101.617 160.881 101.364 160.72 101.617C160.72 101.617 157.267 95.6355 156.911 95.2046C156.556 94.7737 156.624 93.906 156.624 93.906C156.624 93.906 156.087 93.3302 156.266 92.7896C156.445 92.2491 155.24 90.3767 155.24 90.3767L156.348 89.3328L150.152 90.4472Z" fill="black"/>
<path opacity="0.1" d="M181.527 109.105C181.916 109.581 181.671 111.719 181.671 111.719L180.597 113.508C180.597 113.508 180.662 114.663 180.665 116.222L178.861 116.79C178.698 116.841 178.525 116.853 178.356 116.823C178.188 116.793 178.029 116.723 177.893 116.619C177.756 116.515 177.647 116.379 177.573 116.224C177.5 116.068 177.464 115.897 177.469 115.725L177.782 105.618L181.991 107.238C181.634 107.489 182.026 108.104 182.026 108.104C182.026 108.104 181.134 108.629 181.527 109.105Z" fill="black"/>
<path d="M183.136 104.067C183.136 104.067 182.85 105.906 182.135 106.014C181.419 106.122 181.099 108.989 180.385 108.889C179.672 108.789 180.144 106.222 180.169 105.724C180.195 105.227 179.392 103.166 179.99 102.698C180.589 102.23 182.495 102.698 182.495 102.698L183.136 104.067Z" fill="#CF6F80"/>
<path opacity="0.1" d="M184.649 89.9067L185.996 87.1647C185.996 87.1647 186.535 89.2545 186.535 90.3709C186.535 91.4873 187.285 91.5969 187.285 91.5969C187.285 91.5969 188.108 92.5762 187.674 93.2911C187.24 94.006 187.067 95.7766 187.067 95.7766C187.067 95.7766 187.209 99.1629 186.566 99.631C185.922 100.099 185.778 101.217 185.778 101.217C185.778 101.217 184.598 103.343 184.635 103.848C184.672 104.353 182.991 107.775 182.991 107.775C182.991 107.775 183.813 103.523 179.021 101.686C179.021 101.686 178.984 100.244 179.341 99.8484C179.699 99.4528 180.257 99.2609 179.907 97.271C179.557 95.281 179.806 92.8818 179.806 92.4019C179.806 91.9221 180.879 88.9313 180.879 88.9313L184.649 89.9067Z" fill="black"/>
<path opacity="0.1" d="M159.219 157.844C159.219 157.844 161.097 156.655 162.33 157.519C163.562 158.383 159.219 157.844 159.219 157.844Z" fill="black"/>
<path opacity="0.1" d="M173.816 154.168C173.816 154.168 175.478 153.952 176.874 155.466C178.27 156.98 173.816 154.168 173.816 154.168Z" fill="black"/>
<path opacity="0.1" d="M25.8046 164.301C36.2669 164.301 44.7483 162.929 44.7483 161.236C44.7483 159.543 36.2669 158.171 25.8046 158.171C15.3422 158.171 6.86084 159.543 6.86084 161.236C6.86084 162.929 15.3422 164.301 25.8046 164.301Z" fill="#FF69B4"/>
<path d="M26.4153 102.516H25.1963V130.165H26.4153V102.516Z" fill="#535461"/>
<path d="M34.0768 130.083L33.999 131.329L33.8921 133.091L33.8474 133.824L33.7385 135.587L33.6918 136.319L33.5849 138.082L32.3543 158.073C32.3018 158.933 31.9256 159.741 31.3024 160.331C30.6792 160.921 29.856 161.25 29.0006 161.25H22.6102C21.7525 161.25 20.9271 160.92 20.3035 160.327C19.6798 159.733 19.3052 158.922 19.2566 158.059L18.0259 138.068L17.919 136.305L17.8743 135.573L17.7635 133.81L17.7188 133.078L17.6118 131.315L17.5341 130.069C17.5206 129.831 17.5555 129.591 17.6367 129.367C17.7178 129.142 17.8435 128.936 18.0061 128.762C18.1687 128.588 18.3648 128.449 18.5824 128.353C18.8001 128.258 19.0347 128.208 19.2721 128.207H32.3407C32.5791 128.208 32.8147 128.258 33.0331 128.355C33.2515 128.451 33.448 128.592 33.6106 128.767C33.7732 128.943 33.8984 129.15 33.9785 129.377C34.0587 129.603 34.0921 129.843 34.0768 130.083Z" fill="#3F3D56"/>
<path d="M33.999 131.327L33.8901 133.085H17.7187L17.6099 131.327H33.999Z" fill="#9D9CB5"/>
<path d="M33.8456 133.818L33.7387 135.577H17.8725L17.7637 133.818H33.8456Z" fill="#9D9CB5"/>
<path d="M33.6918 136.311L33.5848 138.068H18.0259L17.917 136.311H33.6918Z" fill="#9D9CB5"/>
<path d="M15.7572 112.881C22.8572 118.055 25.8143 126.148 25.8143 126.148C25.8143 126.148 17.26 125.853 10.1581 120.678C3.05614 115.503 0.0952148 107.416 0.0952148 107.416C0.0952148 107.416 8.64944 107.706 15.7572 112.881Z" fill="#FF69B4"/>
<path d="M0.0952148 107.416C0.0952148 107.416 8.97411 112.381 11.8223 116.492C14.6704 120.603 25.8065 126.152 25.8065 126.152" stroke="#535461" stroke-width="2" stroke-miterlimit="10"/>
<path d="M20.3317 102.457C24.1967 105.272 25.8064 109.677 25.8064 109.677C25.8064 109.677 21.1405 109.516 17.2853 106.702C13.43 103.887 11.8105 99.4802 11.8105 99.4802C11.8105 99.4802 16.4687 99.6408 20.3317 102.457Z" fill="#FF69B4"/>
<path d="M11.8105 99.4802C11.8105 99.4802 16.6437 102.183 18.1951 104.42C19.7465 106.656 25.8064 109.677 25.8064 109.677" stroke="#535461" stroke-width="2" stroke-miterlimit="10"/>
<path d="M31.4214 109.453C26.983 114.367 26.0439 120.79 26.0439 120.79C26.0439 120.79 32.3021 119.242 36.7367 114.326C41.1713 109.41 42.1142 102.99 42.1142 102.99C42.1142 102.99 35.8599 104.539 31.4214 109.453Z" fill="#FF69B4"/>
<path d="M42.1181 102.992C42.1181 102.992 36.3362 108.029 34.8665 111.5C33.3967 114.971 26.0439 120.79 26.0439 120.79" stroke="#535461" stroke-width="2" stroke-miterlimit="10"/>
</g>
<defs>
<linearGradient id="paint0_linear_1_1938" x1="90.5057" y1="163.651" x2="90.5057" y2="50.5138" gradientUnits="userSpaceOnUse">
<stop stop-color="#808080" stop-opacity="0.25"/>
<stop offset="0.54" stop-color="#808080" stop-opacity="0.12"/>
<stop offset="1" stop-color="#808080" stop-opacity="0.1"/>
</linearGradient>
<linearGradient id="paint1_linear_1_1938" x1="36993" y1="106028" x2="36993" y2="31871.8" gradientUnits="userSpaceOnUse">
<stop stop-color="#808080" stop-opacity="0.25"/>
<stop offset="0.54" stop-color="#808080" stop-opacity="0.12"/>
<stop offset="1" stop-color="#808080" stop-opacity="0.1"/>
</linearGradient>
<clipPath id="clip0_1_1938">
<rect width="227" height="169" fill="white"/>
</clipPath>
</defs>
</svg>
