<svg width="16" height="16" viewBox="0 0 16 16" fill="none" xmlns="http://www.w3.org/2000/svg">
<path d="M14.971 3.48C14.9639 3.36831 14.9196 3.26222 14.8451 3.17871C14.7705 3.09519 14.6702 3.03909 14.56 3.01938C11.8569 2.53438 10.7285 2.18375 8.20595 1.04438C8.14124 1.01513 8.07103 1 8.00001 1C7.92899 1 7.85879 1.01513 7.79408 1.04438C5.27158 2.18375 4.14314 2.53438 1.44001 3.01938C1.32985 3.03909 1.22948 3.09519 1.15498 3.17871C1.08047 3.26222 1.03614 3.36831 1.02908 3.48C0.908763 5.38969 1.16533 7.16907 1.79251 8.76875C2.30611 10.0736 3.06621 11.2673 4.03126 12.2847C5.7022 14.0575 7.47626 14.8275 7.8147 14.9638C7.93497 15.0124 8.06943 15.0124 8.1897 14.9638C8.52814 14.8275 10.3022 14.0575 11.9731 12.2847C12.9366 11.2669 13.6952 10.0732 14.2075 8.76875C14.8347 7.16907 15.0913 5.38969 14.971 3.48ZM10.8772 5.82719L7.4147 9.82719C7.37018 9.87877 7.31558 9.92071 7.25427 9.95043C7.19295 9.98014 7.12621 9.99701 7.05814 10H7.03751C6.90665 10 6.781 9.94876 6.68751 9.85719L5.15001 8.35094C5.10311 8.30498 5.06571 8.25023 5.03997 8.18981C5.01422 8.1294 5.00062 8.06451 4.99996 7.99884C4.99861 7.86621 5.05 7.73849 5.14283 7.64375C5.23565 7.54902 5.36231 7.49505 5.49493 7.4937C5.62755 7.49235 5.75528 7.54374 5.85001 7.63657L7.00626 8.77063L10.1219 5.17282C10.1649 5.12316 10.2172 5.08245 10.2759 5.05302C10.3346 5.02359 10.3985 5.006 10.464 5.00127C10.5295 4.99654 10.5953 5.00476 10.6576 5.02545C10.7199 5.04615 10.7775 5.07891 10.8272 5.12188C10.8769 5.16485 10.9176 5.21717 10.947 5.27587C10.9764 5.33457 10.994 5.39849 10.9987 5.46399C11.0035 5.52948 10.9953 5.59527 10.9746 5.65758C10.9539 5.7199 10.9211 5.77754 10.8781 5.82719H10.8772Z" fill="#0170BC"/>
</svg>
