<svg width="18" height="18" viewBox="0 0 18 18" fill="none" xmlns="http://www.w3.org/2000/svg">
<path fill-rule="evenodd" clip-rule="evenodd" d="M2.25 2.25H3.75C4.16421 2.25 4.5 2.58579 4.5 3C4.5 3.38463 4.21047 3.70163 3.83747 3.74495L3.75 3.75H3V6.75L3.00509 6.92627C3.04903 7.68451 3.37456 8.36721 3.87868 8.87132C4.42157 9.41421 5.17157 9.75 6 9.75C6.82843 9.75 7.57843 9.41421 8.12132 8.87132C8.62544 8.36721 8.95097 7.68451 8.99491 6.92627L9 6.75V3.75H8.25C7.83579 3.75 7.5 3.41421 7.5 3C7.5 2.61537 7.78953 2.29837 8.16253 2.25505L8.25 2.25H9.75C10.1642 2.25 10.5 2.58579 10.5 3V6.75C10.5 8.97975 8.87828 10.8307 6.75 11.1878V12C6.75 12.8284 7.08579 13.5784 7.62868 14.1213C8.17157 14.6642 8.92157 15 9.75 15H10.5C11.3284 15 12.0784 14.6642 12.6213 14.1213C13.1642 13.5784 13.5 12.8284 13.5 12V11.872C12.6261 11.5631 12 10.7297 12 9.75C12 8.50736 13.0074 7.5 14.25 7.5C15.4926 7.5 16.5 8.50736 16.5 9.75C16.5 10.7297 15.8739 11.5631 15 11.872V12C15 14.4853 12.9853 16.5 10.5 16.5H9.75C7.26472 16.5 5.25 14.4853 5.25 12V11.1878C3.12171 10.8307 1.5 8.97975 1.5 6.75V3C1.5 2.58579 1.83579 2.25 2.25 2.25ZM14.25 10.5C14.6642 10.5 15 10.1642 15 9.75C15 9.33579 14.6642 9 14.25 9C13.8358 9 13.5 9.33579 13.5 9.75C13.5 10.1642 13.8358 10.5 14.25 10.5Z" fill="#7F7F7F"/>
</svg>
