<svg width="28" height="28" viewBox="0 0 28 28" fill="none" xmlns="http://www.w3.org/2000/svg">
<path d="M9.33314 2.80005C8.3018 2.80005 7.46647 3.63538 7.46647 4.66672C5.91994 4.66672 4.66647 5.92018 4.66647 7.46672C4.66647 7.55072 4.68453 7.63068 4.69199 7.71281C4.12266 8.03294 3.73314 8.63432 3.73314 9.33338C3.73314 9.55552 3.77887 9.76624 3.8498 9.96411C3.2142 10.4774 2.7998 11.2532 2.7998 12.1334C2.7998 12.9771 3.18062 13.7255 3.77142 14.2389C3.19462 14.5571 2.7998 15.162 2.7998 15.8667C2.7998 16.898 3.63514 17.7334 4.66647 17.7334C4.66647 19.2799 5.91994 20.5334 7.46647 20.5334H8.3998V24.2667C8.3998 24.7819 8.81794 25.2 9.33314 25.2C9.84834 25.2 10.2665 24.7819 10.2665 24.2667V20.5334C10.2665 19.9631 10.4528 19.4007 10.8243 18.8836L12.1824 17.0607C11.5813 16.5474 11.1998 15.7846 11.1998 14.9334C11.1998 14.2679 11.4384 13.6282 11.8743 13.1196L13.5404 10.8902C13.2418 10.444 13.0665 9.90832 13.0665 9.33338C13.0665 8.83032 13.2093 8.34065 13.4912 7.88052C13.5201 7.83292 13.5524 7.78678 13.586 7.74198L14.6396 6.32557C14.4194 6.14917 14.1764 5.99651 13.9141 5.88078C13.6192 4.65064 12.5205 3.73338 11.1998 3.73338C11.1158 3.73338 11.0358 3.75144 10.9537 3.7589C10.6336 3.18957 10.0322 2.80005 9.33314 2.80005ZM18.6665 4.66672C18.337 4.66672 18.0615 4.84751 17.8954 5.10604L17.8808 5.09692L15.0826 8.85578C14.9958 8.99671 14.9331 9.15512 14.9331 9.33338C14.9331 9.84858 15.3513 10.2667 15.8665 10.2667H16.3331L13.3235 14.299C13.1667 14.4661 13.0665 14.687 13.0665 14.9334C13.0665 15.4486 13.4846 15.8667 13.9998 15.8667H15.3998L12.3209 19.9993C12.2108 20.1523 12.1331 20.3308 12.1331 20.5334C12.1331 21.0486 12.5513 21.4667 13.0665 21.4667H17.7331V24.2667C17.7331 24.7819 18.1513 25.2 18.6665 25.2C19.1817 25.2 19.5998 24.7819 19.5998 24.2667V21.4667H24.2665C24.7817 21.4667 25.1998 21.0486 25.1998 20.5334C25.1998 20.3308 25.1222 20.1523 25.012 19.9993L21.9331 15.8667H23.3331C23.8483 15.8667 24.2665 15.4486 24.2665 14.9334C24.2665 14.687 24.1662 14.4661 24.0094 14.299L20.9998 10.2667H21.4665C21.9817 10.2667 22.3998 9.84858 22.3998 9.33338C22.3998 9.15512 22.3371 8.99671 22.2503 8.85578L19.4521 5.09692L19.4376 5.10604C19.2714 4.84751 18.9959 4.66672 18.6665 4.66672Z" fill="white"/>
</svg>
