<svg width="14" height="14" viewBox="0 0 14 14" fill="none" xmlns="http://www.w3.org/2000/svg">
<path d="M8.0085 2.04748L9.03517 4.10081C9.17517 4.38664 9.5485 4.66081 9.8635 4.71331L11.7243 5.02248C12.9143 5.22081 13.1943 6.08414 12.3368 6.93581L10.8902 8.38248C10.6452 8.62748 10.511 9.09998 10.5868 9.43831L11.001 11.2291C11.3277 12.6466 10.5752 13.195 9.321 12.4541L7.57684 11.4216C7.26184 11.235 6.74267 11.235 6.42184 11.4216L4.67767 12.4541C3.42934 13.195 2.671 12.6408 2.99767 11.2291L3.41184 9.43831C3.48767 9.09998 3.3535 8.62748 3.1085 8.38248L1.66184 6.93581C0.81017 6.08414 1.08434 5.22081 2.27434 5.02248L4.13517 4.71331C4.44434 4.66081 4.81767 4.38664 4.95767 4.10081L5.98434 2.04748C6.54434 0.933311 7.45434 0.933311 8.0085 2.04748Z" fill="#7F7F7F"/>
</svg>
