<svg width="28" height="28" viewBox="0 0 28 28" fill="none" xmlns="http://www.w3.org/2000/svg">
<path d="M17.5363 1.02809C17.3191 1.03146 17.1099 1.11049 16.9447 1.25156C16.7795 1.39262 16.6687 1.58689 16.6313 1.80088C16.594 2.01488 16.6324 2.2352 16.7401 2.42389C16.8477 2.61259 17.0178 2.75783 17.221 2.8346C20.8536 4.25423 23.7456 7.14625 25.1652 10.7789C25.2099 10.8931 25.2766 10.9973 25.3615 11.0857C25.4465 11.1742 25.548 11.245 25.6603 11.2941C25.7726 11.3433 25.8935 11.3699 26.0161 11.3723C26.1387 11.3748 26.2606 11.3531 26.3748 11.3084C26.4889 11.2638 26.5932 11.1971 26.6816 11.1121C26.77 11.0272 26.8409 10.9257 26.89 10.8133C26.9392 10.701 26.9658 10.5801 26.9682 10.4576C26.9707 10.335 26.949 10.2131 26.9043 10.0989C25.2943 5.97927 22.0206 2.7055 17.9009 1.09554C17.7851 1.0489 17.6612 1.02597 17.5363 1.02809ZM16.8783 4.81793C16.6689 4.82675 16.4685 4.90578 16.3095 5.0423C16.1505 5.17882 16.042 5.36489 16.0016 5.57054C15.9612 5.77619 15.9912 5.98946 16.0867 6.17601C16.1822 6.36255 16.3378 6.51152 16.5283 6.59892C18.6607 7.61252 20.3873 9.33917 21.4009 11.4716C21.4507 11.5868 21.5231 11.6907 21.614 11.7773C21.7048 11.8638 21.8122 11.9311 21.9296 11.9753C22.0471 12.0194 22.1722 12.0394 22.2975 12.034C22.4229 12.0287 22.5459 11.9981 22.6591 11.9442C22.7724 11.8903 22.8737 11.814 22.9568 11.7201C23.04 11.6261 23.1033 11.5164 23.1431 11.3974C23.1829 11.2784 23.1983 11.1526 23.1883 11.0276C23.1784 10.9025 23.1434 10.7807 23.0853 10.6695C21.8869 8.1483 19.8515 6.11295 17.3304 4.91455C17.1901 4.84494 17.0347 4.81172 16.8783 4.81793ZM11.1999 7.46663L9.93478 9.36429C9.56331 9.92149 9.51851 10.6354 9.81811 11.2346L10.2666 12.1333L4.18348 19.075C3.89321 19.4138 3.73322 19.8447 3.73322 20.2908V22.9468L2.13999 24.5401C2.05041 24.6261 1.9789 24.7291 1.92963 24.8431C1.88037 24.9571 1.85434 25.0797 1.85308 25.2039C1.85181 25.3281 1.87534 25.4512 1.92227 25.5662C1.96921 25.6812 2.03861 25.7856 2.12642 25.8734C2.21423 25.9612 2.31867 26.0306 2.43364 26.0776C2.5486 26.1245 2.67178 26.148 2.79595 26.1468C2.92012 26.1455 3.04279 26.1195 3.15678 26.0702C3.27077 26.0209 3.37378 25.9494 3.45978 25.8599L5.05301 24.2666H7.709C8.1542 24.2666 8.58608 24.1066 8.92488 23.8164L15.8666 17.7333L16.7652 18.1817C17.3644 18.4813 18.0784 18.4365 18.6356 18.0651L20.5332 16.8C20.5332 16.8 20.5332 13.0666 17.7332 10.2666C14.9332 7.46663 11.1999 7.46663 11.1999 7.46663ZM13.0666 14C13.3054 14 13.5444 14.0909 13.7264 14.2734C14.0914 14.6374 14.0914 15.2292 13.7264 15.5932L12.7931 16.5265C12.4282 16.8915 11.8373 16.8915 11.4733 16.5265C11.1084 16.1616 11.1084 15.5707 11.4733 15.2067L12.4067 14.2734C12.5891 14.0909 12.8277 14 13.0666 14Z" fill="white"/>
</svg>
