<svg width="20" height="20" viewBox="0 0 20 20" fill="none" xmlns="http://www.w3.org/2000/svg">
<path d="M17.0834 8.49165H14.675C12.7 8.49165 11.0917 6.88332 11.0917 4.90832V2.49999C11.0917 2.04166 10.7167 1.66666 10.2584 1.66666H6.72504C4.15837 1.66666 2.08337 3.33332 2.08337 6.30832V13.6917C2.08337 16.6667 4.15837 18.3333 6.72504 18.3333H13.275C15.8417 18.3333 17.9167 16.6667 17.9167 13.6917V9.32499C17.9167 8.86665 17.5417 8.49165 17.0834 8.49165ZM9.60837 11.275C9.48337 11.4 9.32504 11.4583 9.16671 11.4583C9.00837 11.4583 8.85004 11.4 8.72504 11.275L8.12504 10.675V14.1667C8.12504 14.5083 7.84171 14.7917 7.50004 14.7917C7.15837 14.7917 6.87504 14.5083 6.87504 14.1667V10.675L6.27504 11.275C6.03337 11.5167 5.63337 11.5167 5.39171 11.275C5.15004 11.0333 5.15004 10.6333 5.39171 10.3917L7.05837 8.72499C7.11671 8.67499 7.17504 8.63332 7.24171 8.59999C7.25837 8.59166 7.28337 8.58332 7.30004 8.57499C7.35004 8.55832 7.40004 8.54999 7.45837 8.54166C7.48337 8.54166 7.50004 8.54166 7.52504 8.54166C7.59171 8.54166 7.65838 8.55832 7.72504 8.58332C7.73338 8.58332 7.73337 8.58332 7.74171 8.58332C7.80837 8.60832 7.87504 8.65832 7.92504 8.70832C7.93337 8.71666 7.94171 8.71666 7.94171 8.72499L9.60837 10.3917C9.85004 10.6333 9.85004 11.0333 9.60837 11.275Z" fill="#FF69B4"/>
<path d="M14.5249 7.34167C15.3166 7.35001 16.4166 7.35 17.3583 7.35C17.8333 7.35 18.0833 6.79167 17.7499 6.45834C16.5499 5.25 14.3999 3.075 13.1666 1.84167C12.8249 1.5 12.2333 1.73334 12.2333 2.20834V5.11667C12.2333 6.33334 13.2666 7.34167 14.5249 7.34167Z" fill="#FF69B4"/>
</svg>
