<svg width="230" height="230" viewBox="0 0 230 230" fill="none" xmlns="http://www.w3.org/2000/svg">
<path d="M132.537 5.86708C131.235 5.66967 129.615 5.61151 127.674 5.69288C125.501 5.82067 123.869 5.89058 122.777 5.90204C120.381 5.90204 118.051 5.66394 115.788 5.18747C115.909 4.80899 115.979 4.40213 115.997 3.96749C116.055 2.58477 115.596 1.50433 114.62 0.72587C113.656 -0.06405 112.5 -0.209312 111.152 0.290369C109.804 0.80151 109.072 1.6728 108.956 2.90424C106.129 3.26267 103.724 4.93018 101.74 7.9062C100.098 10.3831 98.6567 13.0205 97.4184 15.8189C94.6879 21.9769 93.2064 28.3441 92.974 34.9205C92.9044 36.8026 93.1193 38.226 93.619 39.1904C93.9674 39.8758 94.467 40.4104 95.1177 40.7937C95.8033 41.2003 96.483 41.3049 97.1568 41.1075C98.1098 40.8634 98.9054 40.0967 99.5447 38.8071C99.8816 38.1329 100.451 36.4657 101.253 33.8051C101.88 31.7135 102.635 30.1684 103.518 29.169C104.541 28.0304 105.9 27.2112 107.597 26.7116C109.061 26.2818 110.693 26.1133 112.494 26.2062C113.517 26.2643 115.132 26.4617 117.339 26.7987C119.43 27.1241 121.04 27.3041 122.167 27.339C124.932 27.4087 127.633 26.9093 130.271 25.8403C132.908 24.7595 135.186 23.2258 137.103 21.2391C137.27 21.0667 137.432 20.8925 137.591 20.7163C138.767 19.3897 139.626 17.972 140.17 16.4638C140.856 14.5233 140.879 12.734 140.24 11.0957C139.694 9.65509 138.666 8.46405 137.155 7.52285C135.819 6.67476 134.279 6.12294 132.537 5.86708ZM174.47 111.414C174.051 111.425 172.738 111.257 170.531 110.908C168.38 110.693 166.248 110.734 164.134 111.03C162.479 111.269 160.835 111.664 159.202 112.215C158.365 112.46 157.854 112.825 157.668 113.313C157.541 113.65 157.576 113.999 157.773 114.359C157.947 114.696 158.203 114.969 158.54 115.178C159.051 115.503 159.922 115.73 161.154 115.858C161.289 115.873 161.417 115.891 161.537 115.91C162.579 116.049 163.323 116.258 163.768 116.538C164.477 116.991 164.989 117.752 165.302 118.821C165.465 119.367 165.622 120.331 165.773 121.714C166.155 126.074 167.404 130.239 169.52 134.21C169.597 134.343 169.672 134.476 169.746 134.611C170.141 135.436 170.589 135.947 171.088 136.145C171.774 136.424 172.459 136.255 173.145 135.639C173.738 135.093 174.173 134.39 174.452 133.53C174.982 131.761 175.133 129.67 174.905 127.256C174.856 126.712 174.787 126.149 174.696 125.566C173.917 121.976 173.383 119.286 173.093 117.496C172.93 116.555 173.034 115.899 173.406 115.527C173.697 115.248 174.22 115.126 174.975 115.161C175.8 115.207 176.363 115.143 176.665 114.969C177.211 114.679 177.432 114.162 177.328 113.418C177.223 112.698 176.886 112.169 176.317 111.832C175.817 111.542 175.201 111.402 174.47 111.414ZM0.586074 76.0166C0.109601 76.5859 -0.0763446 77.1959 0.0282331 77.8466C0.144558 78.4973 0.522178 79.0084 1.1611 79.3803C1.80032 79.7405 2.42779 79.8101 3.04351 79.5895C3.43861 79.4385 4.03112 78.9795 4.82104 78.2125C5.50667 77.5504 6.11666 77.1959 6.65101 77.1495C7.11602 77.1263 7.56327 77.283 7.99304 77.62C8.41135 77.9337 8.71935 78.3288 8.91676 78.805C9.06775 79.2001 9.18408 79.6823 9.26545 80.2516C9.28866 80.4493 9.33507 80.9547 9.40498 81.7678C9.60239 83.9408 10.1774 86.0381 11.1304 88.0597C12.0945 90.0696 13.3612 91.8357 14.9295 93.3579C15.9057 94.3106 16.7945 94.7289 17.5961 94.6129C18.4909 94.5083 19.2576 93.8109 19.8968 92.5213C19.9544 92.4093 20.0066 92.2929 20.0536 92.1726C21.0704 90.0848 21.634 87.6855 21.7443 84.9748C21.8371 82.6394 21.599 80.0135 21.0297 77.0971C20.9134 76.5163 20.8552 76.0748 20.8552 75.7725C20.867 75.2846 21.0005 74.8838 21.2561 74.57C21.593 74.1749 22.1159 73.995 22.8247 74.0297C23.1385 74.0414 23.7599 74.1517 24.6897 74.3609C25.3518 74.5119 25.9735 74.4655 26.5543 74.2214C27.2167 73.9543 27.5247 73.536 27.478 72.9667C27.4548 72.4788 27.0657 72.0255 26.3105 71.6072C25.3343 71.0843 24.1608 70.7359 22.7898 70.5614C21.8953 70.4454 20.6403 70.3872 19.0253 70.3872C16.5704 70.3872 14.5253 70.4511 12.8904 70.5789C12.2833 70.6368 11.7312 70.7007 11.2349 70.7706C8.37668 71.1774 5.97713 71.9966 4.03685 73.228C2.22436 74.5176 1.07401 75.4473 0.586074 76.0166ZM37.5169 155.542C36.282 155.381 35.1202 155.311 34.0312 155.333C33.4848 155.344 32.4914 155.571 31.0508 156.013C30.1099 156.64 29.2908 157.407 28.5934 158.314C27.8731 159.232 27.327 160.219 26.9551 161.276C26.8508 161.567 26.8041 161.84 26.8159 162.096C26.8273 162.398 26.9319 162.618 27.1296 162.758C27.3966 162.897 27.6814 162.874 27.9834 162.688C28.2275 162.526 28.4367 162.287 28.6109 161.974C28.8782 161.544 29.0642 161.271 29.1687 161.154C29.4011 160.876 29.6509 160.73 29.918 160.719C30.3363 160.719 30.7603 161.079 31.1904 161.799C31.5276 162.426 31.8531 163.048 32.1662 163.664C33.0794 165.437 33.8985 167.157 34.6237 168.823C34.8328 169.253 34.9492 169.497 34.9724 169.555C35.1234 169.822 35.2861 170.043 35.4603 170.217C35.6927 170.403 35.9425 170.531 36.2098 170.601C36.5003 170.67 36.7559 170.641 36.9765 170.513C37.3716 170.328 37.6215 169.938 37.726 169.346C37.9467 168.416 37.8481 167.283 37.4298 165.947C36.872 164.448 36.4886 163.327 36.2794 162.583C36.0353 161.782 36.0064 161.102 36.1923 160.544C36.3897 160.08 36.7384 159.714 37.2381 159.446C37.7143 159.191 38.2372 159.063 38.8065 159.063C39.2248 159.04 39.7477 159.086 40.3752 159.202C41.3628 159.388 41.8857 159.487 41.9438 159.499C42.6177 159.638 43.216 159.609 43.7388 159.411C44.0176 159.295 44.25 159.115 44.4359 158.871C44.6219 158.604 44.709 158.331 44.6975 158.052C44.6276 157.262 43.913 156.739 42.5538 156.484C40.3926 156.007 38.7137 155.693 37.5169 155.542ZM53.272 179.803C53.2144 179.702 53.0345 179.441 52.7317 179.019C51.6065 179.285 50.6888 179.569 49.9783 179.873C48.5606 180.465 47.5091 181.267 46.8237 182.278C45.9639 183.544 45.5863 185.316 45.6909 187.593C45.7542 188.646 45.8994 189.685 46.1266 190.713C46.3722 191.76 46.7031 192.794 47.12 193.815C47.9334 195.814 49.0253 197.632 50.3966 199.27C50.6172 199.514 50.7857 199.683 50.902 199.776C51.1111 199.95 51.3203 200.043 51.5294 200.055C52.0174 200.136 52.4182 199.904 52.7317 199.358C53.0107 198.881 53.1328 198.347 53.0978 197.754C53.0718 196.933 52.8801 195.922 52.5228 194.722C52.2469 193.786 51.8693 192.735 51.3899 191.567C50.2745 188.848 49.682 186.786 49.6121 185.38C49.6121 184.857 49.6877 184.491 49.8387 184.282C50.0364 183.968 50.4487 183.782 51.0762 183.724C51.8893 183.655 52.4065 183.568 52.6274 183.463C53.2428 183.219 53.5972 182.696 53.6903 181.894C53.7717 181.162 53.6325 180.465 53.272 179.803ZM31.2253 177.101C30.1796 177.101 29.3954 177.287 28.8725 177.659C28.1172 178.217 27.7396 179.263 27.7396 180.796C27.786 182.028 28.0184 183.306 28.4367 184.63C29.2266 187.291 30.4641 189.197 32.149 190.347C32.6252 190.719 33.0725 190.864 33.4908 190.783C33.7467 190.736 33.973 190.608 34.1707 190.399C34.3566 190.202 34.4959 189.964 34.589 189.685C34.8214 189.046 34.8503 188.302 34.6761 187.454C34.5598 186.85 34.3099 186.112 33.9266 185.24C33.4851 184.299 33.1945 183.579 33.0553 183.079C32.8112 182.254 32.753 181.511 32.8808 180.848C34.4704 180.879 36.0391 181.128 37.5865 181.598C36.6253 180.156 35.7889 178.675 35.0769 177.154C33.6982 177.067 32.4144 177.049 31.2253 177.101Z" fill="#2D3F58"/>
<path d="M91.1442 198.066C88.6699 197.951 85.887 198.009 82.7961 198.241C79.3568 198.531 76.7776 198.729 75.0579 198.833C72.0951 199.019 69.5273 199.037 67.3544 198.885C62.1711 198.505 57.227 197.116 52.523 194.72C52.8803 195.92 53.072 196.931 53.098 197.753C53.133 198.345 53.0109 198.88 52.7319 199.356C52.4184 199.902 52.0176 200.135 51.5296 200.053C51.3205 200.041 51.1113 199.949 50.9022 199.774C50.7858 199.681 50.6174 199.513 50.3968 199.269C49.0255 197.631 47.9336 195.812 47.1202 193.814C46.7033 192.793 46.3724 191.759 46.1268 190.711C43.1852 188.451 40.6175 185.813 38.4233 182.799C38.134 182.401 37.8552 182 37.5867 181.597C36.0392 181.127 34.4706 180.877 32.881 180.847C32.7532 181.509 32.8114 182.253 33.0555 183.078C33.1947 183.578 33.4853 184.298 33.9268 185.239C34.3101 186.111 34.56 186.848 34.6763 187.452C34.8505 188.301 34.8216 189.044 34.5892 189.683C34.4961 189.962 34.3568 190.2 34.1709 190.398C33.9732 190.607 33.7469 190.735 33.491 190.781C33.0727 190.863 32.6254 190.717 32.1492 190.346C30.4643 189.195 29.2268 187.29 28.4369 184.629C28.0186 183.304 27.7862 182.026 27.7398 180.795C27.7398 179.261 28.1174 178.215 28.8727 177.658C29.3956 177.286 30.1797 177.1 31.2255 177.1C32.4146 177.048 33.6984 177.065 35.0771 177.152C34.0726 175.001 33.3174 172.77 32.8114 170.46C32.304 168.124 32.0891 165.859 32.1664 163.663C31.8533 163.046 31.5278 162.425 31.1906 161.798C30.7605 161.078 30.3365 160.717 29.9182 160.717C29.6511 160.729 29.4013 160.874 29.1689 161.153C29.0644 161.269 28.8784 161.542 28.6111 161.972C28.4369 162.286 28.2277 162.524 27.9836 162.687C27.6816 162.873 27.3968 162.896 27.1298 162.756C26.9321 162.617 26.8275 162.396 26.8161 162.094C26.8043 161.839 26.851 161.565 26.9553 161.275C27.3272 160.218 27.8733 159.23 28.5936 158.312C29.291 157.406 30.1101 156.639 31.051 156.012C32.4916 155.57 33.485 155.343 34.0314 155.332C35.6109 151.789 38.1208 148.884 41.5604 146.618C42.9339 145.714 44.3166 145.011 45.7085 144.509C45.2822 144.139 44.8117 143.715 44.2966 143.237C42.9024 141.958 41.8973 140.913 41.2816 140.1C40.3057 138.833 39.7422 137.572 39.5912 136.318C39.5215 135.662 39.5505 135.012 39.6783 134.366C32.7165 134.317 25.9425 135.787 19.3567 138.775C19.0879 138.893 18.8206 139.015 18.555 139.141C15.6168 140.528 12.8863 142.137 10.3636 143.969C11.4586 166.977 20.3005 186.776 36.8896 203.364C43.7614 210.236 51.1801 215.779 59.1458 219.991C63.9721 218.406 69.0147 217.343 74.2737 216.802C84.9979 215.698 95.2806 216.901 105.122 220.409C110.189 222.204 115.453 224.743 120.912 228.026C132.191 225.661 142.595 221.176 152.126 214.571C146.777 215.309 140.77 215.065 134.105 213.839C129.2 213.418 124.478 212.652 119.936 211.538C116.859 210.795 113.868 209.889 110.96 208.82C109.474 208.282 108.01 207.702 106.568 207.077C100.96 204.655 95.8184 201.652 91.1442 198.066ZM59.0761 144.195C58.8349 144.592 58.5618 144.958 58.257 145.293C60.1758 146.238 62.0347 147.568 63.834 149.284C64.7322 150.137 65.6385 151.113 66.5527 152.212C66.4562 149.217 66.5665 146.191 66.8839 143.132C66.0694 142.572 65.2328 142.032 64.3744 141.511C62.9008 140.619 61.4078 139.811 59.8953 139.089C60.0483 139.745 60.1062 140.401 60.0695 141.058C60.0113 142.162 59.6801 143.207 59.0761 144.195Z" fill="#BDD752"/>
<path d="M109.899 121.94C108.121 120.929 106.181 120.232 104.078 119.848C101.89 119.469 99.5717 119.434 97.124 119.744C98.4938 122.312 100.277 124.654 102.474 126.767C105.228 129.417 108.569 131.7 112.496 133.617C114.242 134.469 116.119 135.253 118.125 135.97C117.883 134.278 117.581 132.809 117.219 131.56C116.58 129.341 115.685 127.471 114.535 125.948C113.338 124.345 111.793 123.009 109.899 121.94ZM58.2586 145.294C56.9627 144.651 55.6382 144.186 54.2847 143.9C51.386 143.286 48.5278 143.489 45.7102 144.51C46.25 144.969 46.7207 145.34 47.1218 145.625C48.2372 146.427 49.3177 146.984 50.3635 147.298C51.4324 147.624 52.5304 147.722 53.6572 147.594C54.7958 147.467 55.8301 147.118 56.7596 146.549C57.3246 146.197 57.8243 145.779 58.2586 145.294Z" fill="#692C91"/>
<path d="M129.351 144.714C130.221 142.958 130.999 141.361 131.687 139.921C129.957 139.399 127.406 138.691 124.036 137.795C121.956 137.243 119.986 136.633 118.127 135.965C118.218 136.561 118.299 137.182 118.371 137.83C118.816 141.798 118.996 145.824 118.912 149.907C118.146 149.911 117.385 149.882 116.628 149.82C114.212 149.611 111.964 149.059 109.884 148.164C107.281 147.073 104.893 145.434 102.721 143.25C100.722 141.228 99.0141 138.858 97.5967 136.139C96.3071 133.711 95.2556 130.992 94.4422 127.982C93.8462 125.76 93.3523 123.297 92.9609 120.593C94.392 120.206 95.7805 119.921 97.1262 119.739C96.5856 118.732 96.1091 117.686 95.6971 116.602C94.9843 114.74 94.5138 112.899 94.2855 111.077C94.1923 111.142 94.0992 111.206 94.0064 111.269C91.1599 113.209 88.7895 115.719 86.8957 118.798C85.0021 121.889 84.1073 126.711 84.2116 133.263C84.3153 139.815 88.3646 146.507 96.3592 153.341C97.9629 154.081 99.1307 154.65 99.8625 155.049C102.302 156.362 104.33 157.89 105.945 159.632C107.792 161.643 108.943 163.804 109.396 166.116C109.756 167.952 109.675 169.968 109.152 172.163C108.933 173.073 108.579 174.182 108.089 175.492C111.877 185.188 118.447 190.916 127.8 192.677C127.704 191.83 127.728 190.993 127.87 190.167C128.415 187.056 130.117 183.698 132.976 180.094C129.572 177.942 127.161 174.619 125.744 170.124C124.326 165.605 124.163 160.899 125.256 156.007C125.964 152.812 127.33 149.048 129.351 144.714ZM163.546 144.662C163.355 144.315 163.169 143.972 162.988 143.633C161.536 146.887 160.647 151.598 160.322 157.768C160.101 161.939 159.961 164.385 159.903 165.105C159.659 167.87 159.264 170.27 158.718 172.303C157.719 175.998 155.889 179.379 153.228 182.446C153.215 182.462 153.197 182.474 153.176 182.481C153.583 182.463 154.007 182.44 154.448 182.411C158.492 182.214 162.012 182.562 165.01 183.457C168.33 184.45 170.962 186.111 172.905 188.442C173.211 187.378 173.478 186.309 173.707 185.235C174.049 183.6 174.299 181.956 174.456 180.302C174.462 180.248 174.468 180.19 174.474 180.128C174.733 177.302 174.721 174.45 174.439 171.571C174.173 168.916 173.685 166.331 172.975 163.815C172.444 161.942 171.787 160.106 171.005 158.308C170.18 156.402 168.995 154.102 167.45 151.406C165.684 148.409 164.382 146.16 163.546 144.662ZM106.572 207.073C108.013 207.698 109.478 208.278 110.964 208.816C106.959 202.516 100.353 198.932 91.1481 198.062C95.8223 201.647 100.964 204.651 106.572 207.073ZM46.3399 108.48C45.5494 108.245 44.8173 107.949 44.1438 107.591C43.6034 110.028 43.0805 112.746 42.5751 115.748C42.4559 116.527 42.3338 117.323 42.2092 118.135C42.0814 118.949 42.1975 119.489 42.5579 119.756C42.7203 119.896 42.9355 119.954 43.2025 119.931C43.4349 119.896 43.6441 119.808 43.83 119.669C44.0741 119.448 44.3179 119.071 44.5621 118.536C44.8546 117.887 45.1276 117.201 45.3812 116.48C45.8101 115.258 46.182 113.933 46.4966 112.506C46.7201 111.465 46.9467 110.193 47.1762 108.689C46.898 108.633 46.6192 108.563 46.3399 108.48ZM28.2666 112.872C28.8591 111.362 29.6897 108.98 30.7587 105.727C31.0245 104.921 31.2277 104.259 31.3687 103.74C31.2245 103.748 31.0735 103.748 30.9157 103.74C30.3346 103.716 29.7596 103.577 29.1903 103.321C28.7846 103.158 28.4012 102.955 28.0399 102.711L25.2688 111.077C25.0946 111.646 24.99 112.018 24.955 112.192C24.8737 112.611 24.8622 112.982 24.9201 113.308C24.9808 113.671 25.1086 113.979 25.3037 114.231C25.3398 114.276 25.3748 114.317 25.4083 114.353C25.6985 114.667 26.0297 114.824 26.4016 114.824C26.8311 114.824 27.2205 114.603 27.5692 114.162C27.823 113.851 28.0554 113.421 28.2666 112.872Z" fill="white"/>
<path d="M206.737 68.8996C206.643 70.5843 206.818 72.2109 207.259 73.7795C207.723 75.5106 208.508 76.5447 209.611 76.8816C210.147 77.0444 210.72 77.0269 211.336 76.8295C211.883 76.6318 212.399 76.3123 212.889 75.8708C213.104 75.6785 213.347 75.4227 213.619 75.1041C213.757 74.9476 213.903 74.7735 214.055 74.5812C214.562 73.9474 215.298 73.0819 216.27 71.9842C216.158 71.4058 215.972 70.9175 215.711 70.5204C215.422 70.0672 214.914 69.556 214.195 68.9867C214.118 68.9225 214.043 68.8644 213.969 68.8122C213.857 68.9672 213.74 69.1297 213.619 69.3005C213.453 69.5434 213.29 69.77 213.132 69.9801C210.499 72.1845 208.368 71.8244 206.737 68.8996ZM31.4583 25.9385C29.1461 25.1947 26.7411 25.2936 24.243 26.2348C21.803 27.141 19.8628 28.6283 18.4219 30.6964C17.0392 32.6716 16.2143 34.9606 15.947 37.5633C15.6914 40.0496 15.9644 42.4953 16.7661 44.9006C17.5214 47.1546 18.7067 49.304 20.3218 51.3492C21.0272 52.2506 21.8056 53.1161 22.6571 53.9459C23.431 53.1921 24.2444 52.4543 25.0971 51.7325C30.0303 47.5414 35.6133 44.3869 41.8458 42.269C41.4058 39.864 40.9642 37.9526 40.5213 36.535C39.7079 34.0369 38.5807 31.8814 37.1401 30.0689C35.5018 28.0123 33.608 26.6356 31.4583 25.9385ZM154.207 50.9655C162.045 50.3874 169.714 50.6372 177.212 51.7151C179.656 52.0741 182.079 52.5156 184.48 53.0396C182.774 50.8899 180.874 48.9496 178.781 47.2185C175.469 44.4634 171.682 42.2443 167.418 40.5608C161.265 38.136 155.078 37.1891 148.856 37.72C149.826 40.7247 150.384 43.8385 150.529 47.0618C150.596 48.5179 150.573 49.9295 150.46 51.2968C151.702 51.1687 152.951 51.0584 154.207 50.9655ZM133.903 140.635C133.445 140.46 132.707 140.221 131.689 139.92C131.002 141.36 130.223 142.958 129.354 144.713C127.332 149.047 125.967 152.812 125.258 156.007C124.166 160.898 124.329 165.604 125.746 170.124C127.163 174.619 129.574 177.942 132.979 180.093C133.051 180.014 133.12 179.932 133.188 179.849C133.688 179.221 135 177.688 137.127 175.248C138.765 173.365 140.026 171.803 140.909 170.559C143.628 166.714 145.179 162.571 145.562 158.133C145.981 153.276 144.836 149.239 142.129 146.02C140.235 143.789 137.493 141.994 133.903 140.635ZM102.479 126.762C100.282 124.648 98.4986 122.307 97.1288 119.738C95.783 119.92 94.3946 120.205 92.9634 120.592C93.3548 123.296 93.8488 125.76 94.4447 127.982C95.2581 130.991 96.3096 133.71 97.5992 136.138C99.0166 138.857 100.725 141.228 102.723 143.249C104.896 145.434 107.284 147.072 109.886 148.164C111.966 149.059 114.214 149.61 116.631 149.82C117.387 149.881 118.148 149.91 118.914 149.907C118.999 145.824 118.819 141.797 118.374 137.829C118.302 137.182 118.22 136.56 118.13 135.964C116.124 135.247 114.247 134.463 112.501 133.611C108.573 131.694 105.233 129.411 102.479 126.762ZM181.569 138.787C181.763 140.034 182.018 141.312 182.336 142.622C182.871 144.76 183.882 147.966 185.369 152.242C186.575 155.716 187.464 158.51 188.035 160.625C188.604 160.487 189.196 160.365 189.813 160.259C191.222 160.032 192.755 159.916 194.414 159.911C195.927 159.911 197.996 159.992 200.617 160.155C200.895 159.706 201.173 159.235 201.454 158.743C203.176 155.71 204.574 153.578 205.654 152.347C206.958 150.871 208.491 149.628 210.256 148.617C212.012 147.606 213.857 146.915 215.8 146.543C217.169 146.264 218.476 146.189 219.719 146.317C220.304 146.38 220.857 146.485 221.375 146.63C221.304 146.137 221.198 145.631 221.063 145.114C220.272 142.186 218.751 139.572 216.496 137.271C212.826 133.542 208.207 131.328 202.64 130.631C198.778 130.146 195.177 130.483 191.836 131.642C190.382 132.153 188.976 132.821 187.617 133.646C185.386 134.996 183.37 136.709 181.569 138.787ZM47.0045 128.33C46.8937 128.313 46.7833 128.295 46.6733 128.278C45.331 128.478 44.1342 128.902 43.083 129.55C41.9329 130.259 41.0324 131.229 40.3818 132.461C40.05 133.09 39.8176 133.723 39.6847 134.361C39.5569 135.007 39.5279 135.657 39.5976 136.313C39.7486 137.567 40.3121 138.828 41.288 140.095C41.9037 140.908 42.9088 141.954 44.303 143.232C44.8181 143.71 45.2886 144.135 45.7149 144.504C48.5325 143.483 51.3908 143.28 54.2894 143.894C55.6429 144.181 56.9675 144.645 58.2634 145.288C58.5682 144.953 58.8413 144.588 59.0825 144.19C59.6865 143.203 60.0177 142.157 60.0759 141.053C60.1126 140.396 60.0547 139.74 59.9017 139.084C59.433 137.036 58.056 134.98 55.771 132.914C52.9477 130.381 50.0255 128.853 47.0045 128.33Z" fill="#F8981C"/>
<path d="M205.603 63.5763C201.99 63.3204 198.678 64.0178 195.669 65.6675C192.068 67.666 188.825 71.1806 185.944 76.2118C185.107 77.6756 183.951 79.9067 182.476 82.9042C180.977 85.9484 179.826 88.1792 179.025 89.5969C178.826 89.9465 178.611 90.3066 178.38 90.6774C177.177 92.683 175.586 95.0358 173.605 97.7359C175.832 100.586 177.389 103.979 178.275 107.914C179.693 114.142 179.013 119.87 176.236 125.099C175.902 125.725 175.461 126.439 174.912 127.242C175.139 129.656 174.988 131.747 174.459 133.516C174.18 134.376 173.744 135.079 173.151 135.625C172.466 136.241 171.78 136.41 171.095 136.131C170.595 135.933 170.148 135.422 169.753 134.597C169.679 134.462 169.603 134.329 169.526 134.196C169.505 134.224 169.482 134.253 169.457 134.283C166.25 138.071 164.095 141.185 162.991 143.625C163.172 143.964 163.358 144.307 163.548 144.653C164.385 146.152 165.686 148.4 167.452 151.398C168.998 154.094 170.183 156.394 171.008 158.3C171.79 160.098 172.446 161.934 172.977 163.807C173.036 162.525 173.123 161.299 173.239 160.13C173.622 156.423 174.319 153.042 175.33 149.986C176.492 146.535 178.072 143.439 180.071 140.697C180.556 140.028 181.055 139.389 181.569 138.78C181.256 136.618 181.14 134.556 181.221 132.593C181.36 128.968 182.185 125.79 183.696 123.059C185.02 120.66 186.948 118.464 189.482 116.471C191.328 115.028 193.495 113.692 195.982 112.463C196.755 112.076 197.675 111.635 198.735 111.138C197.824 110.598 197.082 110.156 196.506 109.814C194.985 108.907 193.641 107.856 192.48 106.659C191.236 105.381 190.254 103.993 189.534 102.494C188.791 100.902 188.384 99.2404 188.314 97.5093C188.245 95.7083 188.564 94.041 189.273 92.5073C190.191 90.4739 191.718 88.8649 193.856 87.6795C195.936 86.5177 198.139 85.9949 200.463 86.1112C202.242 86.2126 203.961 86.6656 205.62 87.4704C208.588 91.9641 210.545 96.693 211.493 101.657C211.688 102.664 211.834 103.669 211.929 104.672C213.118 103.894 214.164 103.104 215.066 102.302C215.078 102.289 215.089 102.278 215.101 102.267C216.877 100.689 218.37 98.888 219.582 96.8643C220.516 95.3232 221.281 93.6502 221.882 91.8452C223.166 87.9835 223.484 84.1437 222.839 80.3247C222.484 80.5846 222.132 80.782 221.776 80.9175C220.453 81.4404 219.063 81.3298 217.611 80.5863C216.252 79.8892 215.212 78.8552 214.49 77.4839C214.124 76.7745 213.831 75.9786 213.619 75.0964C213.347 75.415 213.104 75.6709 212.889 75.8631C212.399 76.3047 211.883 76.6241 211.336 76.8218C210.72 77.0192 210.147 77.0367 209.611 76.874C208.508 76.537 207.723 75.503 207.259 73.7719C206.818 72.2032 206.643 70.5767 206.737 68.892C208.368 71.8167 210.499 72.1768 213.132 69.9724C213.29 69.7624 213.453 69.5358 213.619 69.2928C213.74 69.122 213.857 68.9596 213.969 68.8046C214.488 68.0903 214.923 67.5385 215.275 67.1491C215.235 67.1219 215.195 67.0926 215.155 67.0617C212.413 64.9936 209.227 63.8318 205.603 63.5763ZM137.597 20.7023C137.439 20.8785 137.277 21.0527 137.11 21.2252C135.192 23.2119 132.915 24.7456 130.278 25.8263C127.64 26.8953 124.939 27.3947 122.173 27.3251C121.046 27.2901 119.437 27.1102 117.346 26.7847C115.138 26.4477 113.523 26.2503 112.501 26.1922C110.699 26.0993 109.067 26.2678 107.603 26.6976C105.907 27.1973 104.547 28.0164 103.525 29.155C102.642 30.1544 101.887 31.6995 101.259 33.7911C100.457 36.4517 99.8882 38.1189 99.5512 38.7931C98.912 40.0827 98.1164 40.8494 97.1634 41.0935C96.4895 41.2909 95.8099 41.1863 95.1243 40.7798C94.4736 40.3964 93.9739 39.8618 93.6255 39.1764C93.1259 38.212 92.911 36.7886 92.9806 34.9065C93.213 28.3301 94.6945 21.9629 97.425 15.8049C98.6633 13.0065 100.104 10.3691 101.747 7.89222C98.6112 7.9034 95.4392 8.1647 92.2314 8.6767C87.4093 9.45516 83.058 10.7158 79.1775 12.4587C74.7623 14.4454 71.0849 16.9899 68.1453 20.0923C64.5782 23.845 62.1499 28.3476 60.8601 33.5991C60.3753 35.5775 60.085 37.5353 59.9888 39.4727C61.136 39.5102 62.2863 39.5856 63.4395 39.6993C68.5286 40.1755 72.5487 41.4829 75.5001 43.6205C77.689 45.2076 79.5482 47.3977 81.0771 50.1912C81.084 50.2058 81.0897 50.2173 81.0945 50.2258C82.3377 52.5148 83.3775 55.2685 84.2141 58.4872C84.621 60.0092 85.2599 62.937 86.1312 67.2709C86.875 70.9657 87.5895 73.8764 88.2749 76.0027C89.251 79.1165 90.5 81.847 92.0222 84.1938C93.7765 86.9128 95.8389 89.0159 98.2092 90.5032C99.2303 91.1487 100.416 91.724 101.765 92.2285C105.661 88.509 111.04 85.1453 117.903 82.1375C119.623 81.3823 122.231 80.2437 125.729 78.7214C128.796 77.3504 131.358 76.0898 133.415 74.9394C139.05 71.8141 143.244 68.2295 145.998 64.1863C146.732 63.111 147.377 61.9956 147.933 60.8398C149.338 57.9196 150.181 54.7359 150.46 51.2891C145.049 51.8779 139.78 52.8538 134.652 54.217C127.92 56.0057 121.431 58.4631 115.185 61.5893C117.037 57.5251 119.552 53.8362 122.731 50.5224C123.82 49.3984 124.982 48.3177 126.217 47.2805C132.084 42.3542 138.638 39.2925 145.876 38.0957C146.87 37.9344 147.864 37.8066 148.856 37.7123C148.15 35.5365 147.226 33.4163 146.085 31.3511C145.779 30.8079 145.46 30.2676 145.126 29.7301C143.814 27.603 142.332 25.622 140.682 23.7872C139.714 22.7087 138.685 21.6804 137.597 20.7023ZM109.172 94.1107C106.314 93.6462 103.845 93.0188 101.765 92.2285C97.8098 96.0206 95.387 100.18 94.4968 104.707C94.0874 106.799 94.0178 108.919 94.288 111.069C97.2276 109.143 100.347 108.039 103.647 107.757C105.181 107.629 107.075 107.653 109.329 107.827C110.595 107.92 112.495 108.077 115.028 108.297C119.594 108.588 123.178 108.048 125.781 106.677C127.538 105.764 129.374 104.19 131.288 101.953C131.104 101.784 130.913 101.616 130.713 101.448C127.832 99.0198 124.52 97.2769 120.779 96.2197C119.234 95.7664 117.317 95.3599 115.028 94.9997C112.413 94.6161 110.461 94.3198 109.172 94.1107ZM105.355 182.473C103.17 181.547 100.439 180.664 97.1634 179.824C94.2937 179.092 92.2371 178.522 90.9939 178.116C88.7514 177.384 86.8286 176.53 85.2249 175.554C82.4248 173.857 79.7408 171.284 77.173 167.833C76.3364 166.706 74.2569 163.516 70.9336 158.265C69.4535 155.942 67.9954 153.92 66.5591 152.2C66.5752 152.573 66.5926 152.945 66.6116 153.315C66.8786 158.335 67.7212 163.121 69.1386 167.676C71.8341 176.344 76.6212 184.21 83.4996 191.274C85.8928 193.731 88.4431 195.991 91.1506 198.054C100.355 198.924 106.961 202.508 110.967 208.807C113.874 209.876 116.866 210.783 119.942 211.526V211.177C119.946 209.876 119.911 208.621 119.838 207.413C118.868 206.96 117.903 206.478 116.945 205.966C113.343 204.061 110.444 201.894 108.248 199.466C105.587 196.526 104.158 193.406 103.961 190.106C103.844 188.294 104.129 186.267 104.814 184.024C104.94 183.617 105.12 183.1 105.355 182.473ZM120.919 228.013C115.459 224.731 110.196 222.192 105.128 220.397C95.287 216.888 85.0043 215.686 74.2801 216.789C69.0211 217.331 63.9785 218.394 59.1521 219.979C71.788 226.66 85.8003 230 101.19 230C108.037 230 114.614 229.338 120.919 228.013ZM178.955 166.944C177.285 169.398 175.792 173.79 174.476 180.12C174.471 180.182 174.465 180.24 174.459 180.294C174.301 181.947 174.052 183.591 173.709 185.226C173.481 186.301 173.213 187.37 172.907 188.433C170.965 186.103 168.333 184.441 165.012 183.449C162.015 182.554 158.494 182.205 154.451 182.403C154.01 182.432 153.586 182.455 153.178 182.473C150.638 185.399 147.594 187.769 144.046 189.583C140.456 191.408 136.743 192.471 132.909 192.773C131.161 192.904 129.458 192.869 127.803 192.668C128.212 196.242 130.745 200 135.402 203.945C136.605 204.958 138.011 205.87 139.619 206.681C141.045 205.179 142.567 203.773 144.185 202.463C144.41 202.281 144.637 202.101 144.865 201.923C149.896 198.007 155.584 195.225 161.928 193.575C165.19 192.732 168.444 192.233 171.687 192.076C172.815 192.031 173.942 192.025 175.069 192.058C175.117 192.06 175.163 192.06 175.208 192.058C177.095 192.123 178.977 192.303 180.855 192.599C181.943 192.766 183.058 192.975 184.201 193.226C186.128 190.261 187.517 187.49 188.366 184.913C188.762 183.707 189.041 182.546 189.203 181.427C189.748 177.619 189.887 173.848 189.621 170.116C189.479 168.11 189.218 166.112 188.837 164.121C188.693 163.36 188.53 162.598 188.349 161.837C188.258 161.461 188.154 161.055 188.035 160.617C187.087 160.862 186.204 161.164 185.386 161.524C182.784 162.651 180.64 164.458 178.955 166.944ZM42.0897 43.6031C42.01 43.1389 41.9286 42.6914 41.8458 42.2613C35.6133 44.3792 30.0303 47.5338 25.0971 51.7249C24.2444 52.4466 23.431 53.1844 22.6571 53.9382C23.572 54.839 24.571 55.6988 25.6546 56.5177C29.9652 59.7711 34.8858 61.8623 40.4167 62.7918C43.6787 63.3402 46.8739 63.4387 50.0023 63.088C49.2686 62.2655 48.5715 61.3767 47.9108 60.4217C45.9123 57.5517 44.4368 54.3216 43.4841 50.7315C43.1354 49.372 42.6707 46.996 42.0897 43.6031ZM42.5604 119.748C42.2 119.481 42.0839 118.941 42.2117 118.127C42.3364 117.315 42.4584 116.519 42.5776 115.739C38.4183 114.772 34.1019 114.25 29.6283 114.171C28.9392 114.158 28.2536 114.152 27.5717 114.153C27.223 114.595 26.8336 114.816 26.4041 114.816C26.0323 114.816 25.701 114.659 25.4108 114.345C25.3773 114.308 25.3423 114.268 25.3062 114.223C21.073 114.431 16.9658 115.059 12.9841 116.105C12.5563 117.841 12.1727 119.596 11.834 121.369C10.7883 127.05 10.2654 132.947 10.2654 139.059C10.2654 140.706 10.3003 142.338 10.37 143.956C12.8927 142.125 15.6232 140.515 18.5614 139.128C18.827 139.003 19.0943 138.881 19.3631 138.762C25.9489 135.775 32.7229 134.305 39.6847 134.353C39.8176 133.715 40.05 133.082 40.3817 132.453C41.0324 131.222 41.9329 130.252 43.083 129.543C44.1342 128.894 45.331 128.47 46.6733 128.27C46.7833 128.288 46.8936 128.305 47.0045 128.323C50.0255 128.846 52.9477 130.373 55.771 132.906C58.056 134.972 59.4329 137.028 59.9017 139.076C61.4142 139.799 62.9072 140.606 64.3808 141.499C65.2391 142.019 66.0758 142.56 66.8903 143.119C67.0407 141.668 67.2382 140.21 67.4828 138.745C68.2599 134.797 68.7888 131.73 69.069 129.543C65.0755 126.179 61.0787 123.42 57.0781 121.264C53.3285 119.231 49.4307 117.634 45.3837 116.471C45.1301 117.193 44.8571 117.878 44.5646 118.528C44.3205 119.062 44.0766 119.44 43.8325 119.661C43.6466 119.8 43.4374 119.887 43.2051 119.922C42.938 119.945 42.7229 119.887 42.5604 119.748Z" fill="#0899A0"/>
<path d="M81.0858 50.2424C81.0809 50.2338 81.0752 50.2223 81.0683 50.2077C79.5395 47.4142 77.6803 45.2241 75.4913 43.6371C72.5399 41.4994 68.5198 40.192 63.4308 39.7158C62.2776 39.6021 61.1272 39.5267 59.98 39.4892C59.8127 42.7148 60.1786 45.8868 61.0779 49.0052C61.6787 51.0991 62.6022 53.3823 63.8491 55.8543C64.3482 56.8325 64.8943 57.8376 65.4874 58.8696C66.7074 60.9844 68.6362 64.1157 71.2735 68.2635C73.5275 71.9584 75.1426 75.1187 76.1188 77.7446C77.4316 81.2767 77.9659 84.6636 77.7221 87.9052C77.5711 89.7991 77.1064 91.9895 76.3276 94.4759C75.8747 95.9165 75.1484 98.0544 74.1493 100.889C71.1515 110.243 70.4833 118.928 72.1448 126.945C72.7024 129.64 73.5272 132.196 74.6197 134.613C75.334 136.19 76.1589 137.706 77.0946 139.162C79.5928 143.043 82.6602 146.134 86.2969 148.434C87.8653 149.433 90.1021 150.572 93.0068 151.85C94.2835 152.414 95.3992 152.914 96.353 153.349C88.3584 146.515 84.3091 139.823 84.2053 133.272C84.1011 126.719 84.9959 121.897 86.8894 118.806C88.7833 115.727 91.1536 113.217 94.0001 111.277C94.093 111.214 94.1861 111.15 94.2792 111.085C94.009 108.936 94.0786 106.815 94.4881 104.724C95.3783 100.197 97.801 96.0371 101.756 92.2451C100.407 91.7405 99.2216 91.1652 98.2004 90.5197C95.8301 89.0324 93.7678 86.9294 92.0134 84.2104C90.4912 81.8635 89.2423 79.133 88.2661 76.0192C87.5808 73.893 86.8662 70.9823 86.1224 67.2874C85.2511 62.9536 84.6122 60.0257 84.2053 58.5037C83.3687 55.285 82.329 52.5313 81.0858 50.2424ZM152.664 65.9978C151.107 67.3341 149.812 68.7979 148.778 70.3898C147.651 72.1326 146.913 73.9337 146.564 75.7926C146.169 77.7096 146.163 80.0682 146.547 82.8686C146.758 84.3777 147.1 86.6145 147.575 89.5785C149.072 89.1989 150.641 88.9433 152.281 88.8115C156.967 88.4445 161.214 89.1533 165.021 90.938C166.954 86.7569 168.134 82.4463 168.559 78.0059C168.656 77.0057 168.714 75.9948 168.733 74.9734C168.78 72.3361 168.414 70.0121 167.635 68.002C166.694 65.597 165.248 63.9819 163.296 63.157C161.622 62.4599 159.775 62.4307 157.753 63.0699C156.479 63.4747 155.236 64.0965 154.024 64.9345C153.566 65.2617 153.113 65.6162 152.664 65.9978ZM69.1648 128.81C69.6063 124.999 69.4086 121.734 68.5723 119.015C67.1546 114.356 63.8491 110.475 58.6554 107.373C58.1638 107.076 57.6527 106.786 57.1217 106.501C56.141 107.24 55.0777 107.827 53.9323 108.262C51.7522 109.092 49.4979 109.238 47.17 108.697C46.9405 110.201 46.7138 111.473 46.4903 112.514C46.1757 113.941 45.8039 115.266 45.3749 116.488C49.422 117.65 53.3197 119.248 57.0693 121.281C61.0699 123.436 65.0668 126.196 69.0602 129.559C69.102 129.299 69.137 129.049 69.1648 128.81ZM108.082 175.501C107.803 176.297 107.471 177.163 107.089 178.097C106.339 179.909 105.758 181.373 105.346 182.489C106.786 183.098 107.988 183.725 108.954 184.372C111.626 186.161 113.851 188.607 115.629 191.709C117.256 194.521 118.417 197.681 119.115 201.19C119.478 203.104 119.716 205.184 119.829 207.43C119.903 208.638 119.938 209.893 119.934 211.194V211.542C124.475 212.656 129.198 213.422 134.103 213.843C134.451 213.292 134.805 212.752 135.166 212.222C136.526 210.256 138.007 208.414 139.61 206.698C138.002 205.886 136.596 204.974 135.393 203.961C130.736 200.017 128.203 196.258 127.794 192.685C118.441 190.924 111.871 185.196 108.082 175.501ZM200.609 160.164C199.294 162.367 198.136 164.005 197.142 165.078C195.377 166.984 193.005 168.611 190.031 169.958C189.897 170.019 189.757 170.078 189.613 170.133C189.879 173.865 189.739 177.635 189.194 181.444C189.032 182.562 188.753 183.724 188.358 184.929C189.044 184.815 189.758 184.699 190.501 184.581C195.406 183.814 198.984 183.181 201.236 182.681C209.674 180.857 216.198 177.836 220.811 173.618C223.599 171.051 225.63 168.047 226.911 164.608C228.28 160.96 228.541 157.427 227.693 154.011C227.335 152.629 226.816 151.391 226.143 150.299C225.363 149.079 224.441 148.149 223.372 147.511C222.762 147.142 222.091 146.851 221.367 146.639C221.782 149.24 221.404 151.593 220.235 153.698C218.828 156.184 216.487 157.997 213.21 159.135C210.516 160.065 207.385 160.477 203.818 160.373C202.674 160.29 201.606 160.221 200.609 160.164ZM24.9662 95.3996C23.9594 94.8724 23.0125 94.3088 22.1255 93.7089C18.0034 100.738 14.9534 108.209 12.9753 116.122C16.957 115.075 21.0642 114.448 25.2975 114.24C25.1023 113.987 24.9746 113.679 24.9138 113.316C24.8559 112.991 24.8674 112.619 24.9488 112.201C24.9837 112.026 25.0883 111.654 25.2625 111.085L28.0337 102.719C28.395 102.963 28.7783 103.166 29.184 103.329C29.7533 103.585 30.3284 103.725 30.9094 103.748C31.0673 103.757 31.2183 103.757 31.3624 103.748C31.2214 104.267 31.0183 104.929 30.7524 105.735C29.6834 108.988 28.8528 111.37 28.2603 112.88C28.0491 113.43 27.8168 113.86 27.5629 114.17C28.2448 114.169 28.9305 114.175 29.6195 114.187C34.0932 114.266 38.4095 114.789 42.5688 115.756C43.0742 112.755 43.5971 110.036 44.1375 107.599C42.5244 106.753 41.258 105.562 40.338 104.027C39.6859 102.922 39.2444 101.696 39.0135 100.349C37.9393 100.067 36.9225 99.7879 35.9635 99.5128C32.3322 98.4676 29.5321 97.5149 27.5629 96.6545C26.6555 96.2589 25.79 95.8408 24.9662 95.3996Z" fill="#2C3079"/>
<path d="M205.642 152.363C204.562 153.595 203.164 155.727 201.442 158.76C201.161 159.252 200.883 159.723 200.605 160.171C201.602 160.228 202.671 160.298 203.814 160.381C207.381 160.485 210.513 160.073 213.206 159.143C216.484 158.005 218.825 156.192 220.232 153.705C221.401 151.601 221.779 149.248 221.363 146.647C220.845 146.502 220.292 146.397 219.707 146.333C218.464 146.205 217.157 146.281 215.788 146.56C213.845 146.932 212 147.623 210.244 148.634C208.479 149.645 206.946 150.888 205.642 152.363Z" fill="#BF792A"/>
<path d="M204.684 42.4074C204.045 40.6299 202.779 39.0205 200.885 37.5799C199.409 36.476 197.794 35.7033 196.04 35.2618C194.203 34.7856 192.419 34.7274 190.689 35.0876C188.411 35.5755 186.297 36.7608 184.345 38.6429C182.683 40.258 181.214 42.2971 179.935 44.7603C179.517 45.568 179.128 46.3871 178.768 47.2177C180.861 48.9488 182.76 50.8891 184.467 53.0388C182.065 52.5148 179.643 52.0733 177.199 51.7143C176.495 54.2654 176.065 56.9085 175.909 59.6441C175.746 62.4104 175.874 65.112 176.293 67.7485C177.523 66.7422 178.946 65.8068 180.563 64.9423C182.259 64.0361 185.071 62.8161 188.998 61.2824C192.484 59.8765 195.232 58.523 197.241 57.2216C200.088 55.3859 202.192 53.2829 203.55 50.9126C204.317 49.5995 204.81 48.2171 205.031 46.7644C205.266 45.2075 205.148 43.7552 204.684 42.4074ZM227.654 69.3168C227.439 69.4647 227.247 69.6039 227.078 69.7351C226.173 70.4322 225.591 71.1875 225.336 72.0009C225.196 72.4774 225.167 72.9536 225.25 73.43C225.33 73.9412 225.517 74.3655 225.806 74.7024C226.075 74.9927 226.439 75.2368 226.906 75.4342C226.923 75.4414 226.941 75.4471 226.958 75.4517C227.284 75.0583 227.542 74.7795 227.723 74.6151C228.049 74.3363 228.548 73.9005 229.224 73.308C229.734 72.7736 229.989 72.2333 229.989 71.6872C229.989 71.1411 229.746 70.6414 229.259 70.1884C228.829 69.7933 228.304 69.5088 227.688 69.3343L227.654 69.3168ZM152.276 88.8018C150.636 88.9336 149.067 89.1892 147.571 89.5688C143.263 90.6524 139.557 92.7554 136.451 95.8778C135.743 96.5981 134.894 97.5568 133.907 98.7536C132.838 100.101 132.025 101.1 131.467 101.751C131.407 101.822 131.343 101.892 131.275 101.96C129.361 104.197 127.525 105.771 125.768 106.683C123.165 108.054 119.581 108.595 115.014 108.304C112.482 108.084 110.582 107.927 109.315 107.834C107.061 107.66 105.167 107.636 103.634 107.764C100.334 108.046 97.2144 109.149 94.2748 111.075C94.5031 112.897 94.9736 114.739 95.6865 116.6C96.0985 117.685 96.5749 118.731 97.1156 119.737C99.5633 119.427 101.881 119.462 104.069 119.842C106.173 120.225 108.113 120.923 109.89 121.933C111.785 123.002 113.33 124.338 114.526 125.942C115.677 127.464 116.571 129.335 117.211 131.554C117.572 132.802 117.874 134.272 118.117 135.963C119.976 136.631 121.945 137.241 124.025 137.793C127.396 138.689 129.946 139.398 131.676 139.919C132.694 140.221 133.432 140.459 133.889 140.634C137.48 141.993 140.222 143.788 142.116 146.019C144.823 149.238 145.967 153.276 145.549 158.132C145.166 162.571 143.615 166.713 140.896 170.559C140.012 171.802 138.752 173.364 137.114 175.247C134.987 177.687 133.675 179.221 133.175 179.848C133.107 179.932 133.038 180.013 132.966 180.092C130.107 183.696 128.404 187.054 127.859 190.166C127.717 190.991 127.694 191.828 127.79 192.675C129.445 192.876 131.147 192.911 132.896 192.78C136.73 192.478 140.443 191.415 144.033 189.59C147.581 187.776 150.625 185.406 153.165 182.48C153.187 182.472 153.204 182.46 153.218 182.445C155.878 179.378 157.708 175.996 158.708 172.302C159.254 170.268 159.649 167.869 159.893 165.103C159.951 164.383 160.09 161.937 160.311 157.766C160.636 151.597 161.525 146.885 162.977 143.632C160.33 138.609 158.849 134.194 158.533 130.386C158.175 125.868 159.174 121.041 161.531 115.903C161.41 115.883 161.282 115.866 161.147 115.851C159.916 115.723 159.044 115.496 158.533 115.171C158.196 114.962 157.941 114.689 157.766 114.352C157.569 113.992 157.534 113.643 157.662 113.306C157.848 112.818 158.359 112.452 159.195 112.208C160.829 111.657 162.473 111.262 164.128 111.023C164.603 110.236 165.109 109.44 165.644 108.635C166.655 107.114 168.938 103.976 172.493 99.2241C172.872 98.7198 173.238 98.2258 173.591 97.7428C172.287 96.0755 170.754 94.5943 168.99 93.2984C167.726 92.3706 166.402 91.5804 165.017 90.9283C161.21 89.1436 156.963 88.4348 152.276 88.8018ZM91.1375 198.061C88.4299 195.998 85.8796 193.738 83.4864 191.281C76.608 184.217 71.821 176.351 69.1254 167.683C67.708 163.128 66.8654 158.341 66.5984 153.322C66.5795 152.951 66.562 152.58 66.5459 152.207C65.6317 151.107 64.7254 150.131 63.8272 149.279C62.0279 147.562 60.169 146.232 58.2502 145.288C57.8159 145.773 57.3162 146.191 56.7512 146.542C55.8217 147.111 54.7874 147.46 53.6488 147.588C52.5219 147.716 51.424 147.617 50.355 147.292C49.3093 146.978 48.2288 146.42 47.1134 145.618C46.7123 145.334 46.2415 144.962 45.7017 144.503C44.3099 145.005 42.9271 145.708 41.5536 146.612C38.114 148.879 35.6041 151.783 34.0246 155.326C35.1136 155.303 36.2754 155.373 37.5103 155.535C38.7071 155.686 40.386 156 42.5472 156.476C43.9064 156.732 44.621 157.255 44.6909 158.045C44.7024 158.324 44.6153 158.597 44.4293 158.864C44.2434 159.108 44.011 159.288 43.7323 159.404C43.2094 159.602 42.6111 159.631 41.9372 159.491C41.8791 159.48 41.3562 159.381 40.3686 159.195C39.7411 159.079 39.2182 159.033 38.7999 159.056C38.2306 159.056 37.7077 159.184 37.2315 159.439C36.7318 159.707 36.3832 160.073 36.1857 160.537C35.9998 161.095 36.0287 161.775 36.2729 162.576C36.482 163.32 36.8654 164.441 37.4232 165.94C37.8415 167.276 37.9401 168.409 37.7195 169.339C37.6149 169.931 37.365 170.321 36.9699 170.506C36.7493 170.634 36.4938 170.663 36.2032 170.594C35.9359 170.524 35.6861 170.396 35.4537 170.21C35.2795 170.036 35.1168 169.815 34.9658 169.548C34.9426 169.49 34.8262 169.246 34.6171 168.816C33.8919 167.149 33.0728 165.43 32.1597 163.657C32.0823 165.853 32.2972 168.118 32.8046 170.454C33.3106 172.764 34.0658 174.995 35.0703 177.146C35.7823 178.668 36.6187 180.149 37.5799 181.591C37.8484 181.994 38.1272 182.395 38.4166 182.793C40.6107 185.808 43.1784 188.445 46.1201 190.706C45.8929 189.678 45.7476 188.639 45.6843 187.586C45.5797 185.309 45.9573 183.537 46.8172 182.271C47.5025 181.26 48.554 180.458 49.9717 179.865C50.6822 179.562 51.5999 179.278 52.7251 179.011C53.0279 179.434 53.2078 179.695 53.2654 179.796C53.6259 180.458 53.7651 181.155 53.6838 181.887C53.5906 182.689 53.2362 183.212 52.6208 183.456C52.3999 183.56 51.8827 183.647 51.0696 183.717C50.4421 183.775 50.0298 183.961 49.8321 184.275C49.6811 184.484 49.6055 184.85 49.6055 185.373C49.6754 186.779 50.2679 188.841 51.3833 191.56C51.8627 192.728 52.2403 193.779 52.5162 194.714C57.2202 197.111 62.1643 198.499 67.3476 198.88C69.5205 199.031 72.0883 199.014 75.0511 198.828C76.7708 198.723 79.35 198.526 82.7893 198.235C85.8802 198.003 88.6631 197.945 91.1375 198.061ZM180.842 192.606C178.964 192.31 177.082 192.13 175.195 192.065C175.15 192.067 175.104 192.067 175.055 192.065C173.929 192.032 172.802 192.038 171.674 192.083C168.431 192.239 165.177 192.739 161.914 193.581C155.57 195.232 149.883 198.014 144.852 201.93C144.623 202.108 144.397 202.288 144.172 202.47C151.915 198.845 157.561 197.509 161.113 198.461C163.955 199.221 166.18 200.052 167.788 200.954C168.201 201.19 168.573 201.428 168.903 201.668C169.865 202.368 171.119 203.379 172.668 204.701C173.741 205.628 174.955 206.703 176.31 207.925C178.727 210.086 180.818 211.701 182.584 212.77C185.234 214.385 188.092 215.495 191.159 216.099C194.249 216.703 197.318 216.756 200.361 216.256C202.338 215.942 204.08 215.396 205.59 214.618C207.357 213.688 208.681 212.491 209.564 211.027C210.529 209.401 210.778 207.623 210.314 205.694C209.824 203.684 207.776 201.994 204.16 200.623C199.223 198.404 195.418 196.806 192.745 195.83C189.732 194.714 186.88 193.849 184.188 193.233C183.045 192.982 181.93 192.772 180.842 192.606ZM211.916 111.302C212.148 109.103 212.148 106.895 211.916 104.679C210.217 105.803 208.226 106.901 205.939 107.973C203.057 109.204 200.653 110.262 198.722 111.145C199.464 111.582 200.312 112.082 201.269 112.644C202.988 113.864 204.051 115.218 204.458 116.705C204.561 117.077 204.661 117.704 204.753 118.587C204.848 119.4 204.968 120.022 205.12 120.452C205.317 121.091 205.696 121.608 206.251 122.003C206.844 122.421 207.426 122.526 207.996 122.317C208.309 122.189 208.592 121.951 208.85 121.602C208.999 121.381 209.191 121.039 209.423 120.574C210.75 117.704 211.581 114.613 211.916 111.302Z" fill="#ED3F7A"/>
<path d="M145.786 22.5422C143.883 22.7789 142.18 23.1972 140.68 23.7972C142.33 25.632 143.811 27.613 145.124 29.74C145.457 30.2775 145.777 30.8179 146.082 31.3611C148.023 29.7369 150.132 28.2846 152.409 27.0038C154.485 25.844 156.617 24.8739 158.805 24.0934C158.006 23.8029 157.187 23.5473 156.348 23.3264C152.85 22.397 149.33 22.1357 145.786 22.5422ZM215.064 102.312C215.516 103.532 215.748 104.16 215.76 104.194C216.424 105.728 217.295 106.704 218.376 107.122C218.631 107.215 218.88 107.25 219.123 107.227C219.404 107.192 219.619 107.082 219.771 106.896C219.851 106.756 219.891 106.512 219.891 106.164C219.986 103.642 220.003 101.725 219.943 100.412C219.888 99.1521 219.768 97.9728 219.579 96.8743C218.367 98.898 216.874 100.699 215.098 102.277C215.086 102.288 215.075 102.299 215.064 102.312ZM227.089 69.7383C227.258 69.6071 227.45 69.4678 227.664 69.32C227.524 69.2962 226.962 69.1916 225.974 69.0062C225.278 68.8785 224.719 68.6985 224.301 68.4662C223.825 68.2338 223.186 67.7109 222.384 66.8975C222.106 66.6167 221.845 66.3729 221.599 66.1655C221.155 65.785 220.759 65.5237 220.416 65.3813C219.59 65.0561 218.688 65.0793 217.714 65.4509C217.677 65.4641 217.642 65.4758 217.608 65.4858C216.768 65.8182 216.018 66.3468 215.362 67.0717C215.333 67.1018 215.304 67.1307 215.273 67.1591C214.92 67.5485 214.485 68.1003 213.966 68.8146C214.041 68.8667 214.115 68.9249 214.193 68.9891C214.912 69.5584 215.419 70.0695 215.708 70.5228C215.969 70.9199 216.155 71.4081 216.267 71.9866C215.296 73.0842 214.559 73.9498 214.052 74.5835C213.9 74.7758 213.754 74.95 213.617 75.1064C213.829 75.9886 214.121 76.7845 214.488 77.4939C215.21 78.8652 216.25 79.8992 217.608 80.5963C219.06 81.3398 220.45 81.4504 221.774 80.9275C222.129 80.792 222.481 80.5946 222.837 80.3347C223.533 79.829 224.235 79.0913 224.945 78.1214C225.793 76.9576 226.467 76.0688 226.968 75.4548C226.951 75.4502 226.934 75.4445 226.917 75.4373C226.45 75.2399 226.086 74.9958 225.816 74.7056C225.527 74.3687 225.341 73.9443 225.261 73.4332C225.177 72.9567 225.206 72.4805 225.347 72.004C225.602 71.1906 226.183 70.4354 227.089 69.7383ZM193.853 87.6895C191.715 88.8749 190.188 90.4839 189.27 92.5173C188.561 94.051 188.242 95.7182 188.311 97.5193C188.381 99.2504 188.788 100.912 189.531 102.504C190.252 104.003 191.234 105.391 192.478 106.669C193.638 107.866 194.982 108.917 196.503 109.824C197.079 110.166 197.821 110.608 198.732 111.148C200.663 110.265 203.067 109.208 205.95 107.976C208.236 106.905 210.227 105.806 211.926 104.682C211.832 103.679 211.686 102.674 211.491 101.667C210.542 96.703 208.585 91.9741 205.617 87.4804C203.958 86.6756 202.239 86.2226 200.46 86.1212C198.136 86.0048 195.933 86.5277 193.853 87.6895ZM122.728 50.5324C119.549 53.8462 117.034 57.5351 115.182 61.5993C121.428 58.4731 127.918 56.0157 134.649 54.227C139.777 52.8637 145.046 51.8879 150.457 51.2991C150.57 49.9318 150.594 48.5202 150.527 47.0641C150.382 43.8408 149.824 40.727 148.854 37.7223C147.861 37.8166 146.868 37.9444 145.873 38.1057C138.635 39.3025 132.082 42.3642 126.214 47.2905C124.979 48.3277 123.817 49.4084 122.728 50.5324ZM170.534 110.904C172.742 111.253 174.055 111.421 174.473 111.41C175.205 111.398 175.821 111.538 176.321 111.828C176.89 112.165 177.227 112.694 177.331 113.414C177.436 114.158 177.215 114.675 176.669 114.965C176.367 115.139 175.804 115.203 174.979 115.157C174.224 115.122 173.701 115.244 173.41 115.523C173.038 115.895 172.934 116.551 173.096 117.492C173.387 119.282 173.921 121.972 174.7 125.562C174.791 126.145 174.86 126.708 174.909 127.252C175.458 126.449 175.899 125.735 176.233 125.109C179.01 119.88 179.69 114.152 178.273 107.924C177.386 103.989 175.829 100.596 173.602 97.7459C173.248 98.229 172.882 98.7229 172.504 99.2272C168.949 103.979 166.665 107.117 165.654 108.639C165.119 109.443 164.614 110.239 164.138 111.026C166.252 110.73 168.384 110.689 170.534 110.904ZM165.777 121.71C165.626 120.327 165.469 119.363 165.306 118.817C164.992 117.748 164.481 116.987 163.772 116.534C163.327 116.254 162.583 116.045 161.541 115.906C159.184 121.044 158.185 125.872 158.544 130.389C158.859 134.197 160.34 138.612 162.988 143.635C164.092 141.195 166.247 138.081 169.454 134.293C169.479 134.263 169.503 134.234 169.524 134.206C167.408 130.235 166.158 126.07 165.777 121.71ZM175.327 149.996C174.316 153.052 173.619 156.433 173.236 160.14C173.121 161.309 173.034 162.535 172.974 163.817C173.685 166.333 174.173 168.918 174.438 171.573C174.721 174.451 174.733 177.304 174.473 180.13C175.789 173.8 177.282 169.408 178.952 166.954C180.637 164.468 182.781 162.661 185.384 161.534C186.201 161.174 187.084 160.872 188.033 160.627C187.461 158.512 186.572 155.718 185.366 152.245C183.879 147.969 182.868 144.762 182.333 142.624C182.016 141.314 181.76 140.036 181.567 138.79C181.053 139.399 180.553 140.038 180.068 140.707C178.069 143.449 176.489 146.545 175.327 149.996ZM103.958 190.116C104.155 193.416 105.584 196.536 108.245 199.476C110.441 201.904 113.34 204.071 116.942 205.976C117.901 206.488 118.865 206.97 119.835 207.423C119.722 205.178 119.484 203.097 119.121 201.184C118.423 197.675 117.262 194.514 115.635 191.703C113.857 188.6 111.632 186.154 108.96 184.365C107.994 183.719 106.792 183.091 105.352 182.483C105.118 183.11 104.938 183.627 104.812 184.034C104.126 186.277 103.842 188.304 103.958 190.116ZM144.183 202.473C142.564 203.783 141.042 205.189 139.616 206.691C138.013 208.407 136.532 210.249 135.172 212.216C134.811 212.745 134.457 213.286 134.109 213.837C140.774 215.063 146.781 215.307 152.13 214.569C154.944 214.176 157.576 213.514 160.025 212.582C164.93 210.716 169.148 208.09 172.678 204.704C171.13 203.383 169.875 202.371 168.914 201.672C168.583 201.431 168.211 201.193 167.798 200.957C166.19 200.055 163.965 199.224 161.123 198.465C157.572 197.512 151.925 198.848 144.183 202.473Z" fill="#0B589C"/>
<path d="M76.1219 77.7381C75.1457 75.1122 73.5306 71.9519 71.2766 68.257C68.6393 64.1092 66.7104 60.9779 65.4905 58.8631C64.8974 57.8311 64.3513 56.826 63.8522 55.8478C62.6053 53.3758 61.6818 51.0926 61.081 48.9987C60.1816 45.8803 59.8158 42.7083 59.9831 39.4827C54.3044 39.3162 48.6635 40.1122 43.0601 41.8702C42.6521 41.9986 42.2456 42.1321 41.8401 42.2714C41.9229 42.7014 42.0043 43.1489 42.084 43.6131C42.665 47.006 43.1297 49.3821 43.4784 50.7416C44.4311 54.3316 45.9066 57.5618 47.9051 60.4318C48.5658 61.3867 49.2629 62.2755 49.9966 63.0981C46.8682 63.4488 43.673 63.3502 40.411 62.8018C34.8801 61.8724 29.9595 59.7811 25.6489 56.5277C24.5653 55.7089 23.5663 54.849 22.6514 53.9482C21.0192 55.549 19.5611 57.228 18.2769 58.9852C16.2203 61.797 14.6866 64.7132 13.6758 67.7342C13.3603 68.6805 13.0988 69.6274 12.8913 70.575C14.5262 70.4472 16.5713 70.3833 19.0262 70.3833C20.6412 70.3833 21.8962 70.4414 22.7907 70.5575C24.1616 70.732 25.3352 71.0804 26.3114 71.6032C27.0666 72.0216 27.4557 72.4748 27.4789 72.9628C27.5256 73.5321 27.2176 73.9504 26.5552 74.2174C25.9744 74.4615 25.3527 74.5079 24.6905 74.3569C23.7608 74.1478 23.1394 74.0375 22.8256 74.0257C22.1168 73.9911 21.5939 74.171 21.257 74.5661C21.0014 74.8798 20.8679 75.2807 20.8561 75.7686C20.8561 76.0709 20.9143 76.5124 21.0306 77.0932C21.5999 80.0096 21.838 82.6355 21.7452 84.9709C21.6349 87.6816 21.0713 90.0808 20.0545 92.1687C20.7083 92.7064 21.3996 93.2176 22.1285 93.7024C23.0156 94.3023 23.9625 94.8659 24.9693 95.3931C25.7931 95.8343 26.6586 96.2524 27.566 96.648C29.5352 97.5084 32.3353 98.4611 35.9666 99.5063C36.9256 99.7813 37.9424 100.06 39.0165 100.343C39.2475 101.69 39.689 102.916 40.3411 104.02C41.2611 105.556 42.5275 106.747 44.1406 107.593C44.8142 107.95 45.5462 108.247 46.3367 108.482C46.6161 108.565 46.8948 108.634 47.173 108.691C49.501 109.231 51.7553 109.086 53.9353 108.255C55.0808 107.821 56.1441 107.234 57.1248 106.495C57.6557 106.779 58.1669 107.07 58.6585 107.366C63.8522 110.469 67.1577 114.349 68.5754 119.008C69.4117 121.727 69.6094 124.992 69.1679 128.803C69.1401 129.042 69.1051 129.292 69.0633 129.553C68.7831 131.74 68.2542 134.807 67.4771 138.755C67.2325 140.22 67.0351 141.678 66.8846 143.13C66.5672 146.188 66.4569 149.215 66.5534 152.21C67.9897 153.93 69.4478 155.952 70.9279 158.275C74.2512 163.526 76.3307 166.716 77.1674 167.843C79.7351 171.294 82.4191 173.867 85.2193 175.564C86.8229 176.54 88.7457 177.394 90.9882 178.126C92.2314 178.532 94.288 179.102 97.1577 179.834C100.434 180.674 103.164 181.557 105.349 182.483C105.761 181.367 106.342 179.903 107.092 178.091C107.475 177.157 107.806 176.291 108.085 175.494C108.576 174.184 108.93 173.074 109.149 172.165C109.672 169.969 109.753 167.953 109.392 166.118C108.939 163.806 107.789 161.644 105.942 159.634C104.327 157.891 102.299 156.363 99.8593 155.051C99.1275 154.652 97.9597 154.083 96.3561 153.343C95.4023 152.907 94.2866 152.408 93.0099 151.844C90.1052 150.566 87.8684 149.427 86.3 148.428C82.6633 146.127 79.5958 143.036 77.0977 139.156C76.162 137.7 75.3371 136.184 74.6228 134.607C73.5303 132.19 72.7055 129.633 72.1479 126.939C70.4864 118.921 71.1546 110.236 74.1524 100.883C75.1514 98.0479 75.8777 95.91 76.3307 94.4694C77.1095 91.983 77.5742 89.7926 77.7252 87.8987C77.969 84.6571 77.4347 81.2702 76.1219 77.7381Z" fill="#41B3E6"/>
<path d="M117.898 16.4194C118.026 16.1871 118.055 15.9429 117.985 15.6874C117.916 15.4318 117.77 15.2401 117.55 15.1123C117.306 14.9728 117.056 14.9381 116.8 15.0078C116.545 15.0774 116.359 15.2284 116.242 15.4607C116.103 15.6816 116.068 15.9197 116.138 16.1753C116.208 16.4312 116.359 16.6286 116.591 16.7681C116.812 16.8959 117.05 16.9248 117.306 16.8552C117.561 16.7856 117.759 16.6403 117.898 16.4194ZM116.835 11.4175C116.765 11.1619 116.62 10.9645 116.4 10.8249C116.167 10.6972 115.923 10.6679 115.667 10.7378C115.412 10.8075 115.22 10.9527 115.092 11.1733C114.953 11.406 114.918 11.6498 114.988 11.9054C115.057 12.161 115.208 12.3587 115.441 12.4982C115.662 12.626 115.9 12.6549 116.155 12.5853C116.411 12.5154 116.609 12.3701 116.748 12.1495C116.876 11.9171 116.905 11.673 116.835 11.4175ZM168.441 117.87C168.208 117.743 167.964 117.713 167.709 117.783C167.453 117.853 167.255 117.998 167.116 118.219C166.988 118.451 166.959 118.695 167.029 118.951C167.099 119.206 167.244 119.398 167.465 119.526C167.697 119.665 167.941 119.7 168.197 119.63C168.452 119.561 168.65 119.41 168.789 119.177C168.917 118.957 168.946 118.718 168.876 118.463C168.807 118.207 168.661 118.01 168.441 117.87ZM172.101 118.201C172.031 117.946 171.886 117.748 171.665 117.609C171.433 117.481 171.188 117.452 170.933 117.522C170.677 117.591 170.486 117.737 170.358 117.957C170.218 118.201 170.184 118.451 170.253 118.707C170.323 118.963 170.474 119.148 170.706 119.265C170.927 119.404 171.165 119.439 171.421 119.369C171.677 119.3 171.874 119.148 172.014 118.916C172.141 118.695 172.17 118.457 172.101 118.201ZM33.8235 161.232C33.6843 161.476 33.6493 161.726 33.719 161.982C33.7889 162.237 33.9399 162.423 34.1722 162.539C34.3928 162.679 34.6312 162.714 34.8868 162.644C35.1424 162.574 35.3398 162.423 35.4793 162.191C35.6071 161.97 35.636 161.732 35.5664 161.476C35.4968 161.221 35.3515 161.023 35.1306 160.884C34.8983 160.756 34.6544 160.727 34.3989 160.797C34.143 160.866 33.9513 161.011 33.8235 161.232ZM31.1744 162.592C31.0349 162.836 31.0002 163.085 31.0698 163.341C31.1398 163.597 31.2908 163.783 31.5231 163.899C31.7437 164.038 31.9821 164.073 32.2377 164.003C32.4933 163.934 32.6907 163.783 32.8302 163.55C32.958 163.329 32.9869 163.091 32.9173 162.836C32.8477 162.58 32.7024 162.382 32.4815 162.243C32.2491 162.115 32.0053 162.086 31.7495 162.156C31.4939 162.226 31.3022 162.371 31.1744 162.592Z" fill="white"/>
<path d="M11.1358 81.4815C11.1358 81.7489 11.2286 81.9755 11.4146 82.1614C11.6005 82.3474 11.8272 82.4402 12.0942 82.4402C12.3615 82.4402 12.5882 82.3474 12.7741 82.1614C12.9598 81.9755 13.0529 81.7489 13.0529 81.4815C13.0529 81.2145 12.9598 80.9879 12.7741 80.8019C12.5882 80.616 12.3615 80.5231 12.0942 80.5231C11.8272 80.5231 11.6005 80.616 11.4146 80.8019C11.2286 80.9879 11.1358 81.2145 11.1358 81.4815ZM17.2007 82.1614C17.3867 81.9755 17.4795 81.7489 17.4795 81.4815C17.4795 81.2145 17.3867 80.9879 17.2007 80.8019C17.0148 80.616 16.7882 80.5231 16.5211 80.5231C16.2538 80.5231 16.0272 80.616 15.8412 80.8019C15.6556 80.9879 15.5625 81.2145 15.5625 81.4815C15.5625 81.7489 15.6556 81.9755 15.8412 82.1614C16.0272 82.3474 16.2538 82.4402 16.5211 82.4402C16.7882 82.4402 17.0148 82.3474 17.2007 82.1614Z" fill="white"/>
<path d="M220.307 71.924C220.167 72.1681 220.132 72.4176 220.204 72.6735C220.273 72.9291 220.424 73.115 220.656 73.231C220.877 73.3706 221.115 73.4052 221.37 73.3356C221.625 73.266 221.823 73.115 221.963 72.8826C222.092 72.6617 222.121 72.4236 222.049 72.1681C221.98 71.9122 221.834 71.7148 221.613 71.5753C221.381 71.4475 221.138 71.4186 220.883 71.4882C220.628 71.5581 220.436 71.7031 220.307 71.924Z" fill="#F8981C"/>
<path d="M7.41418 188.372C7.24886 189.522 7.26605 190.608 7.46633 191.631C7.89639 193.85 8.65737 195.947 9.74956 197.923C10.6676 199.549 11.7537 200.949 13.0087 202.123C14.3682 203.401 15.8494 204.324 17.4531 204.894C19.0332 205.463 20.2532 205.405 21.113 204.72C21.717 204.22 22.1121 203.349 22.298 202.105C22.786 199.049 22.4722 196.063 21.3568 193.147C20.2068 190.114 18.4115 187.768 15.9715 186.106C14.9607 185.409 13.9499 184.956 12.939 184.747C11.7537 184.491 10.7022 184.596 9.78451 185.06C8.59289 185.656 7.80269 186.76 7.41418 188.372Z" fill="#F8981C"/>
<path d="M20.7675 129.137C21.5035 129.137 22.131 128.875 22.6493 128.352C23.1725 127.834 23.4341 127.206 23.4341 126.47C23.4341 125.734 23.1725 125.105 22.6493 124.582C22.131 124.063 21.5035 123.804 20.7675 123.804C20.0314 123.804 19.402 124.063 18.8788 124.582C18.3602 125.105 18.1012 125.734 18.1012 126.47C18.1012 127.206 18.3602 127.834 18.8788 128.352C19.402 128.875 20.0314 129.137 20.7675 129.137Z" fill="white"/>
<path d="M176.948 26.3922C176.429 26.9154 176.17 27.5449 176.17 28.2809C176.17 29.0173 176.429 29.6444 176.948 30.163C177.471 30.6859 178.101 30.9475 178.837 30.9475C179.573 30.9475 180.2 30.6859 180.718 30.163C181.242 29.6444 181.503 29.0173 181.503 28.2809C181.503 27.5449 181.242 26.9154 180.718 26.3922C180.2 25.8739 179.573 25.6146 178.837 25.6146C178.101 25.6146 177.471 25.8739 176.948 26.3922Z" fill="#F8981C"/>
</svg>
