<svg width="375" height="46" viewBox="0 0 375 46" fill="none" xmlns="http://www.w3.org/2000/svg">
<rect width="375" height="46" fill="#FF69B4"/>
<path fill-rule="evenodd" clip-rule="evenodd" d="M334.5 19.9999C334.5 18.8033 335.47 17.8333 336.667 17.8333H353.333C354.53 17.8333 355.5 18.8033 355.5 19.9999V25.9999C355.5 27.1965 354.53 28.1666 353.333 28.1666H336.667C335.47 28.1666 334.5 27.1965 334.5 25.9999V19.9999Z" fill="white"/>
<path fill-rule="evenodd" clip-rule="evenodd" d="M357 21V25C357.805 24.6612 358.328 23.8731 358.328 23C358.328 22.1269 357.805 21.3388 357 21Z" fill="white"/>
<path fill-rule="evenodd" clip-rule="evenodd" d="M336 20.6666C336 19.9302 336.597 19.3333 337.333 19.3333H352.667C353.403 19.3333 354 19.9302 354 20.6666V25.3333C354 26.0696 353.403 26.6666 352.667 26.6666H337.333C336.597 26.6666 336 26.0696 336 25.3333V20.6666Z" fill="white"/>
<path fill-rule="evenodd" clip-rule="evenodd" d="M321.33 19.6079C323.546 19.608 325.678 20.4594 327.283 21.9862C327.404 22.1041 327.598 22.1026 327.717 21.9829L328.873 20.8162C328.933 20.7555 328.967 20.6733 328.966 20.5877C328.966 20.5021 328.931 20.4202 328.87 20.3602C324.655 16.3207 318.005 16.3207 313.79 20.3602C313.729 20.4202 313.694 20.502 313.694 20.5876C313.693 20.6732 313.727 20.7555 313.787 20.8162L314.943 21.9829C315.062 22.1028 315.256 22.1043 315.377 21.9862C316.983 20.4593 319.114 19.6079 321.33 19.6079ZM321.33 23.4036C322.548 23.4035 323.722 23.856 324.624 24.6732C324.747 24.7892 324.939 24.7867 325.058 24.6676L326.212 23.5009C326.273 23.4397 326.307 23.3567 326.306 23.2704C326.305 23.1842 326.27 23.1018 326.208 23.0419C323.46 20.4855 319.204 20.4855 316.455 23.0419C316.393 23.1018 316.358 23.1842 316.357 23.2705C316.356 23.3568 316.39 23.4398 316.451 23.5009L317.605 24.6676C317.724 24.7867 317.917 24.7892 318.039 24.6732C318.941 23.8566 320.114 23.4041 321.33 23.4036ZM323.643 25.9574C323.645 26.0439 323.611 26.1273 323.549 26.1879L321.552 28.2036C321.494 28.2628 321.414 28.2961 321.33 28.2961C321.247 28.2961 321.167 28.2628 321.109 28.2036L319.111 26.1879C319.049 26.1272 319.015 26.0438 319.017 25.9573C319.019 25.8708 319.057 25.7889 319.121 25.7309C320.396 24.652 322.265 24.652 323.54 25.7309C323.604 25.7889 323.642 25.8709 323.643 25.9574Z" fill="white"/>
<path fill-rule="evenodd" clip-rule="evenodd" d="M307.667 17.6667H306.667C306.114 17.6667 305.667 18.1145 305.667 18.6667V27.3334C305.667 27.8857 306.114 28.3334 306.667 28.3334H307.667C308.219 28.3334 308.667 27.8857 308.667 27.3334V18.6667C308.667 18.1145 308.219 17.6667 307.667 17.6667ZM302 20.0001H303C303.552 20.0001 304 20.4478 304 21.0001V27.3334C304 27.8857 303.552 28.3334 303 28.3334H302C301.448 28.3334 301 27.8857 301 27.3334V21.0001C301 20.4478 301.448 20.0001 302 20.0001ZM298.333 22.3334H297.333C296.781 22.3334 296.333 22.7811 296.333 23.3334V27.3334C296.333 27.8857 296.781 28.3334 297.333 28.3334H298.333C298.885 28.3334 299.333 27.8857 299.333 27.3334V23.3334C299.333 22.7811 298.885 22.3334 298.333 22.3334ZM293.667 24.3334H292.667C292.114 24.3334 291.667 24.7811 291.667 25.3334V27.3334C291.667 27.8857 292.114 28.3334 292.667 28.3334H293.667C294.219 28.3334 294.667 27.8857 294.667 27.3334V25.3334C294.667 24.7811 294.219 24.3334 293.667 24.3334Z" fill="white"/>
<path fill-rule="evenodd" clip-rule="evenodd" d="M28.2842 28.2563C27.3174 28.2563 26.4946 27.9951 25.8159 27.4727C25.1372 26.9453 24.7197 26.2471 24.5635 25.3779H26.4458C26.5679 25.7783 26.7925 26.0957 27.1196 26.3301C27.4517 26.5596 27.8447 26.6743 28.2988 26.6743C29.0703 26.6743 29.6733 26.335 30.1079 25.6562C30.5425 24.9727 30.7598 24.0254 30.7598 22.8145H30.6939H30.6572H30.6353C30.3862 23.3174 30.0225 23.708 29.5439 23.9863C29.0654 24.2598 28.5161 24.3965 27.896 24.3965C26.8901 24.3965 26.0576 24.0645 25.3984 23.4004C24.7441 22.7363 24.417 21.8965 24.417 20.8809C24.417 19.7969 24.7832 18.9082 25.5156 18.2148C26.2529 17.5166 27.1953 17.1675 28.3428 17.1675C29.1143 17.1675 29.7979 17.3457 30.3936 17.7021C30.9893 18.0586 31.4653 18.5762 31.8218 19.2549C32.3198 20.1387 32.5689 21.252 32.5689 22.5947C32.5689 24.3721 32.1904 25.7612 31.4336 26.7622C30.6768 27.7583 29.627 28.2563 28.2842 28.2563ZM26.856 22.3164C27.2466 22.7021 27.7446 22.895 28.3501 22.895C28.9556 22.895 29.4561 22.7021 29.8516 22.3164C30.2471 21.9307 30.4448 21.4424 30.4448 20.8516C30.4448 20.2559 30.2446 19.7554 29.8442 19.3501C29.4439 18.9448 28.9482 18.7422 28.3574 18.7422C27.7666 18.7422 27.271 18.9424 26.8706 19.3428C26.4702 19.7383 26.27 20.2314 26.27 20.8223C26.27 21.4277 26.4653 21.9258 26.856 22.3164ZM35.5867 26.8794C35.2449 26.8794 34.9642 26.7695 34.7444 26.5498C34.5247 26.3301 34.4148 26.0542 34.4148 25.7222C34.4148 25.3853 34.5247 25.1094 34.7444 24.8945C34.9642 24.6748 35.2449 24.5649 35.5867 24.5649C35.9334 24.5649 36.2142 24.6748 36.429 24.8945C36.6487 25.1094 36.7586 25.3853 36.7586 25.7222C36.7586 26.0542 36.6487 26.3301 36.429 26.5498C36.2142 26.7695 35.9334 26.8794 35.5867 26.8794ZM35.5867 21.3862C35.2449 21.3862 34.9642 21.2788 34.7444 21.064C34.5247 20.8442 34.4148 20.5684 34.4148 20.2363C34.4148 19.8994 34.5247 19.6235 34.7444 19.4087C34.9642 19.189 35.2449 19.0791 35.5867 19.0791C35.9334 19.0791 36.2142 19.189 36.429 19.4087C36.6487 19.6235 36.7586 19.8994 36.7586 20.2363C36.7586 20.5684 36.6487 20.8442 36.429 21.064C36.2142 21.2788 35.9334 21.3862 35.5867 21.3862ZM43.7608 28V26.0298H38.5973V24.3452C39.4566 22.7632 40.8922 20.4585 42.9039 17.4312H45.5699V24.4331H46.9981V26.0298H45.5699V28H43.7608ZM40.3478 24.3672V24.4771H43.7901V18.9692H43.6876C42.545 20.6587 41.4317 22.458 40.3478 24.3672ZM51.0268 28V19.3354H50.9022L48.2729 21.1812V19.3647L51.0341 17.4312H52.9164V28H51.0268Z" fill="white"/>
</svg>
