<svg width="9" height="9" viewBox="0 0 9 9" fill="none" xmlns="http://www.w3.org/2000/svg">
<path d="M8.40947 4.17409H4.82587V0.590481C4.82587 0.504078 4.79154 0.421214 4.73045 0.360118C4.66935 0.299022 4.58649 0.264698 4.50008 0.264698C4.41368 0.264698 4.33082 0.299022 4.26972 0.360118C4.20863 0.421214 4.1743 0.504078 4.1743 0.590481V4.17409H0.590694C0.504291 4.17409 0.421427 4.20841 0.360331 4.26951C0.299235 4.3306 0.264912 4.41347 0.264912 4.49987C0.263304 4.54221 0.270791 4.5844 0.286868 4.62361C0.302945 4.66281 0.327238 4.69811 0.35811 4.72713C0.388983 4.75615 0.425718 4.77821 0.465838 4.79184C0.505959 4.80546 0.548534 4.81033 0.590694 4.80611H4.1743V8.40926C4.1743 8.49566 4.20863 8.57853 4.26972 8.63962C4.33082 8.70072 4.41368 8.73504 4.50008 8.73504C4.58649 8.73504 4.66935 8.70072 4.73045 8.63962C4.79154 8.57853 4.82587 8.49566 4.82587 8.40926V4.82565H8.40947C8.49588 4.82565 8.57874 4.79133 8.63984 4.73023C8.70093 4.66914 8.73526 4.58627 8.73526 4.49987C8.73526 4.41347 8.70093 4.3306 8.63984 4.26951C8.57874 4.20841 8.49588 4.17409 8.40947 4.17409Z" fill="white" stroke="white" stroke-width="0.5"/>
</svg>
