<svg width="335" height="80" viewBox="0 0 335 80" fill="none" xmlns="http://www.w3.org/2000/svg">
<rect width="150" height="80" rx="16" fill="#FF69B4" fill-opacity="0.1"/>
<path fill-rule="evenodd" clip-rule="evenodd" d="M43.9063 30.544H47.5775H50.5812C52.4724 30.544 54.8086 32.9914 54.1411 36.2176C53.5849 38.9988 51.3599 40.5562 48.69 40.5562H45.9088L44.9076 45.0061H41.3476H41.0139L43.9063 30.544ZM48.245 37.2188C49.2462 37.2188 50.2474 36.5513 50.4699 35.5501C50.6924 34.5489 50.1362 33.8814 49.135 33.8814H47.2438L46.465 37.2188H48.245ZM85.2015 30.548C85.1568 30.5453 85.1122 30.544 85.0679 30.544H80.618H78.5043L75.7565 44.283L75.5006 45.0061H75.6119H75.8344H79.3943H79.5055L80.5067 40.5562H83.1767H83.2879C85.9579 40.5562 88.1828 38.9988 88.7391 36.2176C89.2823 33.067 87.067 30.6591 85.2015 30.548ZM84.9566 35.5501C84.7341 36.5513 83.7329 37.2188 82.7317 37.2188H80.9517L81.7305 33.8814H83.6217C84.6229 33.8814 85.1791 34.5489 84.9566 35.5501ZM104.202 30.544H101.644L98.7513 45.0061H102.311L103.312 40.5562L103.249 40.4896L105.315 30.544H104.202ZM94.0789 33.8814C92.8183 33.8814 91.7482 34.1354 90.8205 34.3555C90.5202 34.4268 90.2348 34.4945 89.9628 34.5489L89.629 37.1076C90.1853 36.8851 91.7427 36.4401 93.0777 36.3288C94.4127 36.3288 95.1914 36.5513 94.9689 37.7751C94.401 37.7751 93.8599 37.7907 93.3479 37.8252L93.3002 37.7751C91.4315 37.9135 89.9503 38.3103 88.9906 39.1262C88.3528 39.6389 87.9253 40.3239 87.7378 41.2237C86.9602 45.667 91.8395 45.7845 93.7368 43.7913L93.745 43.7834L93.5227 45.0061L93.5227 45.0061H97.0826L98.6401 37.7751C98.8847 36.6741 98.6661 35.8721 98.1703 35.2977C97.3331 34.2017 95.6596 33.8096 94.0789 33.8814ZM94.3014 41.335C94.0789 42.225 93.3002 42.5587 92.4102 42.6699C91.6315 42.6699 90.964 42.225 91.409 41.335C91.7984 40.7509 92.6136 40.6779 93.333 40.6688C93.4358 40.6675 93.5366 40.6675 93.6339 40.6675H94.4519L94.4519 40.6675C94.4312 40.6872 94.4115 40.7224 94.3935 40.7683C94.3396 40.906 94.3014 41.1395 94.3014 41.335ZM94.5239 40.6675C94.4995 40.6431 94.4751 40.6454 94.4519 40.6675H94.5239ZM56.0323 34.3873C56.9353 34.1606 58.0478 33.8814 59.3697 33.8814C60.7905 33.8168 62.3238 34.1271 63.2513 34.9865C63.9649 35.5699 64.3346 36.4589 64.0421 37.7751L62.4847 45.0061H58.9247L59.103 43.9363C58.3436 44.6405 57.2133 45.043 56.1499 45.0285C54.59 45.0496 53.1404 44.189 53.1665 42.0875C53.1628 41.7889 53.1896 41.4642 53.2511 41.1125C53.6961 38.8875 55.6986 37.9976 58.7022 37.7751L58.7525 37.8279C59.2643 37.7915 59.8047 37.7751 60.371 37.7751C60.5875 36.5839 59.8555 36.3414 58.5852 36.3293C57.2512 36.4414 55.5867 36.8854 55.1423 37.1076L55.2915 37.0004C55.1829 37.0396 55.0945 37.0759 55.0311 37.1076L55.3648 34.5489C55.5729 34.5026 55.7954 34.4468 56.0323 34.3873L56.0323 34.3873L56.0323 34.3873ZM57.8123 42.6699C58.7022 42.5587 59.481 42.225 59.7035 41.335C59.7035 41.1395 59.7416 40.906 59.7956 40.7683C59.8136 40.7224 59.8333 40.6871 59.854 40.6675H59.926C59.9016 40.6431 59.8772 40.6454 59.854 40.6675H59.036C58.3685 40.6675 57.3673 40.6675 56.9223 41.335C56.366 42.225 57.0335 42.6699 57.8123 42.6699ZM65.4883 33.8814H69.0483L69.6045 40.1113L73.1644 33.8814H76.8356L68.3808 49.456H64.3759L66.9346 44.7836L65.4883 33.8814ZM106.094 32.8802V31.3227H105.537V31.1002H106.984V31.3227H106.427V32.8802H106.094ZM107.206 31.1002V32.7689H107.317V31.2115L107.874 32.7689H108.207L108.764 31.2115V32.7689H108.986V30.989H108.652L108.207 32.2127C108.096 32.4352 108.096 32.4352 108.096 32.5464C108.096 32.5464 107.985 32.4352 107.985 32.3239L107.54 31.1002H107.206Z" fill="#7F7F7F"/>
<rect x="185" width="150" height="80" rx="16" fill="#FF69B4" fill-opacity="0.1"/>
<path fill-rule="evenodd" clip-rule="evenodd" d="M243.248 31.4648C243.876 30.6562 244.325 29.5781 244.19 28.5C243.248 28.5449 242.126 29.1289 241.452 29.8926C240.869 30.5664 240.33 31.6895 240.465 32.7227C241.542 32.8574 242.574 32.2734 243.248 31.4648ZM244.189 32.9922C243.258 32.9374 242.411 33.267 241.729 33.5325C241.293 33.7022 240.924 33.8457 240.644 33.8457C240.332 33.8457 239.943 33.6927 239.503 33.5198C238.933 33.2953 238.277 33.0371 237.592 33.0371C236.021 33.082 234.585 33.9355 233.778 35.373C232.162 38.2031 233.329 42.3809 234.944 44.6719C235.707 45.7949 236.65 47.0527 237.861 47.0078C238.406 46.9869 238.794 46.8193 239.194 46.6465C239.652 46.4488 240.126 46.2441 240.868 46.2441C241.568 46.2441 242.017 46.4371 242.452 46.6234C242.881 46.8076 243.295 46.9852 243.92 46.9629C245.177 46.918 245.984 45.8398 246.747 44.6719C247.645 43.3691 248.004 42.1113 248.004 42.0664C248 42.0626 247.979 42.0528 247.945 42.0363C247.568 41.8568 245.536 40.8885 245.536 38.3379C245.491 36.002 247.42 34.8789 247.51 34.834C246.478 33.2168 244.773 33.0371 244.189 32.9922ZM262.987 35.373C262.987 32.0938 260.698 29.8027 257.377 29.8027H251.005V46.7832H253.653V40.9883H257.288C260.654 40.9883 262.987 38.6973 262.987 35.373ZM256.66 38.7871H253.653H253.608V32.0488H256.66C258.949 32.0488 260.25 33.2617 260.25 35.418C260.25 37.5293 258.949 38.7871 256.66 38.7871ZM263.661 43.3242C263.661 41.168 265.321 39.8203 268.283 39.6406L271.694 39.4609V38.5176C271.694 37.125 270.752 36.3164 269.226 36.3164C267.745 36.3164 266.847 37.0352 266.623 38.1133H264.2C264.334 35.8672 266.264 34.2051 269.316 34.2051C272.322 34.2051 274.252 35.7773 274.252 38.293V46.8281H271.829V44.8066H271.784C271.066 46.1992 269.495 47.0527 267.88 47.0527C265.366 47.0527 263.661 45.5254 263.661 43.3242ZM271.693 41.2129V42.2012C271.693 43.8184 270.302 45.0312 268.506 45.0312C267.16 45.0312 266.263 44.3125 266.263 43.2344C266.263 42.1562 267.115 41.4824 268.641 41.3926L271.693 41.2129ZM276.496 51.4102V49.3438C276.675 49.3887 277.124 49.3887 277.304 49.3887C278.47 49.3887 279.099 48.8945 279.503 47.6367C279.503 47.5918 279.727 46.873 279.727 46.873L275.239 34.4746H277.977L281.118 44.582H281.163L284.304 34.4746H286.997L282.375 47.5469C281.298 50.5566 280.086 51.5 277.528 51.5C277.437 51.4771 277.229 51.4659 277.018 51.4545H277.017C276.813 51.4434 276.606 51.4322 276.496 51.4102Z" fill="#7F7F7F"/>
</svg>
