<svg width="28" height="28" viewBox="0 0 28 28" fill="none" xmlns="http://www.w3.org/2000/svg">
<path d="M13.9998 1.8667C13.2572 1.8667 12.5451 2.1617 12.02 2.6868C11.4948 3.2119 11.1999 3.92409 11.1999 4.6667C11.1999 5.40931 11.4948 6.1215 12.02 6.6466C12.5451 7.1717 13.2572 7.4667 13.9998 7.4667C14.7425 7.4667 15.4546 7.1717 15.9797 6.6466C16.5049 6.1215 16.7998 5.40931 16.7998 4.6667C16.7998 3.92409 16.5049 3.2119 15.9797 2.6868C15.4546 2.1617 14.7425 1.8667 13.9998 1.8667ZM10.9793 5.60186C10.5703 5.61756 9.68057 5.72296 9.10167 6.30186C8.32981 7.07372 8.40167 8.39821 8.40167 8.39821C8.40167 8.39821 9.72616 8.47008 10.498 7.69821C11.2699 6.92634 11.198 5.60186 11.198 5.60186C11.198 5.60186 11.1156 5.59662 10.9793 5.60186ZM16.8017 5.60186C16.8017 5.60186 16.7298 6.92634 17.5017 7.69821C18.2735 8.47008 19.598 8.39821 19.598 8.39821C19.598 8.39821 19.6699 7.07372 18.898 6.30186C18.1262 5.52999 16.8017 5.60186 16.8017 5.60186ZM13.9998 9.33337C12.4795 9.33337 11.1439 10.3757 10.7751 11.8508L9.36053 17.5073C9.32626 17.6449 9.32379 17.7886 9.35331 17.9273C9.38282 18.066 9.44354 18.1961 9.53087 18.3079C9.61819 18.4196 9.72982 18.51 9.85728 18.5722C9.98475 18.6344 10.1247 18.6667 10.2665 18.6667H17.7077C17.7162 18.6668 17.7247 18.6668 17.7332 18.6667C17.875 18.6667 18.015 18.6344 18.1424 18.5722C18.2699 18.51 18.3815 18.4196 18.4688 18.3079C18.5562 18.1961 18.6169 18.066 18.6464 17.9273C18.6759 17.7886 18.6734 17.6449 18.6392 17.5073L17.2246 11.8508C16.8558 10.3757 15.5202 9.33337 13.9998 9.33337ZM11.1999 20.5334V24.2357C11.1999 24.7677 11.6322 25.2 12.1642 25.2C12.6719 25.2 13.0931 24.8054 13.1267 24.2995L13.3764 20.5334H11.1999ZM14.6233 20.5334L14.873 24.2995C14.9066 24.8063 15.3278 25.2 15.8355 25.2C16.3675 25.2 16.7998 24.7677 16.7998 24.2357V20.5334H14.6233Z" fill="white"/>
</svg>
