<svg width="23" height="25" viewBox="0 0 23 25" fill="none" xmlns="http://www.w3.org/2000/svg">
<path fill-rule="evenodd" clip-rule="evenodd" d="M6.30643 24.99C4.68361 25.0839 3.09279 24.5116 1.90211 23.4051C0.711435 22.2981 0.0243746 20.7534 0 19.1279V5.81678C0.187126 2.49523 2.98082 -0.0757899 6.30643 0.0125682H14.4693C14.5928 -0.00418939 14.718 -0.00418939 14.8416 0.0125682H14.9862C15.3351 0.013076 15.6705 0.147644 15.9222 0.389359L22.5335 6.8659C22.7646 7.08832 22.8957 7.39554 22.8965 7.71648L22.8964 19.1345C22.8036 22.454 20.0443 25.0743 16.724 24.9956L6.30643 24.99ZM15.9471 4.79152C15.9839 5.8894 16.8996 6.75216 17.998 6.72372H18.78L15.9471 3.94907V4.79152Z" fill="#FF69B4"/>
</svg>
