<svg width="34" height="40" viewBox="0 0 34 40" fill="none" xmlns="http://www.w3.org/2000/svg">
<g clip-path="url(#clip0_1_1831)">
<path fill-rule="evenodd" clip-rule="evenodd" d="M0 0H47.3449V3.08333H0V0ZM0 6.15833H47.3449V9.24167H0V6.15833ZM0 12.3083H47.3449V15.3917H0V12.3083ZM0 18.4583H47.3449V21.5417H0V18.4583ZM0 24.625H47.3449V27.6917H0V24.625ZM0 30.7667H47.3449V33.85H0V30.7667ZM0 36.9167H47.3449V40H0V36.9167Z" fill="#BD3D44"/>
<path fill-rule="evenodd" clip-rule="evenodd" d="M0 3.08333H47.3449V6.15833H0V3.08333ZM0 9.23333H47.3449V12.3083H0V9.23333ZM0 15.3833H47.3449V18.4667H0V15.3833ZM0 21.5417H47.3449V24.625H0V21.5417ZM0 27.6917H47.3449V30.775H0V27.6917ZM0 33.8417H47.3449V36.925H0V33.8417Z" fill="white"/>
<path fill-rule="evenodd" clip-rule="evenodd" d="M0 0H18.938V21.5417H0V0Z" fill="#192F5D"/>
<path fill-rule="evenodd" clip-rule="evenodd" d="M1.57832 0.916671L1.75483 1.775H2.30511L1.85866 2.3L2.02997 3.15834L1.57832 2.625L1.13187 3.15L1.29799 2.3L0.846346 1.775H1.4122L1.57832 0.916671ZM4.73465 0.916671L4.90597 1.775H5.46663L5.01499 2.3L5.18111 3.15834L4.73465 2.625L4.28301 3.15L4.45432 2.3L4.00787 1.775H4.55815L4.73465 0.916671ZM7.89098 0.916671L8.0623 1.775H8.61777L8.17131 2.3L8.34263 3.15834L7.89098 2.625L7.43934 3.15L7.61065 2.3L7.159 1.775H7.71967L7.89098 0.916671ZM11.0473 0.916671L11.2186 1.775H11.7793L11.3276 2.3L11.499 3.15834L11.0473 2.625L10.5957 3.15L10.7722 2.3L10.3153 1.775H10.8708L11.0473 0.916671ZM14.2036 0.916671L14.375 1.775H14.9304L14.484 2.3L14.6553 3.15834L14.2036 2.625L13.752 3.15L13.9233 2.3L13.4769 1.775H14.0323L14.2036 0.916671ZM17.36 0.916671L17.5313 1.775H18.092L17.6351 2.3L17.8116 3.15834L17.36 2.625L16.9083 3.15L17.0848 2.3L16.628 1.775H17.1887L17.36 0.916671ZM3.15649 3.08334L3.3278 3.93334H3.89366L3.44201 4.45L3.60813 5.30834L3.16687 4.78334L2.71523 5.30834L2.87616 4.45L2.44008 3.93334H2.99556L3.15649 3.08334ZM6.31282 3.08334L6.48932 3.93334H7.0448L6.58796 4.45L6.76446 5.30834L6.31282 4.78334L5.86117 5.30834L6.03249 4.45L5.58084 3.93334H6.1415L6.31282 3.08334ZM9.46915 3.08334L9.64046 3.93334H10.2011L9.74948 4.45L9.92079 5.30834L9.46915 4.78334L9.0175 5.30834L9.18882 4.45L8.74236 3.93334H9.29264L9.46915 3.08334ZM12.6255 3.08334L12.802 3.93334H13.3575L12.9006 4.45L13.0771 5.30834L12.6255 4.78334L12.179 5.30834L12.3451 4.45L11.8935 3.93334H12.4594L12.6255 3.08334ZM15.7818 3.08334L15.9531 3.93334H16.5138L16.0621 4.45L16.2335 5.30834L15.7818 4.78334L15.3302 5.30834L15.5015 4.45L15.055 3.93334H15.6105L15.7818 3.08334ZM1.57832 5.21667L1.75483 6.08334H2.30511L1.85866 6.60834L2.02997 7.45834L1.57832 6.93334L1.13187 7.45834L1.29799 6.60834L0.846346 6.08334H1.4122L1.57832 5.21667ZM4.73465 5.21667L4.90597 6.08334H5.46663L5.01499 6.60834L5.18111 7.45834L4.73465 6.93334L4.28301 7.45834L4.45432 6.6L4.00787 6.075H4.55815L4.73465 5.21667ZM7.89098 5.21667L8.0623 6.075H8.61777L8.17131 6.6L8.34263 7.45L7.89098 6.925L7.43934 7.45L7.61065 6.59167L7.159 6.06667H7.71967L7.89098 5.21667ZM11.0473 5.21667L11.2186 6.075H11.7793L11.3276 6.6L11.499 7.45L11.0473 6.925L10.5957 7.45L10.7722 6.59167L10.3153 6.06667H10.8708L11.0473 5.21667ZM14.2036 5.21667L14.375 6.075H14.9304L14.484 6.6L14.6553 7.45L14.2036 6.925L13.752 7.45L13.9233 6.59167L13.4769 6.06667H14.0323L14.2036 5.21667ZM17.36 5.21667L17.5313 6.075H18.092L17.6351 6.6L17.8116 7.45L17.36 6.925L16.9083 7.45L17.0848 6.59167L16.628 6.06667H17.1887L17.36 5.21667ZM3.15649 7.38334L3.3278 8.23334H3.89366L3.44201 8.75834L3.61333 9.61667L3.16168 9.08334L2.71003 9.60834L2.88135 8.75834L2.43489 8.23334H2.99037L3.15649 7.38334ZM6.31282 7.38334L6.48932 8.23334H7.0448L6.58796 8.75834L6.76446 9.61667L6.31282 9.08334L5.86117 9.60834L6.03249 8.75834L5.58084 8.23334H6.1415L6.31282 7.38334ZM9.46915 7.38334L9.64046 8.23334H10.2011L9.74948 8.75834L9.92079 9.61667L9.46915 9.08334L9.0175 9.60834L9.18882 8.75834L8.74236 8.23334H9.29264L9.46915 7.38334ZM12.6255 7.38334L12.802 8.23334H13.3575L12.9058 8.75834L13.0771 9.61667L12.6255 9.08334L12.179 9.60834L12.3451 8.75834L11.8935 8.23334H12.4594L12.6255 7.38334ZM15.7818 7.38334L15.9531 8.23334H16.5138L16.0621 8.75834L16.2335 9.61667L15.7818 9.08334L15.3302 9.60834L15.5015 8.75834L15.055 8.23334H15.6105L15.7818 7.38334ZM1.57832 9.54167L1.75483 10.3917H2.30511L1.85866 10.9167L2.02997 11.775L1.57832 11.2417L1.13187 11.7667L1.29799 10.9167L0.846346 10.3917H1.4122L1.57832 9.54167ZM4.73465 9.54167L4.90597 10.3917H5.46663L5.01499 10.9167L5.18111 11.7667L4.73465 11.2417L4.28301 11.7667L4.45432 10.9167L4.00787 10.3917H4.55815L4.73465 9.54167ZM7.89098 9.54167L8.0623 10.3917H8.61777L8.17131 10.9167L8.34263 11.775L7.89098 11.2417L7.43934 11.7667L7.61065 10.9167L7.159 10.3917H7.71967L7.89098 9.54167ZM11.0473 9.54167L11.2186 10.3917H11.7793L11.3276 10.9167L11.499 11.775L11.0473 11.2417L10.5957 11.7667L10.7722 10.9167L10.3153 10.3917H10.8708L11.0473 9.54167ZM14.2036 9.54167L14.375 10.3917H14.9304L14.484 10.9167L14.6553 11.775L14.2036 11.2417L13.752 11.7667L13.9233 10.9167L13.4769 10.3917H14.0323L14.2036 9.54167ZM17.36 9.54167L17.5313 10.3917H18.092L17.6351 10.9167L17.8116 11.775L17.36 11.2417L16.9083 11.7667L17.0796 10.9167L16.6228 10.3917H17.1835L17.36 9.54167ZM3.15649 11.6917L3.3278 12.55H3.89366L3.44201 13.0667L3.61333 13.925L3.16168 13.3917L2.71003 13.925L2.88135 13.0667L2.43489 12.5417H2.99037L3.15649 11.6917ZM6.31282 11.6917L6.48932 12.55H7.0448L6.58796 13.0667L6.76446 13.925L6.31282 13.3917L5.86117 13.925L6.03249 13.0667L5.58084 12.5417H6.1415L6.31282 11.6917ZM9.46915 11.6917L9.64046 12.55H10.2011L9.74948 13.0667L9.92079 13.925L9.46915 13.3917L9.0175 13.925L9.18882 13.0667L8.74236 12.5417H9.29264L9.46915 11.6917ZM12.6255 11.6917L12.802 12.55H13.3575L12.9058 13.0667L13.0771 13.925L12.6255 13.3917L12.179 13.925L12.3451 13.0667L11.8935 12.5417H12.4594L12.6255 11.6917ZM15.7818 11.6917L15.9531 12.55H16.5138L16.0621 13.0667L16.2335 13.925L15.7818 13.3917L15.3302 13.925L15.5015 13.0667L15.055 12.5417H15.6105L15.7818 11.6917ZM1.57832 13.8417L1.75483 14.7H2.30511L1.85866 15.225L2.02997 16.0667L1.57832 15.55L1.13187 16.0667L1.29799 15.2167L0.846346 14.6917H1.4122L1.57832 13.8417ZM4.73465 13.8417L4.90597 14.7H5.46663L5.01499 15.225L5.1863 16.0667L4.73465 15.55L4.28301 16.0667L4.45951 15.2167L4.00787 14.6917H4.55815L4.73465 13.8417ZM7.89098 13.8417L8.0623 14.7H8.61777L8.17131 15.225L8.34263 16.0667L7.89098 15.55L7.43934 16.0667L7.61065 15.2167L7.159 14.6917H7.71967L7.89098 13.8417ZM11.0473 13.8417L11.2186 14.7H11.7793L11.3276 15.225L11.499 16.0667L11.0473 15.55L10.5957 16.0667L10.7722 15.2167L10.3153 14.6917H10.8708L11.0473 13.8417ZM14.2036 13.8417L14.375 14.7H14.9304L14.484 15.225L14.6553 16.0667L14.2036 15.55L13.752 16.0667L13.9233 15.2167L13.4769 14.6917H14.0323L14.2036 13.8417ZM17.36 13.8417L17.5313 14.7H18.092L17.6351 15.225L17.8116 16.0667L17.36 15.55L16.9083 16.0667L17.0848 15.2167L16.628 14.6917H17.1887L17.36 13.8417ZM3.15649 16L3.3278 16.85H3.89366L3.44201 17.375L3.61333 18.2333L3.16168 17.7L2.71003 18.225L2.88135 17.375L2.43489 16.85H2.99037L3.15649 16ZM6.31282 16L6.48932 16.85H7.0448L6.58796 17.375L6.76446 18.2333L6.31282 17.7L5.86117 18.225L6.03249 17.375L5.58084 16.85H6.1415L6.31282 16ZM9.46915 16L9.64046 16.85H10.2011L9.74948 17.375L9.92079 18.2333L9.46915 17.7L9.0175 18.225L9.18882 17.375L8.74236 16.85H9.29264L9.46915 16ZM12.6255 16L12.802 16.85H13.3575L12.9058 17.375L13.0771 18.2333L12.6255 17.7L12.179 18.225L12.3451 17.375L11.8935 16.85H12.4594L12.6255 16ZM15.7818 16L15.9531 16.85H16.5138L16.0621 17.375L16.2335 18.2333L15.7818 17.7L15.3302 18.225L15.5015 17.375L15.055 16.85H15.6105L15.7818 16ZM1.57832 18.1583L1.75483 19.0083H2.30511L1.85866 19.5333L2.02997 20.3833L1.57832 19.8583L1.13187 20.3833L1.29799 19.525L0.846346 19H1.4122L1.57832 18.1583ZM4.73465 18.1583L4.90597 19.0083H5.46663L5.01499 19.5333L5.1863 20.3833L4.73465 19.8583L4.28301 20.3833L4.45951 19.525L4.00787 19H4.55815L4.73465 18.1583ZM7.89098 18.1583L8.0623 19.0083H8.61777L8.1817 19.5333L8.35301 20.3833L7.90137 19.8583L7.44972 20.3833L7.62103 19.525L7.16939 19H7.73005L7.89098 18.1583ZM11.0473 18.1583L11.2186 19.0083H11.7793L11.3276 19.5333L11.499 20.3833L11.0473 19.8583L10.5957 20.3833L10.7722 19.525L10.3153 19H10.8708L11.0473 18.1583ZM14.2036 18.1583L14.375 19.0083H14.9304L14.484 19.5333L14.6553 20.3833L14.2036 19.8583L13.752 20.3833L13.9233 19.525L13.4769 19H14.0323L14.2036 18.1583ZM17.36 18.1583L17.5313 19.0083H18.092L17.6351 19.5333L17.8116 20.3833L17.36 19.8583L16.9083 20.3833L17.0848 19.525L16.628 19H17.1887L17.36 18.1583Z" fill="white"/>
</g>
<defs>
<clipPath id="clip0_1_1831">
<rect width="33.1034" height="39.8542" fill="white" transform="scale(1.00366)"/>
</clipPath>
</defs>
</svg>
