<svg width="23" height="24" viewBox="0 0 23 24" fill="none" xmlns="http://www.w3.org/2000/svg">
<path d="M8.9441 15.5245L5.18837 11.7026C5.00866 11.5198 4.76494 11.4171 4.51083 11.4171C4.25671 11.4171 4.013 11.5198 3.83328 11.7026C3.65362 11.8855 3.55269 12.1335 3.55269 12.3921C3.55269 12.6507 3.65362 12.8987 3.83328 13.0816L7.58901 16.9034C7.767 17.0846 7.97833 17.2284 8.21092 17.3264C8.44351 17.4245 8.69281 17.475 8.94458 17.475C9.19634 17.475 9.44564 17.4245 9.67824 17.3264C9.91083 17.2284 10.1222 17.0846 10.3001 16.9034L19.1667 7.88077C19.3463 7.69789 19.4473 7.44988 19.4473 7.19129C19.4473 6.9327 19.3463 6.68469 19.1667 6.50182C18.987 6.31899 18.7433 6.21629 18.4891 6.21629C18.235 6.21629 17.9913 6.31899 17.8116 6.50182L8.9441 15.5245Z" fill="#3A4F39"/>
</svg>
