<svg width="24" height="26" viewBox="0 0 24 26" fill="none" xmlns="http://www.w3.org/2000/svg">
<path d="M3.64664 12.5842C3.64664 11.8403 3.86721 11.1249 4.27716 10.5193C4.14247 10.0848 4.07286 9.62958 4.07286 9.1784C4.07286 7.23276 5.30002 5.53777 7.07905 4.90142C7.2377 3.45077 8.1688 2.20245 9.48093 1.60494C8.80656 0.514244 7.74212 -0.12527 6.76085 0.0337049C6.05168 0.148872 5.46409 0.630314 5.11877 1.35699C4.49728 1.07156 3.85094 1.02414 3.28414 1.22331C2.67079 1.43919 2.19439 1.90076 1.90647 2.55789C1.52454 3.42819 1.52409 4.54824 1.89337 5.6132C1.39572 5.95463 1.02374 6.4564 0.806328 7.08552C0.440668 8.1419 0.562705 9.41641 1.1408 10.5839C1.20408 10.7112 1.27323 10.8377 1.34872 10.9619C0.805876 11.3146 0.399537 11.8376 0.181677 12.4758C-0.164547 13.4883 -0.0113226 14.6816 0.602029 15.7483C0.883619 16.2383 1.25651 16.6823 1.69087 17.0472C1.54578 17.6542 1.65562 18.3213 2.00907 18.9251C2.5031 19.7674 3.39307 20.3387 4.34406 20.4349C5.61777 22.8268 7.15725 24.0471 9.35889 25.1044C6.74322 22.0148 5.28872 19.4558 5.20691 15.597C4.24417 14.9101 3.64664 13.7815 3.64664 12.5842Z" fill="#28B446"/>
<path d="M23.772 9.05608C23.8082 7.29742 22.7745 5.71534 21.1726 5.03157C20.939 3.53078 19.7285 2.35789 18.2243 2.15917C18.2108 2.00968 18.1823 1.86064 18.1393 1.71341C17.874 0.808332 17.0754 0.126815 16.1528 0.0175198C15.5494 -0.0542901 14.979 0.0970074 14.5076 0.428055C14.0872 0.1503 13.5977 0.000357648 13.096 0.000357648C11.8038 0.000357648 10.7299 0.95421 10.5427 2.1944C9.06518 2.49248 7.95735 3.80809 7.95735 5.34726C7.95735 5.42991 7.96096 5.51256 7.96729 5.59656C6.25425 5.90457 4.97511 7.39181 4.97511 9.17893C4.97511 9.6956 5.08676 10.2077 5.301 10.6788C4.81963 11.1932 4.54934 11.8702 4.54934 12.5847C4.54934 13.6524 5.16314 14.6207 6.10645 15.0868C6.06486 19.1799 7.55688 21.6648 10.4677 25.0132L10.6318 25.1998L10.6616 25.2336C11.1027 25.7282 11.7378 26 12.4506 26C12.574 26 12.6956 25.9897 12.8153 25.9743L12.6608 25.6744C11.6894 23.3661 11.0933 21.3166 10.7606 19.4947C9.50722 19.109 8.96529 18.1082 8.94133 18.0621C8.82472 17.8417 8.91014 17.568 9.13072 17.452C9.34993 17.3359 9.62248 17.4199 9.74045 17.6389C9.75717 17.6701 10.0202 18.1326 10.5956 18.4478C10.4383 17.2659 10.3927 16.1865 10.4383 15.2137C10.4329 15.1644 10.4352 15.1161 10.4465 15.0664C10.5251 13.6758 10.7791 12.4989 11.1145 11.5125C9.59175 10.6052 9.40372 8.91607 9.53479 8.09636C9.57412 7.85022 9.80644 7.67995 10.0523 7.7215C10.2987 7.76079 10.4663 7.99158 10.4279 8.23727C10.4166 8.30998 10.2137 9.80805 11.4467 10.6508C11.5082 10.5085 11.5701 10.3672 11.6343 10.2348C12.823 7.78338 14.5221 6.56351 15.1797 6.1611C15.1783 5.25648 15.7718 4.47064 15.7998 4.43405C15.9513 4.23579 16.236 4.19875 16.4331 4.3496C16.631 4.5009 16.669 4.78407 16.518 4.98189C16.4173 5.11557 16.2193 5.44842 16.1307 5.8147C17.1716 5.69682 18.1877 6.28395 18.2392 6.31466C18.4548 6.44157 18.5258 6.71842 18.3992 6.93295C18.3147 7.07566 18.1637 7.15515 18.0096 7.15515C17.9314 7.15515 17.8528 7.13528 17.7809 7.09283C17.4659 6.90901 16.5067 6.50299 15.8496 6.81733C15.7352 6.87559 14.9659 7.28929 14.0904 8.20204C15.8835 8.07152 17.1305 8.60354 17.1933 8.63064C17.4216 8.73136 17.5255 8.99782 17.4256 9.2259C17.3511 9.39481 17.1852 9.49597 17.0112 9.49597C16.9511 9.49597 16.8896 9.48423 16.8308 9.45804C16.7969 9.44358 15.2678 8.81039 13.2411 9.23177C12.8352 9.80218 12.4447 10.486 12.1211 11.3007C12.1202 11.3603 12.108 11.4208 12.0818 11.4786C12.0646 11.517 12.0415 11.5505 12.0162 11.5812C11.759 12.2853 11.5516 13.077 11.4268 13.9712C12.4488 13.3308 13.7379 13.3028 13.8115 13.3019H13.817C14.0637 13.3019 14.2649 13.4997 14.2685 13.7472C14.2721 13.9965 14.0723 14.2011 13.8233 14.2052C13.8043 14.2056 11.9444 14.249 11.3116 15.327C11.2673 16.4286 11.3437 17.6584 11.5787 19.0268C11.581 19.0372 11.5823 19.0476 11.5837 19.0584C11.9001 20.8826 12.4949 22.947 13.4807 25.2905L13.6958 25.7051C14.0276 25.538 14.3132 25.3068 14.5171 25.0223C14.8574 24.5471 14.9379 23.9709 14.7426 23.3995C13.9254 21.0036 13.9507 19.1754 14.8177 17.965C15.9413 16.3956 18.2817 16.1612 19.5762 16.1612C20.2429 16.1612 20.7008 16.2226 20.7053 16.2235L21.1699 16.2867L21.2165 15.8207C21.2228 15.7592 21.3562 14.3041 20.5064 13.3154C20.4571 13.2581 20.4052 13.2039 20.3518 13.152C20.5918 13.0982 20.8291 13.0219 21.0624 12.9234C22.6733 12.2446 23.7372 10.7262 23.772 9.05608Z" fill="#28B446"/>
</svg>
