<svg width="28" height="28" viewBox="0 0 28 28" fill="none" xmlns="http://www.w3.org/2000/svg">
<path d="M10.8608 2.81275C10.5475 2.84947 10.2665 3.10654 10.2665 3.47812V8.39999L10.272 8.39453C10.2709 9.11271 10.4687 9.82142 10.85 10.4655C11.2313 11.1095 11.7858 11.6716 12.4705 12.1078C10.4022 13.6889 6.92653 14.7302 6.56421 20.4622C6.52967 21.0026 6.9562 21.4667 7.49754 21.4667H9.33321C9.84935 21.4667 10.2665 21.8839 10.2665 22.4C10.2665 22.9161 9.84935 23.3333 9.33321 23.3333H1.86655C1.74287 23.3316 1.62008 23.3544 1.50531 23.4005C1.39054 23.4467 1.28608 23.5151 1.198 23.602C1.10992 23.6888 1.03998 23.7923 0.992243 23.9064C0.944505 24.0205 0.919922 24.143 0.919922 24.2667C0.919922 24.3904 0.944505 24.5128 0.992243 24.6269C1.03998 24.741 1.10992 24.8445 1.198 24.9313C1.28608 25.0182 1.39054 25.0867 1.50531 25.1328C1.62008 25.1789 1.74287 25.2017 1.86655 25.2H10.2665H17.7332C18.1119 25.1995 18.4815 25.0838 18.7929 24.8682C19.1043 24.6527 19.3428 24.3476 19.4767 23.9934C19.6106 23.6391 19.6336 23.2525 19.5426 22.8849C19.4516 22.5173 19.251 22.1861 18.9673 21.9352C19.2413 20.5967 19.5999 18.5605 19.5999 16.8C19.5999 15.5077 19.2005 13.8283 18.7723 12.3831C19.5936 11.9665 20.2725 11.3808 20.7434 10.6822C21.2143 9.98363 21.4615 9.19578 21.4611 8.39453L21.4665 8.39999V3.47812C21.4665 2.88359 20.7482 2.58505 20.3272 3.00598L18.8689 4.46432C17.9717 3.98796 16.9303 3.73441 15.8665 3.73333C14.8032 3.73524 13.7624 3.98942 12.866 4.46614L11.4059 3.00598C11.248 2.84813 11.0488 2.79073 10.8608 2.81275Z" fill="white"/>
</svg>
