<svg width="25" height="29" viewBox="0 0 25 29" fill="none" xmlns="http://www.w3.org/2000/svg">
<path d="M23.9153 22.5998C23.4767 23.613 22.9576 24.5456 22.3561 25.4031C21.5363 26.572 20.865 27.3811 20.3477 27.8304C19.5457 28.5679 18.6865 28.9456 17.7664 28.9671C17.1059 28.9671 16.3093 28.7791 15.382 28.3978C14.4517 28.0183 13.5968 27.8304 12.8151 27.8304C11.9952 27.8304 11.116 28.0183 10.1755 28.3978C9.23352 28.7791 8.47471 28.9778 7.89455 28.9975C7.01223 29.0351 6.13277 28.6467 5.25492 27.8304C4.69463 27.3417 3.99382 26.504 3.15428 25.3171C2.25351 24.0498 1.51296 22.5801 0.932803 20.9046C0.311471 19.0949 0 17.3424 0 15.6457C0 13.7023 0.41995 12.026 1.2611 10.6214C1.92217 9.4931 2.80163 8.60308 3.90234 7.9497C5.00306 7.29633 6.19238 6.96337 7.47317 6.94207C8.17398 6.94207 9.093 7.15885 10.2351 7.58489C11.3739 8.01235 12.1051 8.22913 12.4257 8.22913C12.6654 8.22913 13.4778 7.97566 14.8549 7.47032C16.1571 7.00168 17.2562 6.80764 18.1566 6.88407C20.5965 7.08098 22.4295 8.04279 23.6486 9.77557C21.4665 11.0977 20.3871 12.9495 20.4085 15.3251C20.4282 17.1755 21.0995 18.7154 22.4188 19.938C23.0167 20.5054 23.6844 20.944 24.4272 21.2555C24.2661 21.7227 24.0961 22.1702 23.9153 22.5998ZM18.3195 0.580165C18.3195 2.0305 17.7897 3.38467 16.7335 4.63807C15.459 6.12813 13.9174 6.98915 12.2457 6.85328C12.2244 6.67929 12.212 6.49617 12.212 6.30373C12.212 4.91142 12.8181 3.42136 13.8945 2.20304C14.4319 1.58618 15.1153 1.07328 15.9441 0.664119C16.7711 0.261067 17.5534 0.0381701 18.2891 0C18.3106 0.193887 18.3195 0.387786 18.3195 0.580146V0.580165Z" fill="black"/>
</svg>
