<svg width="21" height="22" viewBox="0 0 21 22" fill="none" xmlns="http://www.w3.org/2000/svg">
<path d="M20.9968 9.88227C20.9968 9.86883 20.9838 9.83388 20.9709 9.80051L10.9083 9.80364L10.9172 13.5585C10.9473 13.5607 10.9771 13.5632 11.0063 13.5648L15.1396 13.5722C15.1396 13.5722 15.1909 13.9178 15.1349 14.2394C14.9197 15.5691 14.1948 16.5206 12.9798 17.0678C12.2984 17.3754 11.5365 17.5378 10.7764 17.5378C9.18802 17.5378 7.76316 16.8654 6.76403 15.6443C6.31358 15.094 5.96695 14.4986 5.7337 13.875C4.93885 11.7479 4.99365 9.61302 5.89633 7.52941C6.20554 6.81621 6.66244 6.16214 7.2548 5.5849C8.1294 4.73282 9.37203 4.24428 10.6643 4.24428C12.4336 4.24428 13.9438 5.13243 14.8079 6.68114C14.8607 6.77611 14.9102 6.87333 14.9594 6.97054C15.0053 7.06126 15.0507 7.1522 15.1006 7.2409C15.132 7.29713 15.1695 7.35268 15.2154 7.41943L19.6877 5.54615C19.729 5.5289 19.7887 5.51143 19.8394 5.47268C19.8265 5.42765 19.7991 5.37389 19.784 5.34298C18.5565 2.84296 16.66 1.20443 14.1465 0.472408C13.0701 0.158813 11.9653 0 10.8633 0C9.69037 0 8.49163 0.179645 7.30024 0.534679C4.01145 1.51421 1.78038 3.64285 0.669636 6.86168C-0.0942519 9.07498 -0.205193 11.364 0.339932 13.6649C1.15394 17.1008 3.18719 19.4821 6.38398 20.7421C8.25683 21.4806 10.276 21.7077 12.3703 21.4145C16.3292 20.8608 19.0134 18.6587 20.3489 14.868C20.9618 13.1271 21.0172 11.289 20.9968 9.88227Z" fill="#3A3A3A"/>
</svg>
