<svg width="8" height="8" viewBox="0 0 8 8" fill="none" xmlns="http://www.w3.org/2000/svg">
<path fill-rule="evenodd" clip-rule="evenodd" d="M3.80004 1.16667C2.31347 1.16667 1.10837 2.43519 1.10837 4C1.10837 5.56481 2.31347 6.83333 3.80004 6.83333C5.2866 6.83333 6.4917 5.56481 6.4917 4C6.4917 2.43519 5.2866 1.16667 3.80004 1.16667ZM0.633369 4C0.633369 2.15905 2.05113 0.666667 3.80004 0.666667C5.54894 0.666667 6.9667 2.15905 6.9667 4C6.9667 5.84095 5.54894 7.33333 3.80004 7.33333C2.05113 7.33333 0.633369 5.84095 0.633369 4Z" fill="#949494"/>
<path fill-rule="evenodd" clip-rule="evenodd" d="M2.85406 3.50701C2.93782 3.40076 3.08756 3.38611 3.18849 3.47428L3.79999 4.00846L4.41149 3.47428C4.51243 3.38611 4.66216 3.40076 4.74592 3.50701C4.82969 3.61326 4.81577 3.77088 4.71483 3.85905L3.95166 4.52572C3.86372 4.60254 3.73626 4.60254 3.64832 4.52572L2.88515 3.85905C2.78422 3.77088 2.77029 3.61326 2.85406 3.50701Z" fill="#949494"/>
</svg>
