<svg width="26" height="26" viewBox="0 0 26 26" fill="none" xmlns="http://www.w3.org/2000/svg">
<path fill-rule="evenodd" clip-rule="evenodd" d="M13 2C8.55103 2 4.54016 4.68018 2.83765 8.79053C1.13513 12.9009 2.07617 17.6318 5.22205 20.7778C7.99451 23.5879 12.0602 24.6968 15.8754 23.6836C19.6907 22.6704 22.6705 19.6904 23.6836 15.8755C24.6968 12.0601 23.5879 7.99463 20.7781 5.22217C18.7197 3.15234 15.9189 1.99219 13 2ZM13 0C20.1797 0 26 5.82031 26 13C26 20.1797 20.1797 26 13 26C5.82031 26 0 20.1797 0 13C0 5.82031 5.82031 0 13.0001 0H13Z" fill="#384455"/>
</svg>
