<svg width="21" height="27" viewBox="0 0 21 27" fill="none" xmlns="http://www.w3.org/2000/svg">
<path d="M11.095 7.70398C11.5624 6.92338 12.3021 5.80619 13.2364 4.7342H13.2374C14.0287 3.82439 15.5782 2.65669 15.5782 2.65669C15.8111 2.48068 15.7861 2.23555 15.5213 2.11218L13.6485 1.23694C13.3837 1.11304 13.0237 1.20344 12.8482 1.43687C12.8482 1.43687 11.463 3.42399 9.83263 7.65399C4.79162 5.37388 0 8.56752 0 14.121C0 19.9218 4.46299 28.7333 10.4984 26.0735C16.8549 28.8242 21 19.9223 21 14.121C21 8.51967 16.6928 5.23563 11.095 7.70398Z" fill="#F8644A"/>
<path d="M9.96601 5.82531C10.2574 5.80085 10.5148 5.54296 10.5382 5.2521C10.5382 5.2521 10.7254 2.98369 9.14445 1.40123C7.55877 -0.181768 5.29457 0.00700002 5.29457 0.00700002C5.00317 0.0314601 4.7458 0.289355 4.72187 0.580217C4.72187 0.580217 4.5315 2.84969 6.11453 4.43268C7.69649 6.01408 9.96601 5.82531 9.96601 5.82531Z" fill="#F8644A"/>
</svg>
