<svg width="28" height="28" viewBox="0 0 28 28" fill="none" xmlns="http://www.w3.org/2000/svg">
<path d="M12.6002 2.80005C11.8152 2.80076 11.0567 3.08413 10.4635 3.59831C9.87036 4.11249 9.48218 4.82309 9.37003 5.60005C9.35788 5.59997 9.34573 5.59997 9.33357 5.60005C8.59097 5.60005 7.87878 5.89505 7.35368 6.42015C6.82857 6.94525 6.53357 7.65744 6.53357 8.40005C6.53357 9.14265 6.82857 9.85485 7.35368 10.3799C7.87878 10.9051 8.59097 11.2 9.33357 11.2H19.6002C20.0953 11.2 20.5701 11.0034 20.9202 10.6533C21.2702 10.3032 21.4669 9.82845 21.4669 9.33338C21.4669 8.83831 21.2702 8.36352 20.9202 8.01345C20.5701 7.66338 20.0953 7.46672 19.6002 7.46672H19.5966C19.5966 6.72474 19.3021 6.0131 18.7778 5.4881C18.2535 4.96311 17.5422 4.66768 16.8002 4.66672C16.4048 4.66746 16.014 4.75196 15.6536 4.91463C15.4196 4.29379 15.0021 3.75892 14.4567 3.38117C13.9113 3.00343 13.2637 2.80074 12.6002 2.80005ZM17.7336 12.1334C17.7336 12.1334 16.8002 13.4848 16.8002 14C16.8002 14.5152 17.2184 14.9334 17.7336 14.9334C18.2488 14.9334 18.6669 14.5152 18.6669 14C18.6669 13.4848 17.7336 12.1334 17.7336 12.1334ZM10.2669 13.0667C10.2669 13.0667 9.33357 14.4182 9.33357 14.9334C9.33357 15.4486 9.75171 15.8667 10.2669 15.8667C10.7821 15.8667 11.2002 15.4486 11.2002 14.9334C11.2002 14.4182 10.2669 13.0667 10.2669 13.0667ZM14.0002 14C14.0002 14 13.0669 15.3515 13.0669 15.8667C13.0669 16.3819 13.485 16.8 14.0002 16.8C14.5154 16.8 14.9336 16.3819 14.9336 15.8667C14.9336 15.3515 14.0002 14 14.0002 14ZM2.74191 14.9206C2.60367 14.9287 2.46895 14.9674 2.34752 15.034C2.22609 15.1005 2.121 15.1933 2.03985 15.3055C1.9587 15.4177 1.90354 15.5465 1.87836 15.6827C1.85318 15.8189 1.8586 15.9589 1.89425 16.0928L3.40727 22.1448C3.40727 22.1454 3.40727 22.1461 3.40727 22.1467C3.71828 23.3878 4.84482 24.2667 6.12524 24.2667H21.8771C23.1575 24.2667 24.2834 23.3868 24.5932 22.1448L26.1062 16.0928C26.136 15.9738 26.1419 15.8501 26.1239 15.7288C26.1058 15.6075 26.064 15.4909 26.0008 15.3858C25.9377 15.2806 25.8545 15.189 25.7559 15.116C25.6573 15.043 25.5453 14.9902 25.4263 14.9605C25.3073 14.9308 25.1837 14.9248 25.0624 14.943C24.9411 14.9611 24.8245 15.0029 24.7194 15.0661C24.6143 15.1292 24.5226 15.2125 24.4497 15.3111C24.3767 15.4097 24.3239 15.5217 24.2943 15.6407L23.6252 18.3185C22.9894 18.5048 22.2389 18.6667 21.4669 18.6667C19.6002 18.6667 17.7336 17.7334 17.7336 17.7334C17.7336 17.7334 15.8669 18.6667 14.0002 18.6667C12.1336 18.6667 10.2669 17.7334 10.2669 17.7334C10.2669 17.7334 8.40024 18.6667 6.53357 18.6667C5.76149 18.6667 5.01111 18.5046 4.37524 18.3185L3.70623 15.6407C3.65973 15.4419 3.54932 15.2638 3.39194 15.1338C3.23456 15.0037 3.03888 14.9288 2.83488 14.9206C2.80391 14.9191 2.77288 14.9191 2.74191 14.9206Z" fill="white"/>
</svg>
