<svg width="120" height="40" viewBox="0 0 120 40" fill="none" xmlns="http://www.w3.org/2000/svg">
<rect width="120" height="40" rx="8" fill="#FF69B4"/>
<path d="M45.5549 13.1251L42.3836 13.1198L42.3845 12.5942C42.3859 11.7234 41.6127 11.0161 40.6573 11.0145L38.3509 11.0107C37.3955 11.0091 36.6199 11.7137 36.6185 12.5845L36.6176 13.1101L33.4463 13.1048C32.6502 13.1034 32.0038 13.6907 32.0026 14.4163L32.0008 15.4675C32.0003 15.7578 32.258 15.9935 32.5765 15.9941L46.4149 16.0173C46.7334 16.0178 46.9919 15.783 46.9924 15.4927L46.9942 14.4415C46.9954 13.7158 46.351 13.1265 45.5549 13.1251ZM37.7717 12.5865C37.7721 12.2967 38.0313 12.0613 38.3491 12.0618L40.6555 12.0657C40.9734 12.0662 41.2317 12.3025 41.2313 12.5923L41.2304 13.1179L37.7708 13.112L37.7717 12.5865Z" fill="white"/>
<path d="M33.1756 16.9937C33.0741 16.9935 32.993 17.0733 32.9977 17.1688L33.4516 26.4478C33.4936 27.3066 34.2416 27.9803 35.1543 27.9819L43.7971 27.9964C44.7098 27.9979 45.4601 27.3267 45.5049 26.4681L45.99 17.1906C45.995 17.0951 45.9142 17.0151 45.8127 17.0149L33.1756 16.9937ZM41.7684 18.3477C41.7689 18.0517 42.024 17.8123 42.3384 17.8129C42.6529 17.8134 42.9071 18.0536 42.9066 18.3497L42.8949 25.3156C42.8944 25.6117 42.6393 25.851 42.3249 25.8505C42.0105 25.85 41.7562 25.6098 41.7567 25.3137L41.7684 18.3477ZM38.9228 18.343C38.9233 18.0469 39.1784 17.8076 39.4928 17.8081C39.8073 17.8086 40.0615 18.0488 40.061 18.3449L40.0493 25.3109C40.0488 25.6069 39.7937 25.8463 39.4793 25.8457C39.1649 25.8452 38.9106 25.605 38.9111 25.3089L38.9228 18.343ZM36.0772 18.3382C36.0777 18.0421 36.3328 17.8028 36.6472 17.8033C36.9616 17.8038 37.2159 18.044 37.2154 18.3401L37.2037 25.3061C37.2032 25.6021 36.9481 25.8415 36.6337 25.841C36.3193 25.8404 36.065 25.6002 36.0655 25.3042L36.0772 18.3382Z" fill="white"/>
<path d="M54 24V15.4688H56.625C57.375 15.4688 58.0449 15.6387 58.6348 15.9785C59.2285 16.3145 59.6914 16.7949 60.0234 17.4199C60.3555 18.041 60.5215 18.748 60.5215 19.541V19.9336C60.5215 20.7266 60.3574 21.4316 60.0293 22.0488C59.7051 22.666 59.2461 23.1445 58.6523 23.4844C58.0586 23.8242 57.3887 23.9961 56.6426 24H54ZM55.7578 16.8926V22.5879H56.6074C57.2949 22.5879 57.8203 22.3633 58.1836 21.9141C58.5469 21.4648 58.7324 20.8223 58.7402 19.9863V19.5352C58.7402 18.668 58.5605 18.0117 58.2012 17.5664C57.8418 17.1172 57.3164 16.8926 56.625 16.8926H55.7578Z" fill="white"/>
<path d="M64.6113 24.1172C63.6816 24.1172 62.9238 23.832 62.3379 23.2617C61.7559 22.6914 61.4648 21.9316 61.4648 20.9824V20.8184C61.4648 20.1816 61.5879 19.6133 61.834 19.1133C62.0801 18.6094 62.4277 18.2227 62.877 17.9531C63.3301 17.6797 63.8457 17.543 64.4238 17.543C65.291 17.543 65.9727 17.8164 66.4688 18.3633C66.9688 18.9102 67.2188 19.6855 67.2188 20.6895V21.3809H63.1816C63.2363 21.7949 63.4004 22.127 63.6738 22.377C63.9512 22.627 64.3008 22.752 64.7227 22.752C65.375 22.752 65.8848 22.5156 66.252 22.043L67.084 22.9746C66.8301 23.334 66.4863 23.6152 66.0527 23.8184C65.6191 24.0176 65.1387 24.1172 64.6113 24.1172ZM64.418 18.9141C64.082 18.9141 63.8086 19.0273 63.5977 19.2539C63.3906 19.4805 63.2578 19.8047 63.1992 20.2266H65.5547V20.0918C65.5469 19.7168 65.4453 19.4277 65.25 19.2246C65.0547 19.0176 64.7773 18.9141 64.418 18.9141Z" fill="white"/>
<path d="M69.9727 24H68.2734V15H69.9727V24Z" fill="white"/>
<path d="M74.291 24.1172C73.3613 24.1172 72.6035 23.832 72.0176 23.2617C71.4355 22.6914 71.1445 21.9316 71.1445 20.9824V20.8184C71.1445 20.1816 71.2676 19.6133 71.5137 19.1133C71.7598 18.6094 72.1074 18.2227 72.5566 17.9531C73.0098 17.6797 73.5254 17.543 74.1035 17.543C74.9707 17.543 75.6523 17.8164 76.1484 18.3633C76.6484 18.9102 76.8984 19.6855 76.8984 20.6895V21.3809H72.8613C72.916 21.7949 73.0801 22.127 73.3535 22.377C73.6309 22.627 73.9805 22.752 74.4023 22.752C75.0547 22.752 75.5645 22.5156 75.9316 22.043L76.7637 22.9746C76.5098 23.334 76.166 23.6152 75.7324 23.8184C75.2988 24.0176 74.8184 24.1172 74.291 24.1172ZM74.0977 18.9141C73.7617 18.9141 73.4883 19.0273 73.2773 19.2539C73.0703 19.4805 72.9375 19.8047 72.8789 20.2266H75.2344V20.0918C75.2266 19.7168 75.125 19.4277 74.9297 19.2246C74.7344 19.0176 74.457 18.9141 74.0977 18.9141Z" fill="white"/>
<path d="M79.8926 16.1016V17.6602H80.9766V18.9023H79.8926V22.0664C79.8926 22.3008 79.9375 22.4688 80.0273 22.5703C80.1172 22.6719 80.2891 22.7227 80.543 22.7227C80.7305 22.7227 80.8965 22.709 81.041 22.6816V23.9648C80.709 24.0664 80.3672 24.1172 80.0156 24.1172C78.8281 24.1172 78.2227 23.5176 78.1992 22.3184V18.9023H77.2734V17.6602H78.1992V16.1016H79.8926Z" fill="white"/>
<path d="M84.8379 24.1172C83.9082 24.1172 83.1504 23.832 82.5645 23.2617C81.9824 22.6914 81.6914 21.9316 81.6914 20.9824V20.8184C81.6914 20.1816 81.8145 19.6133 82.0605 19.1133C82.3066 18.6094 82.6543 18.2227 83.1035 17.9531C83.5566 17.6797 84.0723 17.543 84.6504 17.543C85.5176 17.543 86.1992 17.8164 86.6953 18.3633C87.1953 18.9102 87.4453 19.6855 87.4453 20.6895V21.3809H83.4082C83.4629 21.7949 83.627 22.127 83.9004 22.377C84.1777 22.627 84.5273 22.752 84.9492 22.752C85.6016 22.752 86.1113 22.5156 86.4785 22.043L87.3105 22.9746C87.0566 23.334 86.7129 23.6152 86.2793 23.8184C85.8457 24.0176 85.3652 24.1172 84.8379 24.1172ZM84.6445 18.9141C84.3086 18.9141 84.0352 19.0273 83.8242 19.2539C83.6172 19.4805 83.4844 19.8047 83.4258 20.2266H85.7812V20.0918C85.7734 19.7168 85.6719 19.4277 85.4766 19.2246C85.2812 19.0176 85.0039 18.9141 84.6445 18.9141Z" fill="white"/>
</svg>
