<svg width="18" height="18" viewBox="0 0 18 18" fill="none" xmlns="http://www.w3.org/2000/svg">
<path d="M16.2 9.00005C16.2 8.77445 16.0704 8.58545 15.8862 8.48285L15.8898 8.47685L3.9498 1.91165L3.9378 1.91765C3.8406 1.84925 3.7284 1.80005 3.6 1.80005C3.2688 1.80005 3 2.06885 3 2.40005C3 2.40065 3.0006 2.40125 3.0006 2.40245H3V9.00005V15.5976H3.0006C3.0006 15.5988 3 15.5994 3 15.6C3 15.9312 3.2688 16.2 3.6 16.2C3.7284 16.2 3.8406 16.1508 3.9384 16.0824L3.9498 16.0884L15.8898 9.52325L15.8862 9.51725C16.0704 9.41465 16.2 9.22565 16.2 9.00005Z" fill="white"/>
</svg>
