<svg width="38" height="38" viewBox="0 0 38 38" fill="none" xmlns="http://www.w3.org/2000/svg">
<path fill-rule="evenodd" clip-rule="evenodd" d="M37.5821 18.1146L34.7091 15.8651L36.5131 12.7249C36.8694 12.0789 36.5354 11.2771 35.8227 11.099L32.2517 10.119L32.6972 6.43662C32.7862 5.7239 32.1625 5.12265 31.4721 5.21164L27.8641 5.6571L26.8841 2.16036C26.7059 1.44764 25.9041 1.11365 25.2583 1.4699L22.118 3.27394L19.8685 0.40093C19.6679 0.133668 19.3339 0 18.9999 0C18.6658 0 18.3317 0.133668 18.1313 0.40093L15.8818 3.27394L12.7415 1.4699C12.0957 1.11365 11.2938 1.44764 11.1158 2.16036L10.1358 5.6571L6.45336 5.21164C5.71829 5.12265 5.13924 5.74616 5.2283 6.43662L5.67376 10.119L2.17702 11.099C1.4643 11.2772 1.13031 12.079 1.48656 12.7249L3.2906 15.8651L0.417592 18.1146C-0.139197 18.5601 -0.139197 19.4065 0.417592 19.852L3.2906 22.1013L1.48664 25.2417C1.13039 25.8876 1.46437 26.6894 2.1771 26.8675L5.67384 27.8475L5.22838 31.4555C5.13939 32.146 5.71844 32.7697 6.45343 32.6805L10.1358 32.2351L11.1158 35.8059C11.2939 36.5187 12.0958 36.8528 12.7415 36.4964L15.8818 34.6924L18.1313 37.5655C18.3541 37.8551 18.6881 37.9887 18.9999 37.9887C19.3117 37.9887 19.6457 37.8551 19.8685 37.5655L22.118 34.6924L25.2582 36.4964C25.9041 36.8528 26.706 36.5187 26.884 35.8059L27.864 32.2351L31.4721 32.6805C32.2071 32.7697 32.7862 32.146 32.6971 31.4555L32.2516 27.8475L35.8226 26.8675C36.5353 26.6892 36.8693 25.8875 36.5131 25.2417L34.709 22.1013L37.582 19.852C38.139 19.4065 38.139 18.5601 37.5821 18.1146Z" fill="#FF69B4"/>
<path d="M37.5821 19.8519L34.7091 22.1012L36.5132 25.2416C36.8694 25.8875 36.5354 26.6893 35.8227 26.8674L32.2518 27.8474L32.6972 31.4555C32.7862 32.1459 32.2072 32.7696 31.4722 32.6804L27.8641 32.2351L26.8841 35.8059C26.706 36.5186 25.9041 36.8527 25.2583 36.4963L22.1181 34.6923L19.8686 37.5654C19.6458 37.855 19.3118 37.9886 19 37.9886V0C19.3341 0 19.6682 0.133668 19.8686 0.40093L22.1181 3.27394L25.2583 1.4699C25.9042 1.11365 26.7061 1.44764 26.8841 2.16036L27.8641 5.6571L31.4722 5.21164C32.1626 5.12265 32.7863 5.72382 32.6972 6.43662L32.2518 10.119L35.8227 11.099C36.5354 11.2772 36.8694 12.079 36.5132 12.7249L34.7091 15.8651L37.5821 18.1146C38.139 18.5601 38.139 19.4065 37.5821 19.8519Z" fill="#FF69B4"/>
<path d="M18.9997 31.233C12.2452 31.233 6.67578 25.7377 6.67578 18.9833C6.67578 12.2289 12.2452 6.65935 18.9997 6.65935C25.7542 6.65935 31.2494 12.2288 31.2494 18.9833C31.2494 25.7378 25.7542 31.233 18.9997 31.233Z" fill="#FF69B4"/>
<path d="M31.2492 18.9833C31.2492 12.2288 25.7539 6.65935 18.9995 6.65935V31.233C25.754 31.233 31.2492 25.7378 31.2492 18.9833Z" fill="#FF69B4"/>
<path d="M24.3896 12.9252L18.9999 21.01L15.4808 26.2885C15.1468 26.7786 14.4564 26.9345 13.9218 26.6003C13.4096 26.244 13.2759 25.5536 13.61 25.0413L18.9998 16.9565L22.5189 11.678C22.8751 11.1658 23.5656 11.0321 24.0779 11.3662C24.5902 11.7225 24.7239 12.4129 24.3896 12.9252Z" fill="white"/>
<path d="M24.3893 12.9252L18.9995 21.01V16.9565L22.5186 11.678C22.8748 11.1658 23.5653 11.0321 24.0776 11.3662C24.5898 11.7225 24.7235 12.4129 24.3893 12.9252Z" fill="white"/>
<path fill-rule="evenodd" clip-rule="evenodd" d="M20.1133 23.4378C20.1133 25.2799 21.6119 26.7786 23.4541 26.7786C25.2963 26.7786 26.7949 25.2799 26.7949 23.4378C26.7949 21.5956 25.2963 20.097 23.4541 20.097C21.6119 20.097 20.1133 21.5956 20.1133 23.4378ZM22.3405 23.4377C22.3405 22.8233 22.8397 22.3241 23.4541 22.3241C24.0685 22.3241 24.5677 22.8233 24.5677 23.4377C24.5677 24.0521 24.0685 24.5513 23.4541 24.5513C22.8397 24.5513 22.3405 24.0521 22.3405 23.4377Z" fill="white"/>
<path fill-rule="evenodd" clip-rule="evenodd" d="M11.2046 14.5289C11.2046 16.3711 12.7032 17.8697 14.5454 17.8697C16.3877 17.8697 17.8862 16.3711 17.8862 14.5289C17.8862 12.6867 16.3876 11.1881 14.5454 11.1881C12.7032 11.1881 11.2046 12.6867 11.2046 14.5289ZM13.4318 14.5288C13.4318 13.9145 13.931 13.4153 14.5454 13.4153C15.1599 13.4153 15.659 13.9145 15.659 14.5288C15.659 15.1432 15.1598 15.6424 14.5454 15.6424C13.931 15.6424 13.4318 15.1432 13.4318 14.5288Z" fill="white"/>
</svg>
