<svg width="18" height="18" viewBox="0 0 18 18" fill="none" xmlns="http://www.w3.org/2000/svg">
<path d="M9.39359 15.3148H4.65359C2.28359 15.3148 1.49609 13.7398 1.49609 12.1573V5.84231C1.49609 3.47231 2.28359 2.68481 4.65359 2.68481H9.39359C11.7636 2.68481 12.5511 3.47231 12.5511 5.84231V12.1573C12.5511 14.5273 11.7561 15.3148 9.39359 15.3148Z" stroke="#3A3A3A" stroke-width="1.125" stroke-linecap="round" stroke-linejoin="round"/>
<path d="M14.6416 12.8246L12.5566 11.3621V6.62961L14.6416 5.16711C15.6616 4.45461 16.5016 4.88961 16.5016 6.14211V11.8571C16.5016 13.1096 15.6616 13.5446 14.6416 12.8246Z" stroke="#3A3A3A" stroke-width="1.125" stroke-linecap="round" stroke-linejoin="round"/>
<path d="M8.62891 8.24976C9.25023 8.24976 9.75391 7.74608 9.75391 7.12476C9.75391 6.50344 9.25023 5.99976 8.62891 5.99976C8.00759 5.99976 7.50391 6.50344 7.50391 7.12476C7.50391 7.74608 8.00759 8.24976 8.62891 8.24976Z" stroke="#3A3A3A" stroke-width="1.125" stroke-linecap="round" stroke-linejoin="round"/>
</svg>
