<svg width="27" height="27" viewBox="0 0 27 27" fill="none" xmlns="http://www.w3.org/2000/svg">
<g clip-path="url(#clip0_1_2165)">
<path d="M26.7368 13.811C26.7368 12.8933 26.6624 11.9707 26.5036 11.0679H13.77V16.2665H21.062C20.7594 17.9431 19.7871 19.4263 18.3635 20.3688V23.7419H22.7138C25.2685 21.3907 26.7368 17.9183 26.7368 13.811Z" fill="#FF69B4"/>
<path d="M13.77 27.001C17.411 27.001 20.4816 25.8055 22.7187 23.7419L18.3684 20.3688C17.158 21.1922 15.5955 21.6585 13.775 21.6585C10.253 21.6585 7.26678 19.2825 6.19531 16.0879H1.70605V19.5652C3.99781 24.1239 8.66564 27.001 13.77 27.001Z" fill="#34A853"/>
<path d="M6.19038 16.0878C5.62488 14.4112 5.62488 12.5956 6.19038 10.919V7.44165H1.70608C-0.208669 11.2563 -0.208669 15.7505 1.70608 19.5651L6.19038 16.0878Z" fill="#FBBC04"/>
<path d="M13.77 5.34337C15.6947 5.3136 17.5548 6.03784 18.9487 7.36725L22.8031 3.51294C20.3625 1.22119 17.1233 -0.0387742 13.77 0.000909749C8.66564 0.000909749 3.99781 2.878 1.70605 7.44166L6.19035 10.919C7.25685 7.71945 10.248 5.34337 13.77 5.34337Z" fill="#EA4335"/>
</g>
<defs>
<clipPath id="clip0_1_2165">
<rect width="27" height="27" fill="white"/>
</clipPath>
</defs>
</svg>
