<svg width="24" height="24" viewBox="0 0 24 24" fill="none" xmlns="http://www.w3.org/2000/svg">
<path d="M11.9998 0.800049C5.80665 0.800049 0.799805 5.8069 0.799805 12C0.799805 18.1932 5.80665 23.2 11.9998 23.2C18.193 23.2 23.1998 18.1932 23.1998 12C23.1998 5.8069 18.193 0.800049 11.9998 0.800049ZM11.9998 2.66672C17.1933 2.66672 21.3331 6.80653 21.3331 12C21.3331 17.1936 17.1933 21.3334 11.9998 21.3334C6.80629 21.3334 2.66647 17.1936 2.66647 12C2.66647 6.80653 6.80629 2.66672 11.9998 2.66672ZM6.3998 11.0667C6.27613 11.065 6.15334 11.0878 6.03856 11.1339C5.92379 11.1801 5.81933 11.2485 5.73126 11.3354C5.64318 11.4222 5.57324 11.5257 5.5255 11.6398C5.47776 11.7539 5.45318 11.8764 5.45318 12C5.45318 12.1237 5.47776 12.2462 5.5255 12.3603C5.57324 12.4744 5.64318 12.5779 5.73126 12.6647C5.81933 12.7516 5.92379 12.82 6.03856 12.8662C6.15334 12.9123 6.27613 12.9351 6.3998 12.9334H9.1998C9.32348 12.9351 9.44627 12.9123 9.56104 12.8662C9.67582 12.82 9.78027 12.7516 9.86835 12.6647C9.95643 12.5779 10.0264 12.4744 10.0741 12.3603C10.1218 12.2462 10.1464 12.1237 10.1464 12C10.1464 11.8764 10.1218 11.7539 10.0741 11.6398C10.0264 11.5257 9.95643 11.4222 9.86835 11.3354C9.78027 11.2485 9.67582 11.1801 9.56104 11.1339C9.44627 11.0878 9.32348 11.065 9.1998 11.0667H6.3998ZM14.7998 11.0667C14.6761 11.065 14.5533 11.0878 14.4386 11.1339C14.3238 11.1801 14.2193 11.2485 14.1313 11.3354C14.0432 11.4222 13.9732 11.5257 13.9255 11.6398C13.8778 11.7539 13.8532 11.8764 13.8532 12C13.8532 12.1237 13.8778 12.2462 13.9255 12.3603C13.9732 12.4744 14.0432 12.5779 14.1313 12.6647C14.2193 12.7516 14.3238 12.82 14.4386 12.8662C14.5533 12.9123 14.6761 12.9351 14.7998 12.9334H17.5998C17.7235 12.9351 17.8463 12.9123 17.961 12.8662C18.0758 12.82 18.1803 12.7516 18.2684 12.6647C18.3564 12.5779 18.4264 12.4744 18.4741 12.3603C18.5218 12.2462 18.5464 12.1237 18.5464 12C18.5464 11.8764 18.5218 11.7539 18.4741 11.6398C18.4264 11.5257 18.3564 11.4222 18.2684 11.3354C18.1803 11.2485 18.0758 11.1801 17.961 11.1339C17.8463 11.0878 17.7235 11.065 17.5998 11.0667H14.7998ZM13.3998 15.7334C12.6531 15.7334 11.9998 16.3867 11.9998 17.1334C11.9998 17.88 12.6531 18.5334 13.3998 18.5334C14.1465 18.5334 14.7998 17.88 14.7998 17.1334C14.7998 16.3867 14.1465 15.7334 13.3998 15.7334Z" fill="white"/>
</svg>
