<svg width="18" height="18" viewBox="0 0 18 18" fill="none" xmlns="http://www.w3.org/2000/svg">
<path fill-rule="evenodd" clip-rule="evenodd" d="M13.5 14.25C12.6727 14.25 12 13.5773 12 12.75C12 11.9227 12.6727 11.25 13.5 11.25C14.3273 11.25 15 11.9227 15 12.75C15 13.5773 14.3273 14.25 13.5 14.25ZM4.5 11.25C5.32725 11.25 6 11.9227 6 12.75C6 13.5773 5.32725 14.25 4.5 14.25C3.67275 14.25 3 13.5773 3 12.75C3 11.9227 3.67275 11.25 4.5 11.25ZM9 1.5C4.8645 1.5 1.5 4.9875 1.5 9.2745V12.75C1.5 14.4045 2.8455 15.75 4.5 15.75C6.1545 15.75 7.5 14.4045 7.5 12.75C7.5 11.0955 6.1545 9.75 4.5 9.75C3.951 9.75 3.44325 9.909 3 10.1678V9.2745C3 5.81475 5.69175 3 9 3C12.3082 3 15 5.81475 15 9.2745V10.1678C14.5568 9.909 14.049 9.75 13.5 9.75C11.8455 9.75 10.5 11.0955 10.5 12.75C10.5 14.4045 11.8455 15.75 13.5 15.75C15.1545 15.75 16.5 14.4045 16.5 12.75V9.2745C16.5 4.9875 13.1355 1.5 9 1.5Z" fill="#3A3A3A"/>
<mask id="mask0_1_3508" style="mask-type:luminance" maskUnits="userSpaceOnUse" x="1" y="1" width="16" height="15">
<path fill-rule="evenodd" clip-rule="evenodd" d="M13.5 14.25C12.6727 14.25 12 13.5773 12 12.75C12 11.9227 12.6727 11.25 13.5 11.25C14.3273 11.25 15 11.9227 15 12.75C15 13.5773 14.3273 14.25 13.5 14.25ZM4.5 11.25C5.32725 11.25 6 11.9227 6 12.75C6 13.5773 5.32725 14.25 4.5 14.25C3.67275 14.25 3 13.5773 3 12.75C3 11.9227 3.67275 11.25 4.5 11.25ZM9 1.5C4.8645 1.5 1.5 4.9875 1.5 9.2745V12.75C1.5 14.4045 2.8455 15.75 4.5 15.75C6.1545 15.75 7.5 14.4045 7.5 12.75C7.5 11.0955 6.1545 9.75 4.5 9.75C3.951 9.75 3.44325 9.909 3 10.1678V9.2745C3 5.81475 5.69175 3 9 3C12.3082 3 15 5.81475 15 9.2745V10.1678C14.5568 9.909 14.049 9.75 13.5 9.75C11.8455 9.75 10.5 11.0955 10.5 12.75C10.5 14.4045 11.8455 15.75 13.5 15.75C15.1545 15.75 16.5 14.4045 16.5 12.75V9.2745C16.5 4.9875 13.1355 1.5 9 1.5Z" fill="white"/>
</mask>
<g mask="url(#mask0_1_3508)">
</g>
</svg>
