<svg width="25" height="26" viewBox="0 0 25 26" fill="none" xmlns="http://www.w3.org/2000/svg">
<path d="M17.9779 0.761719C17.9779 0.341047 17.6369 0 17.2162 0H14.1693C13.7486 0 13.4076 0.341047 13.4076 0.761719V2.08203H17.9779V0.761719Z" fill="#0CD4DC"/>
<path d="M4.54848 22.0029C3.87776 21.6072 3.25873 21.1276 2.70862 20.5775C2.66845 20.5374 2.62925 20.4964 2.58995 20.4556C1.68294 20.9074 0.863332 21.5388 0.184945 22.3251C-0.0616484 22.611 -0.0616484 23.0344 0.184945 23.3203C1.65405 25.0232 3.78544 25.9999 6.03251 25.9999C6.70277 25.9999 7.36247 25.9124 7.99764 25.7452C7.20022 24.9039 6.54906 23.9405 6.06557 22.8979L4.54848 22.0029Z" fill="#0CD4DC"/>
<path d="M5.32263 20.6909C5.16288 19.9578 5.07949 19.2035 5.07949 18.4393C5.07949 16.7098 5.50057 15.0418 6.26874 13.5588C5.03872 12.9447 3.65295 12.6637 2.24945 12.7671C1.87291 12.7948 1.5735 13.0942 1.54578 13.4708C1.38049 15.7138 2.197 17.9115 3.78589 19.5004C4.25069 19.9652 4.76775 20.3635 5.32263 20.6909Z" fill="#0CD4DC"/>
<path d="M20.0644 10.4682C18.8431 9.79704 18.1425 8.61287 18.1425 7.21933V5.12572C18.5336 5.09352 18.8411 4.76654 18.8411 4.3672C18.8411 3.96715 18.5324 3.63976 18.1404 3.60858C18.1402 3.60655 13.245 3.60655 13.2449 3.60858C12.8529 3.63976 12.5443 3.96715 12.5443 4.3672C12.5443 4.76654 12.8517 5.09352 13.2428 5.12572V7.21933C13.2428 8.61282 12.5423 9.79699 11.3209 10.4682C9.32173 11.5667 7.84288 13.352 7.11279 15.4375H24.2725C23.5425 13.3519 22.0636 11.5667 20.0644 10.4682Z" fill="#0CD4DC"/>
<path d="M24.661 16.9609H6.72448C6.6447 17.4451 6.60291 17.9391 6.60291 18.4393C6.60291 21.3819 8.03798 24.1558 10.4418 25.8597C10.5705 25.9509 10.7244 26 10.8822 26H20.5032C20.661 26 20.8149 25.951 20.9436 25.8597C23.3474 24.1558 24.7825 21.3819 24.7825 18.4393C24.7826 17.9391 24.7407 17.4451 24.661 16.9609Z" fill="#0CD4DC"/>
</svg>
