<svg width="28" height="28" viewBox="0 0 28 28" fill="none" xmlns="http://www.w3.org/2000/svg">
<path d="M20.7478 5.61215C20.2345 5.03629 19.4962 4.66669 18.6665 4.66669C17.5633 4.66669 16.7382 5.34055 16.1689 6.53335C12.3963 6.53335 2.7998 10.0791 2.7998 16.716C2.7998 17.822 3.54647 18.6667 4.54234 19.1474C4.09807 19.7223 3.73314 20.4914 3.73314 21.4667C3.73314 21.9819 4.15034 22.4 4.66647 22.4H14.9331C15.4493 22.4 15.8665 21.9819 15.8665 21.4667C15.8665 20.9515 15.4493 20.5334 14.9331 20.5334H10.0462C10.0462 20.5334 13.0665 19.4647 13.0665 16.8C13.0665 16.1887 12.7361 14.9334 11.1998 14.9334C10.6837 14.9334 10.2665 14.5152 10.2665 14C10.2665 13.4848 10.6837 13.0667 11.1998 13.0667C13.7086 13.0667 14.8323 14.8316 14.8323 16.5704C14.8323 17.4142 14.3255 18.9262 14.3255 18.9262C14.9471 18.984 15.7535 18.971 16.6887 18.719C17.3281 19.9696 18.3967 21.6674 18.995 22.177C19.163 22.3216 19.3786 22.4 19.5998 22.4H21.4665C21.9826 22.4 22.3998 21.9819 22.3998 21.4667C22.3998 20.9515 21.9826 20.5334 21.4665 20.5334H19.9918C19.8313 19.6355 19.5205 18.5696 19.2983 17.4142C20.1169 16.9242 22.3998 14.715 22.3998 11.2C24.5847 10.1687 25.1998 8.47749 25.1998 7.79242C25.1998 6.46149 22.2887 5.73162 20.7478 5.61215ZM18.6665 8.40002C18.1513 8.40002 17.7331 7.98095 17.7331 7.46669C17.7331 6.95242 18.1513 6.53335 18.6665 6.53335C19.1817 6.53335 19.5998 6.95242 19.5998 7.46669C19.5998 7.98095 19.1817 8.40002 18.6665 8.40002Z" fill="white"/>
</svg>
