<svg width="24" height="24" viewBox="0 0 24 24" fill="none" xmlns="http://www.w3.org/2000/svg">
<path d="M14 1H10C9.45 1 9 1.45 9 2C9 2.55 9.45 3 10 3H14C14.55 3 15 2.55 15 2C15 1.45 14.55 1 14 1ZM12 14C12.55 14 13 13.55 13 13V9C13 8.45 12.55 8 12 8C11.45 8 11 8.45 11 9V13C11 13.55 11.45 14 12 14ZM19.03 7.39L19.78 6.64C19.9649 6.45395 20.0687 6.2023 20.0687 5.94C20.0687 5.6777 19.9649 5.42605 19.78 5.24L19.77 5.23C19.584 5.04509 19.3323 4.94131 19.07 4.94131C18.8077 4.94131 18.5561 5.04509 18.37 5.23L17.62 5.98C16.0273 4.69833 14.0443 3.99969 12 4C7.2 4 3.12 7.96 3 12.76C2.96767 13.962 3.17657 15.1583 3.61439 16.2782C4.05221 17.3981 4.71005 18.4189 5.54904 19.2803C6.38804 20.1417 7.39117 20.8261 8.49917 21.2933C9.60717 21.7604 10.7976 22.0007 12 22C13.6943 22.0009 15.3544 21.5232 16.7891 20.622C18.2238 19.7207 19.3748 18.4325 20.1094 16.9057C20.8441 15.379 21.1325 13.6758 20.9416 11.9923C20.7506 10.3087 20.088 8.71341 19.03 7.39ZM12 20C8.13 20 5.00001 16.87 5.00001 13C5.00001 9.13 8.13 6 12 6C15.87 6 19 9.13 19 13C19 16.87 15.87 20 12 20Z" fill="black" fill-opacity="0.35"/>
</svg>
