<svg width="18" height="18" viewBox="0 0 18 18" fill="none" xmlns="http://www.w3.org/2000/svg">
<path d="M9.75 8.36252H5.25" stroke="#3A3A3A" stroke-width="1.5" stroke-linecap="round" stroke-linejoin="round"/>
<path d="M1.5 8.36252V4.89752C1.5 3.36752 2.7375 2.13002 4.2675 2.13002H8.4825C10.0125 2.13002 11.25 3.08252 11.25 4.61252" stroke="#3A3A3A" stroke-width="1.5" stroke-linecap="round" stroke-linejoin="round"/>
<path d="M13.11 9.15001C12.735 9.51001 12.555 10.065 12.705 10.635C12.8925 11.3325 13.5825 11.775 14.3025 11.775H15V12.8625C15 14.52 13.6575 15.8625 12 15.8625H4.5C2.8425 15.8625 1.5 14.52 1.5 12.8625V7.61252C1.5 5.95502 2.8425 4.61252 4.5 4.61252H12C13.65 4.61252 15 5.96252 15 7.61252V8.69998H14.19C13.77 8.69998 13.3875 8.86501 13.11 9.15001Z" stroke="#3A3A3A" stroke-width="1.5" stroke-linecap="round" stroke-linejoin="round"/>
<path d="M16.5002 9.465V11.01C16.5002 11.43 16.1551 11.775 15.7276 11.775H14.2801C13.4701 11.775 12.7277 11.1825 12.6602 10.3725C12.6152 9.90001 12.7951 9.45751 13.1101 9.15001C13.3876 8.86501 13.7701 8.69998 14.1901 8.69998H15.7276C16.1551 8.69998 16.5002 9.045 16.5002 9.465Z" stroke="#3A3A3A" stroke-width="1.5" stroke-linecap="round" stroke-linejoin="round"/>
</svg>
