<svg width="206" height="377" viewBox="0 0 206 377" fill="none" xmlns="http://www.w3.org/2000/svg">
<path d="M4.99975 2.46589C4.98092 1.08531 3.84647 -0.0186004 2.46589 0.000232585C1.08531 0.0190658 -0.0186004 1.15351 0.000232585 2.53409L4.99975 2.46589ZM204.085 370.929C205.427 370.606 206.253 369.256 205.93 367.914L200.662 346.039C200.339 344.697 198.988 343.871 197.646 344.194C196.304 344.517 195.478 345.867 195.801 347.21L200.484 366.654L181.04 371.336C179.697 371.66 178.871 373.01 179.194 374.352C179.518 375.695 180.868 376.521 182.21 376.198L204.085 370.929ZM0.000232585 2.53409C0.888631 67.6592 23.3828 142.479 59.6 209.547C95.8137 276.608 145.893 336.185 202.195 370.631L204.804 366.366C149.476 332.516 99.9371 273.721 63.9995 207.171C28.0652 140.627 5.87459 66.5971 4.99975 2.46589L0.000232585 2.53409Z" fill="black" fill-opacity="0.35"/>
</svg>
