<svg width="14" height="14" viewBox="0 0 14 14" fill="none" xmlns="http://www.w3.org/2000/svg">
<path d="M7.33698 2.38148L7.33768 2.38289L8.36319 4.43391C8.5006 4.71273 8.7221 4.93845 8.93841 5.09806C9.15602 5.25862 9.43635 5.40246 9.7402 5.45311L9.74058 5.45317L11.601 5.76227C11.9704 5.82383 12.0655 5.93809 12.083 5.96396C12.0837 5.9956 12.0716 6.14216 11.8083 6.40367L11.8065 6.40548L10.3598 7.85215C10.1249 8.08704 9.97701 8.39003 9.89715 8.66899C9.8172 8.94829 9.78311 9.28162 9.85499 9.60234L9.85498 9.60235L9.85612 9.6073L10.2702 11.3976C10.337 11.6877 10.335 11.879 10.3152 11.9864C10.3114 12.0067 10.3074 12.0224 10.3038 12.0343C10.291 12.0342 10.2742 12.0333 10.2528 12.0306C10.1432 12.0167 9.95936 11.9601 9.70245 11.8084L7.95919 10.7764C7.65774 10.5978 7.30826 10.5316 7.00152 10.5316C6.6941 10.5316 6.34604 10.598 6.04467 10.7734L6.04466 10.7734L6.03978 10.7762L4.29561 11.8087L4.29491 11.8092C4.04036 11.9602 3.85803 12.016 3.74963 12.0296C3.72697 12.0324 3.70951 12.0333 3.69647 12.0332C3.69253 12.021 3.68814 12.0044 3.68404 11.9825C3.66409 11.8757 3.66181 11.6858 3.72836 11.3982L3.72838 11.3981L4.14255 9.6073L4.14257 9.60731L4.14368 9.60234C4.21556 9.28162 4.18147 8.94829 4.10152 8.66899C4.02167 8.39003 3.87373 8.08704 3.63883 7.85215L2.19217 6.40548C1.92802 6.14134 1.91733 5.99368 1.91817 5.96274C1.93556 5.9369 2.03001 5.82354 2.39764 5.76227L4.25809 5.45317L4.25809 5.45317L4.26073 5.45273C4.56242 5.40149 4.84104 5.25682 5.05656 5.09702C5.27117 4.9379 5.49233 4.71252 5.62962 4.43396L6.65445 2.38429C6.65455 2.38411 6.65464 2.38392 6.65473 2.38373C6.82562 2.04396 6.96318 1.97686 6.99846 1.9643C7.03381 1.97703 7.16936 2.04448 7.33698 2.38148ZM10.2905 12.066C10.2904 12.0659 10.291 12.0648 10.2924 12.063C10.2912 12.0652 10.2905 12.0661 10.2905 12.066ZM10.3346 12.0321C10.3368 12.0313 10.338 12.0311 10.338 12.0311C10.3381 12.0312 10.337 12.0316 10.3346 12.0321ZM3.66457 12.0299C3.66463 12.0298 3.66584 12.03 3.66802 12.0309C3.6656 12.0304 3.66451 12.03 3.66457 12.0299ZM3.70727 12.0596C3.70872 12.0614 3.70933 12.0625 3.70927 12.0626C3.70921 12.0627 3.70849 12.0617 3.70727 12.0596Z" stroke="#7F7F7F" stroke-width="1.5" stroke-linecap="round" stroke-linejoin="round"/>
</svg>
