<svg width="14" height="14" viewBox="0 0 14 14" fill="none" xmlns="http://www.w3.org/2000/svg">
<path d="M8.0085 2.04749L9.03517 4.10082C9.17517 4.38665 9.5485 4.66082 9.8635 4.71332L11.7243 5.02249C12.9143 5.22082 13.1943 6.08415 12.3368 6.93582L10.8902 8.38248C10.6452 8.62748 10.511 9.09998 10.5868 9.43832L11.001 11.2292C11.3277 12.6467 10.5752 13.195 9.321 12.4542L7.57684 11.4217C7.26184 11.235 6.74267 11.235 6.42184 11.4217L4.67767 12.4542C3.42934 13.195 2.671 12.6408 2.99767 11.2292L3.41184 9.43832C3.48767 9.09998 3.3535 8.62748 3.1085 8.38248L1.66184 6.93582C0.81017 6.08415 1.08434 5.22082 2.27434 5.02249L4.13517 4.71332C4.44434 4.66082 4.81767 4.38665 4.95767 4.10082L5.98434 2.04749C6.54434 0.933319 7.45434 0.933319 8.0085 2.04749Z" fill="#3A3A3A"/>
</svg>
