<svg width="54" height="17" viewBox="0 0 54 17" fill="none" xmlns="http://www.w3.org/2000/svg">
<path fill-rule="evenodd" clip-rule="evenodd" d="M35.7433 0C37.4576 0 38.829 0.342859 39.6862 0.685718L39.0004 4.02859L38.5719 3.85716C37.8004 3.5143 36.7719 3.25716 35.3147 3.25716C33.6004 3.25716 32.829 3.94288 32.829 4.62859C32.829 5.36065 33.678 5.78396 35.0832 6.4845L35.3147 6.60003C37.8861 7.71432 39.0004 9.08576 39.0004 10.8858C39.0004 12.1825 38.525 13.3025 37.666 14.1811L37.7147 14.2287C36.429 15.6002 34.2004 16.3716 31.4575 16.3716C29.4861 16.3716 27.6004 15.943 26.5718 15.5145L26.5855 15.4343L26.5718 15.4286L27.1718 11.9143L27.7718 12.1715C29.229 12.7715 30.1718 13.0286 31.8861 13.0286C33.0861 13.0286 34.4576 12.5143 34.4576 11.4858C34.4576 11.3274 34.4301 11.1782 34.3669 11.0329C34.2897 10.9049 34.1748 10.7746 34.029 10.6287L34.2854 10.8792C34.0181 10.453 33.4068 10.0443 32.229 9.51433C30.5147 8.7429 28.3718 7.54289 28.3718 5.2286C28.3718 2.1455 31.4523 0.00366282 35.7323 4.69314e-06L35.7433 0ZM19.7996 15.943L22.5425 0.514373H23.3139H26.8283L24.1711 15.943V15.943H19.7996V15.943ZM47.0571 0.514373C46.0285 0.514373 45.2571 0.600087 44.8285 1.62866L38.3999 15.943H38.9996L38.9996 15.9431H43.0282L43.0282 15.943H43.0285L43.8856 13.3716H49.3711L49.8854 15.9431H53.9997L53.9997 15.943H54L53.8366 15.2428L52.5425 9.68588L52.5392 9.68271L50.4 0.514373H48.0857H47.0571ZM47.3996 4.71454C47.1425 5.31455 46.7996 6.25729 46.7996 6.25729C46.7996 6.25729 45.4282 9.94302 45.0853 10.8002H48.6679C48.4629 9.79919 47.6567 6.17157 47.6567 6.17157L47.3996 4.71454ZM13.9715 16.0286L14.0101 15.943H14.0566L14.638 14.5476L20.9144 0.600003H17.1429H16.2858L13.3051 7.90572L13.2851 7.88579L11.9137 11.1429L11.5708 9.00008C11.5002 8.76467 11.4152 8.5271 11.317 8.28869L9.94291 1.80001C9.68576 0.771432 8.91433 0.514288 7.97147 0.514288H0L2.75748 1.36064C3.76042 1.74509 4.71242 2.19891 5.59712 2.71031L9.3429 16.0286H13.9715Z" fill="#FF69B4"/>
</svg>
